{
.appVersion = "1240";
customParameters = (
{
name = fsType;
value = (
);
},
{
name = licenseURL;
value = "http://scripts.sil.org/OFL";
},
{
name = license;
value = "This Font Software is licensed under the SIL Open Font License, Version 1.1. This license is available with a FAQ at: http://scripts.sil.org/OFL";
},
{
name = trademark;
value = "Public Sans is based on Libre Franklin, which is a trademark of Impallari Type.";
},
{
name = description;
value = "Libre Franklin is a reinterpretation and expansion of the 1912 Morris Fuller Benton￢ﾀﾙs classic.";
},
{
name = vendorID;
value = IMPA;
},
{
name = note;
value = "Based on Libre Franklin\012\012";
},
{
name = vsuffix;
value = "";
},
{
name = Axes;
value = (
{
Name = Weight;
Tag = wght;
}
);
},
{
name = "Variable Font File Name";
value = "PublicSans-Italic-VF";
},
{
name = "Variable Font Family Name";
value = "Public Sans Italic VF";
}
);
date = "2019-06-06 14:56:17 +0000";
designer = "Pablo Impallari, Rodrigo Fuenzalida (Modified by Dan O. Williams)";
designerURL = "https://designsystem.digital.gov";
familyName = "Public Sans";
featurePrefixes = (
{
automatic = 1;
code = "languagesystem DFLT dflt;\012languagesystem latn dflt;\012languagesystem cyrl dflt;\012languagesystem latn CAT;\012languagesystem latn ROM;\012languagesystem latn MOL;\012languagesystem latn KAZ;\012languagesystem latn TRK;\012languagesystem latn CRT;\012languagesystem latn AZE;\012languagesystem cyrl TAT;\012";
name = Languagesystems;
}
);
features = (
{
automatic = 1;
code = "feature locl;\012feature subs;\012feature sinf;\012feature sups;\012feature numr;\012feature dnom;\012feature frac;\012feature ordn;\012feature lnum;\012feature pnum;\012feature tnum;\012feature onum;\012feature salt;\012feature ss01;\012";
name = aalt;
},
{
automatic = 1;

glyphs = (
{
glyphname = A;
lastChange = "2019-05-31 16:36:05 +0000";
layers = (
{
anchors = (
{
name = bottom;
position = "{681, 0}";
},
{
name = ogonek;
position = "{1359, 10}";
},
{
name = top;
position = "{906, 1481}";
}
);
background = {
anchors = (
{
name = ogonek;
position = "{1531, 18}";
},
{
name = top;
position = "{812, 1520}";
}
);
paths = (
{
closed = 1;
nodes = (
"402 0 LINE SMOOTH",
"431 0 OFFCURVE",
"445 14 OFFCURVE",
"452 31 CURVE SMOOTH",
"536 272 LINE SMOOTH",
"540 287 OFFCURVE",
"550 295 OFFCURVE",
"566 295 CURVE SMOOTH",
"1000 295 LINE SMOOTH",
"1021 295 OFFCURVE",
"1025 285 OFFCURVE",
"1031 270 CURVE SMOOTH",
"1111 35 LINE SMOOTH",
"1119 8 OFFCURVE",
"1136 0 OFFCURVE",
"1156 0 CURVE SMOOTH",
"1558 0 LINE SMOOTH",
"1588 0 OFFCURVE",
"1596 41 OFFCURVE",
"1586 70 CURVE SMOOTH",
"1095 1464 LINE SMOOTH",
"1082 1497 OFFCURVE",
"1056 1520 OFFCURVE",
"1021 1520 CURVE SMOOTH",
"617 1520 LINE SMOOTH",
"581 1520 OFFCURVE",
"568 1505 OFFCURVE",
"556 1473 CURVE SMOOTH",
"60 76 LINE SMOOTH",
"44 31 OFFCURVE",
"60 0 OFFCURVE",
"91 0 CURVE SMOOTH"
);
},
{
closed = 1;
nodes = (
"640 643 OFFCURVE",
"634 659 OFFCURVE",
"644 686 CURVE SMOOTH",
"769 1034 LINE SMOOTH",
"773 1049 OFFCURVE",
"787 1049 OFFCURVE",
"794 1034 CURVE SMOOTH",
"916 684 LINE SMOOTH",
"925 657 OFFCURVE",
"921 643 OFFCURVE",
"898 643 CURVE SMOOTH",
"665 643 LINE SMOOTH"
);
}
);
};
layerId = "258ED206-D907-4350-8EBA-CBDDA1C16BF7";
paths = (
{
closed = 1;
nodes = (
"351 0 LINE",
"495 287 LINE",
"959 287 LINE",
"1013 0 LINE",
"1404 0 LINE",
"1107 1481 LINE",
"703 1481 LINE",
"-44 0 LINE"
);
},
{
closed = 1;
nodes = (
"849 1100 LINE",
"921 627 LINE",
"630 627 LINE"
);
}
);
width = 1508;
},
{
anchors = (
{
name = bottom;
position = "{596, 0}";
},
{
name = ogonek;
position = "{1147, 25}";
},
{
name = top;
position = "{805, 1481}";
}
);
background = {
anchors = (
{
name = ogonek;
position = "{1208, 23}";
},
{
name = top;
position = "{617, 1520}";
}
);
paths = (
{
closed = 1;
nodes = (
"74 0 LINE SMOOTH",
"86 0 OFFCURVE",
"94 4 OFFCURVE",
"96 14 CURVE SMOOTH",
"266 473 LINE SMOOTH",
"270 483 OFFCURVE",
"275 487 OFFCURVE",
"287 487 CURVE SMOOTH",
"946 487 LINE SMOOTH",
"959 487 OFFCURVE",
"963 483 OFFCURVE",
"967 473 CURVE SMOOTH",
"1133 16 LINE SMOOTH",
"1137 4 OFFCURVE",
"1145 0 OFFCURVE",
"1159 0 CURVE SMOOTH",
"1208 0 LINE SMOOTH",
"1223 0 OFFCURVE",
"1229 8 OFFCURVE",
"1225 20 CURVE SMOOTH",
"688 1499 LINE SMOOTH",
"684 1513 OFFCURVE",
"672 1520 OFFCURVE",
"651 1520 CURVE SMOOTH",
"584 1520 LINE SMOOTH",
"565 1520 OFFCURVE",
"557 1513 OFFCURVE",
"551 1497 CURVE SMOOTH",
"8 18 LINE SMOOTH",
"4 6 OFFCURVE",
"10 0 OFFCURVE",
"23 0 CURVE SMOOTH"
);
},
{
closed = 1;
nodes = (
"303 569 OFFCURVE",
"299 571 OFFCURVE",
"305 586 CURVE SMOOTH",
"602 1386 LINE SMOOTH",
"612 1415 OFFCURVE",
"623 1415 OFFCURVE",
"633 1389 CURVE SMOOTH",
"926 590 LINE SMOOTH",
"930 578 OFFCURVE",
"928 569 OFFCURVE",
"911 569 CURVE SMOOTH",
"315 569 LINE SMOOTH"
);
}
);
};
guideLines = (
{
angle = 69.4967;
position = "{-338, 110}";
},
{
angle = 110.0797;
position = "{21, 110}";
}
);
layerId = "91AB5BCA-6A50-42DA-B2F7-8181BF189245";
paths = (
{
closed = 1;
nodes = (
"125 0 LINE",
"350 467 LINE",
"975 467 LINE",
"1065 0 LINE",
"1146 0 LINE",
"857 1481 LINE",
"753 1481 LINE",
"46 0 LINE"
);
},
{
closed = 1;
nodes = (
"796 1395 LINE",
"959 555 LINE",
"389 555 LINE"
);
}
);
width = 1340;
}
);
leftKerningGroup = A;
leftMetricsKey = X;
rightKerningGroup = A;
rightMetricsKey = X;
unicode = 0041;
},
{
glyphname = Aringacute;
lastChange = "2019-06-06 18:06:21 +0000";
layers = (
{
background = {
paths = (
{
closed = 1;
nodes = (
"438 6 LINE",
"541 301 LINE",
"1020 301 LINE",
"1120 6 LINE",
"1608 6 LINE",
"1071 1526 LINE",
"569 1526 LINE",
"31 6 LINE"
);
},
{
closed = 1;
nodes = (
"778 1073 LINE",
"928 649 LINE",
"627 649 LINE"
);
},
{
closed = 1;
nodes = (
"944 1419 OFFCURVE",
"1044 1503 OFFCURVE",
"1044 1630 CURVE SMOOTH",
"1044 1753 OFFCURVE",
"944 1841 OFFCURVE",
"819 1841 CURVE SMOOTH",
"696 1841 OFFCURVE",
"594 1755 OFFCURVE",
"594 1634 CURVE SMOOTH",
"594 1505 OFFCURVE",
"694 1419 OFFCURVE",
"819 1419 CURVE SMOOTH"
);
},
{
closed = 1;
nodes = (
"764 1528 OFFCURVE",
"717 1575 OFFCURVE",
"717 1628 CURVE SMOOTH",
"717 1683 OFFCURVE",
"764 1724 OFFCURVE",
"817 1724 CURVE SMOOTH",
"872 1724 OFFCURVE",
"915 1683 OFFCURVE",
"915 1628 CURVE SMOOTH",
"915 1575 OFFCURVE",
"872 1528 OFFCURVE",
"817 1528 CURVE SMOOTH"
);
},
{
closed = 1;
nodes = (
"907 1792 LINE",
"958 1915 LINE SMOOTH",
"971 1944 OFFCURVE",
"963 1974 OFFCURVE",
"930 1974 CURVE SMOOTH",
"838 1974 LINE SMOOTH",
"799 1974 OFFCURVE",
"772 1962 OFFCURVE",
"760 1911 CURVE SMOOTH",
"731 1792 LINE"
);
}
);
};
components = (
{
name = A;
},
{
name = _ringacute;
transform = "{1, 0, 0, 1, 615, 422}";
}
);
layerId = "258ED206-D907-4350-8EBA-CBDDA1C16BF7";
width = 1508;
},
{
background = {
paths = (
{
closed = 1;
nodes = (
"897 1755 OFFCURVE",
"807 1843 OFFCURVE",
"692 1843 CURVE SMOOTH",
"580 1843 OFFCURVE",
"487 1755 OFFCURVE",
"487 1647 CURVE SMOOTH",
"487 1528 OFFCURVE",
"578 1438 OFFCURVE",
"692 1438 CURVE SMOOTH",
"807 1438 OFFCURVE",
"897 1526 OFFCURVE",
"897 1642 CURVE SMOOTH"
);
},
{
closed = 1;
nodes = (
"809 1577 OFFCURVE",
"758 1520 OFFCURVE",
"690 1520 CURVE SMOOTH",
"627 1520 OFFCURVE",
"569 1577 OFFCURVE",
"569 1640 CURVE SMOOTH",
"569 1712 OFFCURVE",
"627 1761 OFFCURVE",
"690 1761 CURVE SMOOTH",
"758 1761 OFFCURVE",
"809 1712 OFFCURVE",
"809 1640 CURVE SMOOTH"
);
},
{
closed = 1;
nodes = (
"643 1520 OFFCURVE",
"635 1513 OFFCURVE",
"629 1497 CURVE SMOOTH",
"123 18 LINE",
"119 8 OFFCURVE",
"125 0 OFFCURVE",
"137 0 CURVE SMOOTH",
"182 0 LINE SMOOTH",
"195 0 OFFCURVE",
"201 4 OFFCURVE",
"205 14 CURVE",
"362 473 LINE SMOOTH",
"367 483 OFFCURVE",
"371 487 OFFCURVE",
"383 487 CURVE SMOOTH",
"989 487 LINE SMOOTH",
"1001 487 OFFCURVE",
"1006 483 OFFCURVE",
"1010 473 CURVE SMOOTH",
"1165 16 LINE SMOOTH",
"1169 4 OFFCURVE",
"1176 0 OFFCURVE",
"1190 0 CURVE SMOOTH",
"1245 0 LINE SMOOTH",
"1260 0 OFFCURVE",
"1266 8 OFFCURVE",
"1262 20 CURVE SMOOTH",
"764 1499 LINE",
"760 1513 OFFCURVE",
"748 1520 OFFCURVE",
"727 1520 CURVE SMOOTH",
"662 1520 LINE SMOOTH"
);
},
{
closed = 1;
nodes = (
"977 578 OFFCURVE",
"975 569 OFFCURVE",
"958 569 CURVE SMOOTH",
"408 569 LINE SMOOTH",
"395 569 OFFCURVE",
"393 571 OFFCURVE",
"399 586 CURVE SMOOTH",
"672 1386 LINE SMOOTH",
"682 1415 OFFCURVE",
"694 1415 OFFCURVE",
"702 1389 CURVE SMOOTH",
"973 590 LINE SMOOTH"
);
},
{
closed = 1;
nodes = (
"713 1974 OFFCURVE",
"702 1966 OFFCURVE",
"698 1948 CURVE SMOOTH",
"662 1792 LINE",
"739 1792 LINE",
"803 1942 LINE SMOOTH",
"811 1962 OFFCURVE",
"805 1974 OFFCURVE",
"782 1974 CURVE SMOOTH",
"735 1974 LINE SMOOTH"
);
}
);
};
components = (
{
name = A;
},
{
name = _ringacute;
transform = "{1, 0, 0, 1, 546, 422}";
}
);
layerId = "91AB5BCA-6A50-42DA-B2F7-8181BF189245";
width = 1340;
}
);
leftKerningGroup = A;
leftMetricsKey = A;
rightKerningGroup = A;
rightMetricsKey = A;
unicode = 01FA;
},
{
glyphname = AE;
lastChange = "2019-05-31 16:36:05 +0000";
layers = (
{
anchors = (
{
name = top;
position = "{1556, 1481}";
}
);
background = {
anchors = (
{
name = top;
position = "{1460, 1520}";
}
);
paths = (
{
closed = 1;
nodes = (
"1513 336 LINE SMOOTH",
"1495 336 OFFCURVE",
"1489 342 OFFCURVE",
"1489 365 CURVE SMOOTH",
"1489 569 LINE SMOOTH",
"1489 586 OFFCURVE",
"1501 598 OFFCURVE",
"1522 598 CURVE SMOOTH",
"1901 598 LINE SMOOTH",
"1927 598 OFFCURVE",
"1937 614 OFFCURVE",
"1937 633 CURVE SMOOTH",
"1937 887 LINE SMOOTH",
"1937 913 OFFCURVE",
"1923 928 OFFCURVE",
"1894 928 CURVE SMOOTH",
"1526 928 LINE SMOOTH",
"1505 928 OFFCURVE",
"1489 942 OFFCURVE",
"1489 971 CURVE SMOOTH",
"1489 1145 LINE SMOOTH",
"1489 1171 OFFCURVE",
"1505 1184 OFFCURVE",
"1536 1184 CURVE SMOOTH",
"2150 1184 LINE SMOOTH",
"2187 1184 OFFCURVE",
"2204 1206 OFFCURVE",
"2204 1239 CURVE SMOOTH",
"2206 1477 LINE SMOOTH",
"2206 1503 OFFCURVE",
"2193 1520 OFFCURVE",
"2169 1520 CURVE SMOOTH",
"840 1520 LINE SMOOTH",
"805 1520 OFFCURVE",
"788 1505 OFFCURVE",
"772 1473 CURVE SMOOTH",
"47 76 LINE SMOOTH",
"23 31 OFFCURVE",
"35 0 OFFCURVE",
"66 0 CURVE SMOOTH",
"377 0 LINE SMOOTH",
"405 0 OFFCURVE",
"422 14 OFFCURVE",
"430 31 CURVE SMOOTH",
"551 272 LINE",
"557 287 OFFCURVE",
"569 295 OFFCURVE",
"586 295 CURVE SMOOTH",
"997 295 LINE SMOOTH",
"1018 295 OFFCURVE",
"1024 285 OFFCURVE",
"1024 266 CURVE SMOOTH",
"1024 51 LINE SMOOTH",
"1024 16 OFFCURVE",
"1038 0 OFFCURVE",
"1079 0 CURVE SMOOTH",
"2175 0 LINE SMOOTH",
"2210 0 OFFCURVE",
"2224 20 OFFCURVE",
"2224 45 CURVE SMOOTH",
"2224 297 LINE SMOOTH",
"2224 326 OFFCURVE",
"2208 336 OFFCURVE",
"2179 336 CURVE SMOOTH"
);
},
{
closed = 1;
nodes = (
"745 643 LINE SMOOTH",
"721 643 OFFCURVE",
"717 659 OFFCURVE",
"733 686 CURVE",
"942 1100 LINE SMOOTH",
"975 1161 OFFCURVE",
"1024 1157 OFFCURVE",
"1024 1096 CURVE SMOOTH",
"1024 684 LINE SMOOTH",
"1024 657 OFFCURVE",
"1010 643 OFFCURVE",
"985 643 CURVE SMOOTH"
);
}
);
};
layerId = "258ED206-D907-4350-8EBA-CBDDA1C16BF7";
paths = (
{
closed = 1;
nodes = (
"322 0 LINE",
"504 287 LINE",
"952 287 LINE",
"909 0 LINE",
"2073 0 LINE",
"2122 328 LINE",
"1411 328 LINE",
"1450 584 LINE",
"1882 584 LINE",
"1931 905 LINE",
"1497 905 LINE",
"1536 1155 LINE",
"2228 1155 LINE",
"2279 1481 LINE",
"913 1481 LINE",
"-74 0 LINE"
);
},
{
closed = 1;
nodes = (
"1096 1231 LINE",
"1003 627 LINE",
"700 627 LINE"
);
}
);
width = 2243;
},
{
anchors = (
{
name = top;
position = "{1296, 1481}";
}
);
background = {
anchors = (
{
name = top;
position = "{1262, 1520}";
}
);
paths = (
{
closed = 1;
nodes = (
"993 82 LINE SMOOTH",
"979 82 OFFCURVE",
"975 84 OFFCURVE",
"975 100 CURVE SMOOTH",
"975 709 LINE SMOOTH",
"975 725 OFFCURVE",
"979 727 OFFCURVE",
"993 727 CURVE SMOOTH",
"1542 727 LINE SMOOTH",
"1554 727 OFFCURVE",
"1559 729 OFFCURVE",
"1559 741 CURVE SMOOTH",
"1559 795 LINE SMOOTH",
"1559 805 OFFCURVE",
"1554 809 OFFCURVE",
"1544 809 CURVE SMOOTH",
"993 809 LINE SMOOTH",
"979 809 OFFCURVE",
"975 811 OFFCURVE",
"975 823 CURVE SMOOTH",
"975 1419 LINE SMOOTH",
"975 1436 OFFCURVE",
"979 1438 OFFCURVE",
"993 1438 CURVE SMOOTH",
"1685 1438 LINE SMOOTH",
"1698 1438 OFFCURVE",
"1702 1440 OFFCURVE",
"1702 1452 CURVE SMOOTH",
"1702 1505 LINE SMOOTH",
"1702 1516 OFFCURVE",
"1698 1520 OFFCURVE",
"1688 1520 CURVE SMOOTH",
"858 1520 LINE SMOOTH",
"840 1520 OFFCURVE",
"829 1513 OFFCURVE",
"821 1497 CURVE",
"-25 18 LINE SMOOTH",
"-31 8 OFFCURVE",
"-27 0 OFFCURVE",
"-14 0 CURVE SMOOTH",
"37 0 LINE SMOOTH",
"49 0 OFFCURVE",
"55 4 OFFCURVE",
"61 14 CURVE SMOOTH",
"326 473 LINE SMOOTH",
"332 483 OFFCURVE",
"338 487 OFFCURVE",
"350 487 CURVE SMOOTH",
"870 487 LINE SMOOTH",
"877 487 OFFCURVE",
"881 483 OFFCURVE",
"881 477 CURVE SMOOTH",
"881 20 LINE SMOOTH",
"881 4 OFFCURVE",
"885 0 OFFCURVE",
"899 0 CURVE SMOOTH",
"1718 0 LINE SMOOTH",
"1728 0 OFFCURVE",
"1733 4 OFFCURVE",
"1733 14 CURVE SMOOTH",
"1733 68 LINE SMOOTH",
"1733 80 OFFCURVE",
"1728 82 OFFCURVE",
"1716 82 CURVE SMOOTH"
);
},
{
closed = 1;
nodes = (
"389 569 LINE SMOOTH",
"377 569 OFFCURVE",
"375 571 OFFCURVE",
"383 586 CURVE SMOOTH",
"850 1386 LINE SMOOTH",
"866 1415 OFFCURVE",
"879 1415 OFFCURVE",
"881 1389 CURVE",
"881 588 LINE SMOOTH",
"881 578 OFFCURVE",
"877 569 OFFCURVE",
"864 569 CURVE SMOOTH"
);
}
);
};
layerId = "91AB5BCA-6A50-42DA-B2F7-8181BF189245";
paths = (
{
closed = 1;
nodes = (
"4 0 LINE",
"322 475 LINE",
"815 475 LINE",
"747 0 LINE",
"1511 0 LINE",
"1522 80 LINE",
"842 80 LINE",
"930 709 LINE",
"1454 709 LINE",
"1464 788 LINE",
"942 788 LINE",
"1028 1401 LINE",
"1681 1401 LINE",
"1692 1481 LINE",
"911 1481 LINE",
"-74 0 LINE"
);
},
{
closed = 1;
nodes = (
"944 1403 LINE",
"825 555 LINE",
"369 555 LINE"
);
}
);
width = 1725;
}
);
leftKerningGroup = AE;
rightKerningGroup = E;
rightMetricsKey = E;
unicode = 00C6;
},
{
glyphname = B;
lastChange = "2019-05-31 16:36:05 +0000";
layers = (
{
background = {
paths = (
{
closed = 1;
nodes = (
"832 0 LINE SMOOTH",
"1275 0 OFFCURVE",
"1486 133 OFFCURVE",
"1486 414 CURVE SMOOTH",
"1486 588 OFFCURVE",
"1406 692 OFFCURVE",
"1180 776 CURVE SMOOTH",
"1174 778 OFFCURVE",
"1174 788 OFFCURVE",
"1180 791 CURVE SMOOTH",
"1385 885 OFFCURVE",
"1449 977 OFFCURVE",
"1449 1118 CURVE SMOOTH",
"1449 1382 OFFCURVE",
"1223 1520 OFFCURVE",
"800 1520 CURVE SMOOTH",
"189 1520 LINE SMOOTH",
"159 1520 OFFCURVE",
"138 1497 OFFCURVE",
"138 1466 CURVE SMOOTH",
"138 45 LINE SMOOTH",
"138 20 OFFCURVE",
"156 0 OFFCURVE",
"185 0 CURVE SMOOTH"
);
},
{
closed = 1;
nodes = (
"611 307 OFFCURVE",
"603 322 OFFCURVE",
"603 352 CURVE SMOOTH",
"603 567 LINE SMOOTH",
"603 598 OFFCURVE",
"615 610 OFFCURVE",
"650 610 CURVE SMOOTH",
"832 610 LINE SMOOTH",
"935 610 OFFCURVE",
"1002 549 OFFCURVE",
"1002 465 CURVE SMOOTH",
"1002 385 OFFCURVE",
"941 307 OFFCURVE",
"822 307 CURVE SMOOTH",
"638 307 LINE SMOOTH"
);
},
{
closed = 1;
nodes = (
"611 926 OFFCURVE",
"603 940 OFFCURVE",
"603 971 CURVE SMOOTH",
"603 1171 LINE SMOOTH",
"603 1202 OFFCURVE",
"615 1212 OFFCURVE",
"650 1212 CURVE SMOOTH",
"818 1212 LINE SMOOTH",
"914 1212 OFFCURVE",
"990 1155 OFFCURVE",
"990 1065 CURVE SMOOTH",
"990 985 OFFCURVE",
"929 926 OFFCURVE",
"832 926 CURVE SMOOTH",
"638 926 LINE SMOOTH"
);
}
);
};
layerId = "258ED206-D907-4350-8EBA-CBDDA1C16BF7";
rightMetricsKey = "=H/2";
paths = (
{
closed = 1;
nodes = (
"687 0 LINE SMOOTH",
"1113 0 OFFCURVE",
"1297 127 OFFCURVE",
"1340 403 CURVE",
"1357 514 OFFCURVE",
"1369 684 OFFCURVE",
"1121 762 CURVE",
"1316 852 OFFCURVE",
"1389 952 OFFCURVE",
"1410 1090 CURVE SMOOTH",
"1447 1341 OFFCURVE",
"1289 1481 OFFCURVE",
"879 1481 CURVE SMOOTH",
"290 1481 LINE",
"66 0 LINE"
);
},
{
closed = 1;
nodes = (
"554 596 LINE",
"802 596 LINE",
"900 596 OFFCURVE",
"957 535 OFFCURVE",
"945 453 CURVE SMOOTH",
"933 375 OFFCURVE",
"861 299 OFFCURVE",
"746 299 CURVE",
"509 299 LINE"
);
},
{
closed = 1;
nodes = (
"642 1182 LINE",
"875 1182 LINE SMOOTH",
"970 1182 OFFCURVE",
"1035 1126 OFFCURVE",
"1021 1038 CURVE SMOOTH",
"1008 961 OFFCURVE",
"941 903 OFFCURVE",
"849 903 CURVE SMOOTH",
"599 903 LINE"
);
}
);
width = 1428;
},
{
background = {
paths = (
{
closed = 1;
nodes = (
"556 0 LINE SMOOTH",
"914 0 OFFCURVE",
"1125 133 OFFCURVE",
"1125 403 CURVE SMOOTH",
"1125 608 OFFCURVE",
"1005 729 OFFCURVE",
"820 764 CURVE SMOOTH",
"808 766 OFFCURVE",
"808 778 OFFCURVE",
"820 782 CURVE SMOOTH",
"1000 838 OFFCURVE",
"1089 956 OFFCURVE",
"1089 1128 CURVE SMOOTH",
"1089 1382 OFFCURVE",
"890 1520 OFFCURVE",
"550 1520 CURVE SMOOTH",
"130 1520 LINE SMOOTH",
"116 1520 OFFCURVE",
"112 1516 OFFCURVE",
"112 1499 CURVE SMOOTH",
"112 16 LINE SMOOTH",
"112 6 OFFCURVE",
"118 0 OFFCURVE",
"128 0 CURVE SMOOTH"
);
},
{
closed = 1;
nodes = (
"210 82 OFFCURVE",
"206 88 OFFCURVE",
"206 102 CURVE SMOOTH",
"206 709 LINE SMOOTH",
"206 723 OFFCURVE",
"212 727 OFFCURVE",
"228 727 CURVE SMOOTH",
"574 727 LINE SMOOTH",
"830 727 OFFCURVE",
"1027 637 OFFCURVE",
"1027 391 CURVE SMOOTH",
"1027 168 OFFCURVE",
"869 82 OFFCURVE",
"546 82 CURVE SMOOTH",
"220 82 LINE SMOOTH"
);
},
{
closed = 1;
nodes = (
"210 809 OFFCURVE",
"206 815 OFFCURVE",
"206 829 CURVE SMOOTH",
"206 1421 LINE SMOOTH",
"206 1434 OFFCURVE",
"212 1438 OFFCURVE",
"224 1438 CURVE SMOOTH",
"542 1438 LINE SMOOTH",
"818 1438 OFFCURVE",
"990 1339 OFFCURVE",
"990 1118 CURVE SMOOTH",
"990 868 OFFCURVE",
"765 809 OFFCURVE",
"574 809 CURVE SMOOTH",
"220 809 LINE SMOOTH"
);
}
);
};
layerId = "91AB5BCA-6A50-42DA-B2F7-8181BF189245";
rightMetricsKey = "=H/1.6";
paths = (
{
closed = 1;
nodes = (
"542 0 LINE",
"863 0 OFFCURVE",
"1067 129 OFFCURVE",
"1104 391 CURVE",
"1133 590 OFFCURVE",
"1044 715 OFFCURVE",
"852 751 CURVE",
"1058 812 OFFCURVE",
"1145 928 OFFCURVE",
"1169 1094 CURVE SMOOTH",
"1204 1343 OFFCURVE",
"1044 1481 OFFCURVE",
"739 1481 CURVE SMOOTH",
"359 1481 LINE",
"151 0 LINE"
);
},
{
closed = 1;
nodes = (
"325 707 LINE",
"658 707 LINE SMOOTH",
"888 707 OFFCURVE",
"1064 625 OFFCURVE",
"1031 387 CURVE SMOOTH",
"1000 168 OFFCURVE",
"829 84 OFFCURVE",
"539 84 CURVE",
"237 84 LINE"
);
},
{
closed = 1;
nodes = (
"421 1399 LINE",
"724 1399 LINE SMOOTH",
"974 1399 OFFCURVE",
"1125 1307 OFFCURVE",
"1095 1092 CURVE SMOOTH",
"1062 846 OFFCURVE",
"834 791 OFFCURVE",
"664 791 CURVE SMOOTH",
"335 791 LINE"
);
}
);
width = 1264;
}
);
leftKerningGroup = N;
leftMetricsKey = H;
rightKerningGroup = B;
unicode = 0042;
},
{
glyphname = C;
lastChange = "2019-05-31 16:36:05 +0000";
layers = (
{
anchors = (
{
name = bottom;
position = "{712, 0}";
},
{
name = top;
position = "{935, 1481}";
}
);
background = {
anchors = (
{
name = bottom;
position = "{712, 0}";
},
{
name = top;
position = "{935, 1481}";
}
);
guideLines = (
{
angle = -183.559;
position = "{511, 299}";
}
);
paths = (
{
closed = 1;
nodes = (
"1179 -20 OFFCURVE",
"1347 246 OFFCURVE",
"1435 553 CURVE",
"1021 553 LINE",
"978 416 OFFCURVE",
"878 299 OFFCURVE",
"743 299 CURVE SMOOTH",
"622 299 OFFCURVE",
"541 381 OFFCURVE",
"541 588 CURVE SMOOTH",
"541 838 OFFCURVE",
"618 1182 OFFCURVE",
"876 1182 CURVE SMOOTH",
"1013 1182 OFFCURVE",
"1081 1096 OFFCURVE",
"1083 958 CURVE",
"1496 958 LINE",
"1496 969 OFFCURVE",
"1497 978 OFFCURVE",
"1497 987 CURVE SMOOTH",
"1497 1291 OFFCURVE",
"1279 1501 OFFCURVE",
"939 1501 CURVE SMOOTH",
"391 1501 OFFCURVE",
"111 1050 OFFCURVE",
"111 607 CURVE SMOOTH",
"111 237 OFFCURVE",
"332 -20 OFFCURVE",
"708 -20 CURVE SMOOTH"
);
}
);
};
guideLines = (
{
angle = -183.559;
position = "{511, 299}";
}
);
layerId = "258ED206-D907-4350-8EBA-CBDDA1C16BF7";
paths = (
{
closed = 1;
nodes = (
"1179 -20 OFFCURVE",
"1347 246 OFFCURVE",
"1435 553 CURVE",
"1021 553 LINE",
"978 416 OFFCURVE",
"878 299 OFFCURVE",
"743 299 CURVE SMOOTH",
"622 299 OFFCURVE",
"541 381 OFFCURVE",
"541 588 CURVE SMOOTH",
"541 838 OFFCURVE",
"618 1182 OFFCURVE",
"876 1182 CURVE SMOOTH",
"1013 1182 OFFCURVE",
"1081 1096 OFFCURVE",
"1083 958 CURVE",
"1496 958 LINE",
"1496 1303 OFFCURVE",
"1282 1501 OFFCURVE",
"939 1501 CURVE SMOOTH",
"391 1501 OFFCURVE",
"111 1050 OFFCURVE",
"111 607 CURVE SMOOTH",
"111 237 OFFCURVE",
"332 -20 OFFCURVE",
"708 -20 CURVE SMOOTH"
);
}
);
width = 1526;
},
{
anchors = (
{
name = bottom;
position = "{618, 0}";
},
{
name = top;
position = "{812, 1481}";
}
);
background = {
anchors = (
{
name = bottom;
position = "{618, 0}";
},
{
name = top;
position = "{812, 1481}";
}
);
guideLines = (
{
angle = 90;
position = "{718, 342}";
}
);
paths = (
{
closed = 1;
nodes = (
"841 -20 OFFCURVE",
"1078 139 OFFCURVE",
"1127 352 CURVE",
"1051 379 LINE",
"979 180 OFFCURVE",
"813 63 OFFCURVE",
"625 63 CURVE SMOOTH",
"351 63 OFFCURVE",
"231 309 OFFCURVE",
"231 592 CURVE SMOOTH",
"231 972 OFFCURVE",
"450 1417 OFFCURVE",
"808 1417 CURVE SMOOTH",
"1039 1417 OFFCURVE",
"1148 1278 OFFCURVE",
"1156 1085 CURVE",
"1239 1096 LINE",
"1247 1309 OFFCURVE",
"1088 1501 OFFCURVE",
"807 1501 CURVE SMOOTH",
"395 1501 OFFCURVE",
"150 1013 OFFCURVE",
"150 590 CURVE SMOOTH",
"150 265 OFFCURVE",
"294 -20 OFFCURVE",
"618 -20 CURVE SMOOTH"
);
}
);
};
guideLines = (
{
angle = 90;
position = "{718, 342}";
}
);
layerId = "91AB5BCA-6A50-42DA-B2F7-8181BF189245";
paths = (
{
closed = 1;
nodes = (
"841 -20 OFFCURVE",
"1078 139 OFFCURVE",
"1127 352 CURVE",
"1051 379 LINE",
"979 180 OFFCURVE",
"813 63 OFFCURVE",
"625 63 CURVE SMOOTH",
"351 63 OFFCURVE",
"231 309 OFFCURVE",
"231 592 CURVE SMOOTH",
"231 972 OFFCURVE",
"450 1417 OFFCURVE",
"808 1417 CURVE SMOOTH",
"1039 1417 OFFCURVE",
"1148 1278 OFFCURVE",
"1156 1085 CURVE",
"1239 1096 LINE",
"1247 1309 OFFCURVE",
"1088 1501 OFFCURVE",
"807 1501 CURVE SMOOTH",
"395 1501 OFFCURVE",
"150 1013 OFFCURVE",
"150 590 CURVE SMOOTH",
"150 265 OFFCURVE",
"294 -20 OFFCURVE",
"618 -20 CURVE SMOOTH"
);
}
);
width = 1289;
}
);
leftKerningGroup = O;
leftMetricsKey = O;
rightKerningGroup = C;
rightMetricsKey = O;
unicode = 0043;
},
{
glyphname = D;
lastChange = "2019-05-31 16:35:30 +0000";
layers = (
{
anchors = (
{
name = bottom;
position = "{542, 0}";
},
{
name = center;
position = "{798, 741}";
},
{
name = top;
position = "{1014, 1481}";
}
);
background = {
anchors = (
{
name = bottom;
position = "{542, 0}";
},
{
name = center;
position = "{798, 741}";
},
{
name = top;
position = "{1014, 1481}";
}
);
paths = (
{
closed = 1;
nodes = (
"602 0 LINE SMOOTH",
"1124 0 OFFCURVE",
"1402 302 OFFCURVE",
"1466 723 CURVE SMOOTH",
"1474 776 OFFCURVE",
"1478 827 OFFCURVE",
"1478 877 CURVE SMOOTH",
"1478 1225 OFFCURVE",
"1273 1462 OFFCURVE",
"802 1478 CURVE SMOOTH",
"736 1481 OFFCURVE",
"597 1481 OFFCURVE",
"478 1481 CURVE SMOOTH",
"383 1481 OFFCURVE",
"302 1481 OFFCURVE",
"282 1481 CURVE",
"66 0 LINE"
);
},
{
closed = 1;
nodes = (
"640 1167 LINE",
"792 1167 LINE SMOOTH",
"965 1167 OFFCURVE",
"1069 1069 OFFCURVE",
"1069 874 CURVE SMOOTH",
"1069 844 OFFCURVE",
"1066 810 OFFCURVE",
"1061 774 CURVE SMOOTH",
"1009 441 OFFCURVE",
"794 313 OFFCURVE",
"643 313 CURVE SMOOTH",
"511 313 LINE"
);
}
);
};
layerId = "258ED206-D907-4350-8EBA-CBDDA1C16BF7";
paths = (
{
closed = 1;
nodes = (
"602 0 LINE SMOOTH",
"1346 0 OFFCURVE",
"1478 599 OFFCURVE",
"1478 877 CURVE SMOOTH",
"1478 1461 OFFCURVE",
"991 1481 OFFCURVE",
"478 1481 CURVE SMOOTH",
"383 1481 OFFCURVE",
"302 1481 OFFCURVE",
"282 1481 CURVE",
"66 0 LINE"
);
},
{
closed = 1;
nodes = (
"640 1167 LINE",
"792 1167 LINE SMOOTH",
"965 1167 OFFCURVE",
"1069 1069 OFFCURVE",
"1069 874 CURVE SMOOTH",
"1069 578 OFFCURVE",
"881 313 OFFCURVE",
"643 313 CURVE SMOOTH",
"511 313 LINE"
);
}
);
width = 1529;
},
{
anchors = (
{
name = bottom;
position = "{514, 0}";
},
{
name = center;
position = "{674, 741}";
},
{
name = top;
position = "{869, 1481}";
}
);
background = {
anchors = (
{
name = bottom;
position = "{514, 0}";
},
{
name = center;
position = "{674, 741}";
},
{
name = top;
position = "{869, 1481}";
}
);
paths = (
{
closed = 1;
nodes = (
"356 0 LINE SMOOTH",
"856 0 OFFCURVE",
"1121 227 OFFCURVE",
"1195 748 CURVE SMOOTH",
"1204 816 OFFCURVE",
"1209 880 OFFCURVE",
"1209 938 CURVE SMOOTH",
"1209 1304 OFFCURVE",
"1019 1477 OFFCURVE",
"583 1479 CURVE SMOOTH",
"472 1479 OFFCURVE",
"363 1481 OFFCURVE",
"359 1481 CURVE",
"154 0 LINE"
);
},
{
closed = 1;
nodes = (
"430 1397 LINE",
"557 1397 LINE SMOOTH",
"922 1397 OFFCURVE",
"1129 1289 OFFCURVE",
"1129 926 CURVE SMOOTH",
"1129 871 OFFCURVE",
"1125 813 OFFCURVE",
"1116 748 CURVE SMOOTH",
"1049 262 OFFCURVE",
"798 84 OFFCURVE",
"357 84 CURVE SMOOTH",
"246 84 LINE"
);
}
);
};
layerId = "91AB5BCA-6A50-42DA-B2F7-8181BF189245";
paths = (
{
closed = 1;
nodes = (
"356 0 LINE SMOOTH",
"1003 0 OFFCURVE",
"1209 426 OFFCURVE",
"1209 938 CURVE SMOOTH",
"1209 1304 OFFCURVE",
"1019 1477 OFFCURVE",
"583 1479 CURVE SMOOTH",
"472 1479 OFFCURVE",
"363 1481 OFFCURVE",
"359 1481 CURVE",
"154 0 LINE"
);
},
{
closed = 1;
nodes = (
"430 1397 LINE",
"557 1397 LINE SMOOTH",
"922 1397 OFFCURVE",
"1129 1289 OFFCURVE",
"1129 926 CURVE SMOOTH",
"1129 433 OFFCURVE",
"934 84 OFFCURVE",
"357 84 CURVE SMOOTH",
"246 84 LINE"
);
}
);
width = 1298;
}
);
leftKerningGroup = N;
leftMetricsKey = H;
rightKerningGroup = D;
rightMetricsKey = "=O";
unicode = 0044;
},
{
glyphname = Eth;
lastChange = "2019-05-31 16:36:05 +0000";
layers = (
{
background = {
components = (
{
name = D;
transform = "{1, 0, 0, 1, 73, 0}";
}
);
paths = (
{
closed = 1;
nodes = (
"948 850 OFFCURVE",
"934 866 OFFCURVE",
"911 866 CURVE SMOOTH",
"172 866 LINE SMOOTH",
"147 866 OFFCURVE",
"133 850 OFFCURVE",
"133 821 CURVE SMOOTH",
"133 635 LINE SMOOTH",
"133 600 OFFCURVE",
"145 586 OFFCURVE",
"186 586 CURVE SMOOTH",
"883 586 LINE SMOOTH",
"928 586 OFFCURVE",
"948 600 OFFCURVE",
"948 641 CURVE SMOOTH",
"948 827 LINE SMOOTH"
);
}
);
};
components = (
{
name = D;
transform = "{1, 0, 0, 1, 150, 0}";
}
);
layerId = "258ED206-D907-4350-8EBA-CBDDA1C16BF7";
paths = (
{
closed = 1;
nodes = (
"961 586 LINE",
"1001 866 LINE",
"121 866 LINE",
"80 586 LINE"
);
}
);
width = 1679;
},
{
background = {
components = (
{
name = D;
transform = "{1, 0, 0, 1, 55, 0}";
}
);
paths = (
{
closed = 1;
nodes = (
"760 782 OFFCURVE",
"756 788 OFFCURVE",
"748 788 CURVE SMOOTH",
"162 788 LINE SMOOTH",
"152 788 OFFCURVE",
"148 782 OFFCURVE",
"148 770 CURVE SMOOTH",
"148 725 LINE SMOOTH",
"148 711 OFFCURVE",
"152 705 OFFCURVE",
"168 705 CURVE SMOOTH",
"735 705 LINE SMOOTH",
"754 705 OFFCURVE",
"760 711 OFFCURVE",
"760 727 CURVE SMOOTH",
"760 772 LINE SMOOTH"
);
}
);
};
components = (
{
name = D;
transform = "{1, 0, 0, 1, 72, 0}";
}
);
layerId = "91AB5BCA-6A50-42DA-B2F7-8181BF189245";
paths = (
{
closed = 1;
nodes = (
"760 705 LINE",
"760 788 LINE",
"148 788 LINE",
"148 705 LINE"
);
}
);
width = 1370;
}
);
leftKerningGroup = N;
rightKerningGroup = D;
rightMetricsKey = D;
unicode = 00D0;
},
{
glyphname = E;
lastChange = "2019-05-31 16:36:05 +0000";
layers = (
{
anchors = (
{
name = bottom;
position = "{609, 0}";
},
{
name = ogonek;
position = "{1156, 20}";
},
{
name = top;
position = "{812, 1481}";
}
);
background = {
anchors = (
{
name = bottom;
position = "{716, 0}";
},
{
name = ogonek;
position = "{1277, 20}";
},
{
name = top;
position = "{716, 1520}";
}
);
paths = (
{
closed = 1;
nodes = (
"134 51 LINE SMOOTH",
"134 16 OFFCURVE",
"148 0 OFFCURVE",
"189 0 CURVE SMOOTH",
"1285 0 LINE SMOOTH",
"1320 0 OFFCURVE",
"1334 20 OFFCURVE",
"1334 45 CURVE SMOOTH",
"1334 297 LINE SMOOTH",
"1334 326 OFFCURVE",
"1318 336 OFFCURVE",
"1289 336 CURVE SMOOTH",
"623 336 LINE SMOOTH",
"605 336 OFFCURVE",
"599 342 OFFCURVE",
"599 365 CURVE SMOOTH",
"599 569 LINE SMOOTH",
"599 586 OFFCURVE",
"611 598 OFFCURVE",
"632 598 CURVE SMOOTH",
"1010 598 LINE SMOOTH",
"1037 598 OFFCURVE",
"1047 614 OFFCURVE",
"1047 633 CURVE SMOOTH",
"1047 887 LINE SMOOTH",
"1047 913 OFFCURVE",
"1033 928 OFFCURVE",
"1004 928 CURVE SMOOTH",
"636 928 LINE SMOOTH",
"615 928 OFFCURVE",
"599 942 OFFCURVE",
"599 971 CURVE SMOOTH",
"599 1145 LINE SMOOTH",
"599 1171 OFFCURVE",
"615 1184 OFFCURVE",
"646 1184 CURVE SMOOTH",
"1260 1184 LINE SMOOTH",
"1297 1184 OFFCURVE",
"1314 1206 OFFCURVE",
"1314 1239 CURVE SMOOTH",
"1316 1477 LINE SMOOTH",
"1316 1503 OFFCURVE",
"1303 1520 OFFCURVE",
"1279 1520 CURVE SMOOTH",
"173 1520 LINE SMOOTH",
"148 1520 OFFCURVE",
"134 1503 OFFCURVE",
"134 1473 CURVE SMOOTH"
);
}
);
};
layerId = "258ED206-D907-4350-8EBA-CBDDA1C16BF7";
paths = (
{
closed = 1;
nodes = (
"1154 0 LINE",
"1205 332 LINE",
"513 332 LINE",
"552 584 LINE",
"1127 584 LINE",
"1176 905 LINE",
"603 905 LINE",
"640 1151 LINE",
"1326 1151 LINE",
"1377 1481 LINE",
"292 1481 LINE",
"66 0 LINE"
);
}
);
width = 1336;
},
{
anchors = (
{
name = bottom;
position = "{564, 0}";
},
{
name = ogonek;
position = "{953, 20}";
},
{
name = top;
position = "{732, 1481}";
}
);
background = {
anchors = (
{
name = bottom;
position = "{732, 0}";
},
{
name = ogonek;
position = "{1111, 20}";
},
{
name = top;
position = "{693, 1520}";
}
);
paths = (
{
closed = 1;
nodes = (
"220 20 LINE SMOOTH",
"220 4 OFFCURVE",
"224 0 OFFCURVE",
"239 0 CURVE SMOOTH",
"1119 0 LINE SMOOTH",
"1129 0 OFFCURVE",
"1134 4 OFFCURVE",
"1134 14 CURVE SMOOTH",
"1134 68 LINE SMOOTH",
"1134 80 OFFCURVE",
"1129 82 OFFCURVE",
"1117 82 CURVE SMOOTH",
"333 82 LINE SMOOTH",
"318 82 OFFCURVE",
"314 84 OFFCURVE",
"314 100 CURVE SMOOTH",
"314 709 LINE SMOOTH",
"314 725 OFFCURVE",
"318 727 OFFCURVE",
"333 727 CURVE SMOOTH",
"923 727 LINE SMOOTH",
"935 727 OFFCURVE",
"939 729 OFFCURVE",
"939 741 CURVE SMOOTH",
"939 795 LINE SMOOTH",
"939 805 OFFCURVE",
"935 809 OFFCURVE",
"925 809 CURVE SMOOTH",
"333 809 LINE SMOOTH",
"318 809 OFFCURVE",
"314 811 OFFCURVE",
"314 823 CURVE SMOOTH",
"314 1419 LINE SMOOTH",
"314 1436 OFFCURVE",
"318 1438 OFFCURVE",
"333 1438 CURVE SMOOTH",
"1086 1438 LINE SMOOTH",
"1099 1438 OFFCURVE",
"1103 1440 OFFCURVE",
"1103 1452 CURVE SMOOTH",
"1103 1505 LINE SMOOTH",
"1103 1516 OFFCURVE",
"1099 1520 OFFCURVE",
"1089 1520 CURVE SMOOTH",
"239 1520 LINE SMOOTH",
"224 1520 OFFCURVE",
"220 1516 OFFCURVE",
"220 1499 CURVE SMOOTH"
);
}
);
};
layerId = "91AB5BCA-6A50-42DA-B2F7-8181BF189245";
rightMetricsKey = "=140";
paths = (
{
closed = 1;
nodes = (
"959 0 LINE",
"972 84 LINE",
"237 86 LINE",
"325 707 LINE",
"984 707 LINE",
"994 791 LINE",
"335 791 LINE",
"421 1399 LINE",
"1129 1399 LINE",
"1142 1481 LINE",
"359 1481 LINE",
"151 0 LINE"
);
}
);
width = 1175;
}
);
leftKerningGroup = N;
leftMetricsKey = H;
rightKerningGroup = E;
rightMetricsKey = "=H/1.5";
unicode = 0045;
},
{
glyphname = F;
lastChange = "2019-05-31 16:36:05 +0000";
layers = (
{
background = {
paths = (
{
closed = 1;
nodes = (
"101 51 LINE SMOOTH",
"101 16 OFFCURVE",
"113 0 OFFCURVE",
"156 0 CURVE",
"498 0 LINE SMOOTH",
"546 0 OFFCURVE",
"566 16 OFFCURVE",
"566 59 CURVE SMOOTH",
"566 555 LINE SMOOTH",
"566 573 OFFCURVE",
"578 586 OFFCURVE",
"599 586 CURVE SMOOTH",
"982 586 LINE SMOOTH",
"1010 586 OFFCURVE",
"1019 600 OFFCURVE",
"1019 621 CURVE SMOOTH",
"1019 870 LINE SMOOTH",
"1019 897 OFFCURVE",
"1006 911 OFFCURVE",
"978 911 CURVE SMOOTH",
"603 911 LINE SMOOTH",
"580 911 OFFCURVE",
"566 924 OFFCURVE",
"566 952 CURVE SMOOTH",
"566 1145 LINE SMOOTH",
"566 1171 OFFCURVE",
"580 1184 OFFCURVE",
"613 1184 CURVE SMOOTH",
"1215 1184 LINE SMOOTH",
"1252 1184 OFFCURVE",
"1266 1206 OFFCURVE",
"1266 1239 CURVE SMOOTH",
"1269 1477 LINE SMOOTH",
"1269 1503 OFFCURVE",
"1256 1520 OFFCURVE",
"1232 1520 CURVE SMOOTH",
"140 1520 LINE SMOOTH",
"118 1520 OFFCURVE",
"101 1503 OFFCURVE",
"101 1473 CURVE SMOOTH"
);
}
);
};
layerId = "258ED206-D907-4350-8EBA-CBDDA1C16BF7";
paths = (
{
closed = 1;
nodes = (
"464 0 LINE",
"550 571 LINE",
"1117 571 LINE",
"1166 889 LINE",
"597 889 LINE",
"638 1155 LINE",
"1318 1155 LINE",
"1369 1481 LINE",
"292 1481 LINE",
"66 0 LINE"
);
}
);
width = 1305;
},
{
background = {
paths = (
{
closed = 1;
nodes = (
"230 20 LINE SMOOTH",
"230 4 OFFCURVE",
"234 0 OFFCURVE",
"249 0 CURVE SMOOTH",
"310 0 LINE SMOOTH",
"320 0 OFFCURVE",
"325 4 OFFCURVE",
"325 14 CURVE SMOOTH",
"325 682 LINE SMOOTH",
"325 698 OFFCURVE",
"329 700 OFFCURVE",
"343 700 CURVE SMOOTH",
"953 700 LINE SMOOTH",
"966 700 OFFCURVE",
"970 702 OFFCURVE",
"970 715 CURVE SMOOTH",
"970 768 LINE SMOOTH",
"970 778 OFFCURVE",
"966 782 OFFCURVE",
"955 782 CURVE SMOOTH",
"343 782 LINE SMOOTH",
"329 782 OFFCURVE",
"325 784 OFFCURVE",
"325 797 CURVE SMOOTH",
"325 1419 LINE SMOOTH",
"325 1436 OFFCURVE",
"329 1438 OFFCURVE",
"343 1438 CURVE SMOOTH",
"1076 1438 LINE SMOOTH",
"1088 1438 OFFCURVE",
"1093 1440 OFFCURVE",
"1093 1452 CURVE SMOOTH",
"1093 1505 LINE SMOOTH",
"1093 1516 OFFCURVE",
"1088 1520 OFFCURVE",
"1078 1520 CURVE SMOOTH",
"249 1520 LINE SMOOTH",
"234 1520 OFFCURVE",
"230 1516 OFFCURVE",
"230 1499 CURVE SMOOTH"
);
}
);
};
layerId = "91AB5BCA-6A50-42DA-B2F7-8181BF189245";
paths = (
{
closed = 1;
nodes = (
"232 0 LINE",
"333 709 LINE",
"974 709 LINE",
"984 793 LINE",
"345 793 LINE",
"429 1399 LINE",
"1119 1399 LINE",
"1129 1481 LINE",
"359 1481 LINE",
"153 0 LINE"
);
}
);
width = 1110;
}
);
leftKerningGroup = N;
leftMetricsKey = H;
rightKerningGroup = F;
rightMetricsKey = "=H/2";
unicode = 0046;
},
{
glyphname = G;
lastChange = "2019-05-31 16:36:28 +0000";
layers = (
{
anchors = (
{
name = bottom;
position = "{707, 0}";
},
{
name = top;
position = "{940, 1481}";
}
);
background = {
anchors = (
{
name = bottom;
position = "{815, 0}";
},
{
name = top;
position = "{815, 1520}";
}
);
paths = (
{
closed = 1;
nodes = (
"1053 -20 OFFCURVE",
"1157 82 OFFCURVE",
"1231 154 CURVE SMOOTH",
"1241 166 OFFCURVE",
"1248 166 OFFCURVE",
"1254 158 CURVE SMOOTH",
"1336 39 LINE SMOOTH",
"1356 10 OFFCURVE",
"1377 0 OFFCURVE",
"1401 0 CURVE SMOOTH",
"1479 0 LINE SMOOTH",
"1499 0 OFFCURVE",
"1514 16 OFFCURVE",
"1514 35 CURVE SMOOTH",
"1514 705 LINE SMOOTH",
"1514 741 OFFCURVE",
"1487 768 OFFCURVE",
"1436 768 CURVE SMOOTH",
"863 772 LINE SMOOTH",
"832 772 OFFCURVE",
"820 758 OFFCURVE",
"820 737 CURVE SMOOTH",
"820 541 LINE SMOOTH",
"820 506 OFFCURVE",
"832 496 OFFCURVE",
"860 496 CURVE SMOOTH",
"1053 496 LINE SMOOTH",
"1073 496 OFFCURVE",
"1080 483 OFFCURVE",
"1071 461 CURVE",
"1065 442 LINE",
"1028 348 OFFCURVE",
"959 299 OFFCURVE",
"844 299 CURVE SMOOTH",
"688 299 OFFCURVE",
"582 395 OFFCURVE",
"582 766 CURVE SMOOTH",
"582 1114 OFFCURVE",
"676 1223 OFFCURVE",
"828 1223 CURVE SMOOTH",
"975 1223 OFFCURVE",
"1047 1120 OFFCURVE",
"1067 1008 CURVE SMOOTH",
"1073 981 OFFCURVE",
"1076 967 OFFCURVE",
"1108 967 CURVE SMOOTH",
"1459 1020 LINE SMOOTH",
"1491 1024 OFFCURVE",
"1499 1034 OFFCURVE",
"1487 1092 CURVE SMOOTH",
"1438 1311 OFFCURVE",
"1207 1540 OFFCURVE",
"838 1540 CURVE SMOOTH",
"400 1540 OFFCURVE",
"95 1227 OFFCURVE",
"95 754 CURVE SMOOTH",
"95 297 OFFCURVE",
"379 -20 OFFCURVE",
"811 -20 CURVE SMOOTH"
);
}
);
};
layerId = "258ED206-D907-4350-8EBA-CBDDA1C16BF7";
rightMetricsKey = "=O*1.5";
paths = (
{
closed = 1;
nodes = (
"942 -20 OFFCURVE",
"1061 88 OFFCURVE",
"1147 164 CURVE",
"1123 0 LINE",
"1383 0 LINE",
"1502 782 LINE",
"828 786 LINE",
"787 518 LINE",
"1043 518 LINE",
"1018 465 LINE",
"987 397 OFFCURVE",
"895 326 OFFCURVE",
"783 326 CURVE SMOOTH",
"656 326 OFFCURVE",
"496 385 OFFCURVE",
"551 748 CURVE SMOOTH",
"600 1067 OFFCURVE",
"748 1171 OFFCURVE",
"895 1171 CURVE SMOOTH",
"1033 1171 OFFCURVE",
"1094 1079 OFFCURVE",
"1102 958 CURVE",
"1516 958 LINE",
"1553 1235 OFFCURVE",
"1350 1501 OFFCURVE",
"955 1501 CURVE SMOOTH",
"531 1501 OFFCURVE",
"189 1196 OFFCURVE",
"119 735 CURVE SMOOTH",
"49 289 OFFCURVE",
"281 -20 OFFCURVE",
"699 -20 CURVE SMOOTH"
);
}
);
width = 1602;
},
{
anchors = (
{
name = bottom;
position = "{597, 0}";
},
{
name = top;
position = "{808, 1481}";
}
);
background = {
anchors = (
{
name = bottom;
position = "{736, 0}";
},
{
name = top;
position = "{726, 1520}";
}
);
paths = (
{
closed = 1;
nodes = (
"951 -20 OFFCURVE",
"1101 92 OFFCURVE",
"1181 236 CURVE SMOOTH",
"1189 250 OFFCURVE",
"1197 248 OFFCURVE",
"1197 236 CURVE SMOOTH",
"1197 18 LINE SMOOTH",
"1197 0 OFFCURVE",
"1207 0 OFFCURVE",
"1224 0 CURVE SMOOTH",
"1259 0 LINE SMOOTH",
"1273 0 OFFCURVE",
"1279 4 OFFCURVE",
"1279 23 CURVE SMOOTH",
"1279 760 LINE SMOOTH",
"1279 768 OFFCURVE",
"1275 772 OFFCURVE",
"1267 772 CURVE SMOOTH",
"783 772 LINE SMOOTH",
"777 772 OFFCURVE",
"773 768 OFFCURVE",
"773 760 CURVE SMOOTH",
"773 713 LINE SMOOTH",
"773 705 OFFCURVE",
"777 700 OFFCURVE",
"788 700 CURVE SMOOTH",
"1175 700 LINE SMOOTH",
"1187 700 OFFCURVE",
"1197 698 OFFCURVE",
"1197 684 CURVE SMOOTH",
"1197 522 LINE SMOOTH",
"1197 330 OFFCURVE",
"1050 66 OFFCURVE",
"726 66 CURVE SMOOTH",
"392 66 OFFCURVE",
"218 313 OFFCURVE",
"218 766 CURVE SMOOTH",
"218 1196 OFFCURVE",
"396 1454 OFFCURVE",
"726 1454 CURVE SMOOTH",
"943 1454 OFFCURVE",
"1117 1311 OFFCURVE",
"1150 1128 CURVE SMOOTH",
"1152 1118 OFFCURVE",
"1158 1114 OFFCURVE",
"1164 1116 CURVE SMOOTH",
"1236 1128 LINE SMOOTH",
"1246 1130 OFFCURVE",
"1246 1137 OFFCURVE",
"1246 1145 CURVE SMOOTH",
"1222 1358 OFFCURVE",
"978 1540 OFFCURVE",
"726 1540 CURVE SMOOTH",
"355 1540 OFFCURVE",
"120 1257 OFFCURVE",
"120 754 CURVE SMOOTH",
"120 264 OFFCURVE",
"345 -20 OFFCURVE",
"724 -20 CURVE SMOOTH"
);
}
);
};
layerId = "91AB5BCA-6A50-42DA-B2F7-8181BF189245";
paths = (
{
closed = 1;
nodes = (
"806 -20 OFFCURVE",
"962 102 OFFCURVE",
"1058 258 CURVE",
"1021 0 LINE",
"1095 0 LINE",
"1201 754 LINE",
"747 754 LINE",
"736 682 LINE",
"1117 682 LINE",
"1093 510 LINE SMOOTH",
"1066 322 OFFCURVE",
"898 59 OFFCURVE",
"607 59 CURVE SMOOTH",
"308 59 OFFCURVE",
"175 305 OFFCURVE",
"237 748 CURVE SMOOTH",
"296 1165 OFFCURVE",
"503 1417 OFFCURVE",
"798 1417 CURVE SMOOTH",
"994 1417 OFFCURVE",
"1130 1272 OFFCURVE",
"1132 1085 CURVE",
"1222 1102 LINE",
"1232 1319 OFFCURVE",
"1037 1501 OFFCURVE",
"810 1501 CURVE SMOOTH",
"476 1501 OFFCURVE",
"226 1227 OFFCURVE",
"159 735 CURVE SMOOTH",
"91 258 OFFCURVE",
"253 -20 OFFCURVE",
"595 -20 CURVE SMOOTH"
);
}
);
width = 1364;
}
);
leftKerningGroup = O;
leftMetricsKey = O;
rightKerningGroup = G;
rightMetricsKey = "=H-30";
unicode = 0047;
},
{
glyphname = H;
lastChange = "2019-05-31 16:36:28 +0000";
layers = (
{
anchors = (
{
name = bottom;
position = "{677, 0}";
},
{
name = top;
position = "{910, 1481}";
}
);
background = {
anchors = (
{
name = bottom;
position = "{785, 0}";
},
{
name = top;
position = "{789, 1520}";
}
);
paths = (
{
closed = 1;
nodes = (
"988 608 OFFCURVE",
"1000 594 OFFCURVE",
"1000 578 CURVE SMOOTH",
"1000 59 LINE SMOOTH",
"1000 16 OFFCURVE",
"1021 0 OFFCURVE",
"1068 0 CURVE SMOOTH",
"1410 0 LINE SMOOTH",
"1453 0 OFFCURVE",
"1465 16 OFFCURVE",
"1465 51 CURVE SMOOTH",
"1465 1473 LINE SMOOTH",
"1465 1503 OFFCURVE",
"1449 1520 OFFCURVE",
"1426 1520 CURVE SMOOTH",
"1037 1520 LINE SMOOTH",
"1015 1520 OFFCURVE",
"1000 1503 OFFCURVE",
"1000 1477 CURVE SMOOTH",
"1000 1001 LINE SMOOTH",
"1000 975 OFFCURVE",
"986 961 OFFCURVE",
"963 961 CURVE SMOOTH",
"619 961 LINE SMOOTH",
"597 961 OFFCURVE",
"582 975 OFFCURVE",
"582 1001 CURVE SMOOTH",
"582 1477 LINE SMOOTH",
"582 1503 OFFCURVE",
"568 1520 OFFCURVE",
"546 1520 CURVE SMOOTH",
"156 1520 LINE SMOOTH",
"134 1520 OFFCURVE",
"118 1503 OFFCURVE",
"118 1473 CURVE SMOOTH",
"118 51 LINE SMOOTH",
"118 16 OFFCURVE",
"130 0 OFFCURVE",
"173 0 CURVE SMOOTH",
"515 0 LINE SMOOTH",
"562 0 OFFCURVE",
"582 16 OFFCURVE",
"582 59 CURVE SMOOTH",
"582 578 LINE SMOOTH",
"582 594 OFFCURVE",
"595 608 OFFCURVE",
"615 608 CURVE SMOOTH",
"967 608 LINE SMOOTH"
);
}
);
};
layerId = "258ED206-D907-4350-8EBA-CBDDA1C16BF7";
paths = (
{
closed = 1;
nodes = (
"464 0 LINE",
"554 594 LINE",
"998 594 LINE",
"908 0 LINE",
"1305 0 LINE",
"1531 1481 LINE",
"1133 1481 LINE",
"1049 920 LINE",
"603 920 LINE",
"689 1481 LINE",
"292 1481 LINE",
"66 0 LINE"
);
}
);
width = 1537;
},
{
anchors = (
{
name = bottom;
position = "{601, 0}";
},
{
name = top;
position = "{810, 1481}";
}
);
background = {
anchors = (
{
name = bottom;
position = "{726, 0}";
},
{
name = top;
position = "{726, 1520}";
}
);
paths = (
{
closed = 1;
nodes = (
"1136 750 OFFCURVE",
"1140 745 OFFCURVE",
"1140 735 CURVE SMOOTH",
"1140 18 LINE SMOOTH",
"1140 4 OFFCURVE",
"1146 0 OFFCURVE",
"1160 0 CURVE SMOOTH",
"1215 0 LINE SMOOTH",
"1228 0 OFFCURVE",
"1234 6 OFFCURVE",
"1234 20 CURVE SMOOTH",
"1234 1499 LINE SMOOTH",
"1234 1516 OFFCURVE",
"1230 1520 OFFCURVE",
"1215 1520 CURVE SMOOTH",
"1156 1520 LINE SMOOTH",
"1144 1520 OFFCURVE",
"1140 1513 OFFCURVE",
"1140 1501 CURVE SMOOTH",
"1140 848 LINE SMOOTH",
"1140 836 OFFCURVE",
"1136 831 OFFCURVE",
"1123 831 CURVE SMOOTH",
"329 831 LINE SMOOTH",
"314 831 OFFCURVE",
"310 834 OFFCURVE",
"310 850 CURVE SMOOTH",
"310 1499 LINE SMOOTH",
"310 1516 OFFCURVE",
"306 1520 OFFCURVE",
"292 1520 CURVE SMOOTH",
"234 1520 LINE SMOOTH",
"220 1520 OFFCURVE",
"216 1516 OFFCURVE",
"216 1499 CURVE SMOOTH",
"216 20 LINE SMOOTH",
"216 6 OFFCURVE",
"220 0 OFFCURVE",
"234 0 CURVE SMOOTH",
"290 0 LINE SMOOTH",
"304 0 OFFCURVE",
"310 6 OFFCURVE",
"310 18 CURVE SMOOTH",
"310 737 LINE SMOOTH",
"310 743 OFFCURVE",
"314 750 OFFCURVE",
"323 750 CURVE SMOOTH",
"1125 750 LINE SMOOTH"
);
}
);
};
layerId = "91AB5BCA-6A50-42DA-B2F7-8181BF189245";
paths = (
{
closed = 1;
nodes = (
"224 0 LINE",
"327 729 LINE",
"1078 729 LINE",
"976 0 LINE",
"1050 0 LINE",
"1258 1481 LINE",
"1185 1481 LINE",
"1091 813 LINE",
"339 813 LINE",
"433 1481 LINE",
"359 1481 LINE",
"151 0 LINE"
);
}
);
width = 1349;
}
);
leftKerningGroup = N;
rightKerningGroup = N;
unicode = 0048;
},
{
glyphname = Hbar;
lastChange = "2019-05-31 16:36:28 +0000";
layers = (
{
background = {
components = (
{
name = H;
transform = "{1, 0, 0, 1, 35, 0}";
}
);
paths = (
{
closed = 1;
nodes = (
"1594 1300 OFFCURVE",
"1582 1315 OFFCURVE",
"1562 1315 CURVE SMOOTH",
"30 1315 LINE SMOOTH",
"11 1315 OFFCURVE",
"-1 1300 OFFCURVE",
"-1 1274 CURVE SMOOTH",
"-1 1153 LINE SMOOTH",
"-1 1122 OFFCURVE",
"9 1108 OFFCURVE",
"42 1108 CURVE SMOOTH",
"1537 1108 LINE SMOOTH",
"1576 1108 OFFCURVE",
"1594 1122 OFFCURVE",
"1594 1157 CURVE SMOOTH",
"1594 1278 LINE SMOOTH"
);
}
);
};
components = (
{
name = H;
transform = "{1, 0, 0, 1, 74, 0}";
}
);
layerId = "258ED206-D907-4350-8EBA-CBDDA1C16BF7";
paths = (
{
closed = 1;
nodes = (
"1707 1108 LINE",
"1738 1315 LINE",
"153 1315 LINE",
"122 1108 LINE"
);
}
);
width = 1669;
},
{
background = {
components = (
{
name = H;
transform = "{1, 0, 0, 1, 19, 0}";
}
);
paths = (
{
closed = 1;
nodes = (
"1449 1229 OFFCURVE",
"1445 1235 OFFCURVE",
"1437 1235 CURVE SMOOTH",
"73 1235 LINE SMOOTH",
"62 1235 OFFCURVE",
"58 1229 OFFCURVE",
"58 1217 CURVE SMOOTH",
"58 1174 LINE SMOOTH",
"58 1159 OFFCURVE",
"62 1155 OFFCURVE",
"79 1155 CURVE SMOOTH",
"1424 1155 LINE SMOOTH",
"1443 1155 OFFCURVE",
"1449 1159 OFFCURVE",
"1449 1176 CURVE SMOOTH",
"1449 1219 LINE SMOOTH"
);
}
);
};
components = (
{
name = H;
transform = "{1, 0, 0, 1, 40, 0}";
}
);
layerId = "91AB5BCA-6A50-42DA-B2F7-8181BF189245";
paths = (
{
closed = 1;
nodes = (
"1388 1155 LINE",
"1400 1235 LINE",
"120 1235 LINE",
"108 1155 LINE"
);
}
);
width = 1322;
}
);
leftKerningGroup = N;
rightKerningGroup = N;
unicode = 0126;
},
{
glyphname = I;
lastChange = "2019-05-31 16:36:28 +0000";
layers = (
{
anchors = (
{
name = bottom;
position = "{286, 0}";
},
{
name = ogonek;
position = "{415, 6}";
},
{
name = top;
position = "{490, 1481}";
}
);
background = {
anchors = (
{
name = bottom;
position = "{390, 0}";
},
{
name = ogonek;
position = "{558, 20}";
},
{
name = top;
position = "{392, 1520}";
}
);
paths = (
{
closed = 1;
nodes = (
"175 1520 OFFCURVE",
"159 1503 OFFCURVE",
"159 1473 CURVE SMOOTH",
"159 51 LINE SMOOTH",
"159 16 OFFCURVE",
"171 0 OFFCURVE",
"214 0 CURVE SMOOTH",
"556 0 LINE SMOOTH",
"603 0 OFFCURVE",
"623 16 OFFCURVE",
"623 59 CURVE SMOOTH",
"623 1477 LINE SMOOTH",
"623 1503 OFFCURVE",
"611 1520 OFFCURVE",
"587 1520 CURVE SMOOTH",
"197 1520 LINE SMOOTH"
);
}
);
};
layerId = "258ED206-D907-4350-8EBA-CBDDA1C16BF7";
paths = (
{
closed = 1;
nodes = (
"464 0 LINE",
"687 1481 LINE",
"290 1481 LINE",
"66 0 LINE"
);
}
);
width = 693;
},
{
anchors = (
{
name = bottom;
position = "{191, 0}";
},
{
name = ogonek;
position = "{218, 20}";
},
{
name = top;
position = "{398, 1481}";
}
);
background = {
anchors = (
{
name = bottom;
position = "{304, 0}";
},
{
name = ogonek;
position = "{329, 20}";
},
{
name = top;
position = "{310, 1520}";
}
);
paths = (
{
closed = 1;
nodes = (
"261 1520 OFFCURVE",
"257 1516 OFFCURVE",
"257 1499 CURVE SMOOTH",
"257 20 LINE SMOOTH",
"257 4 OFFCURVE",
"261 0 OFFCURVE",
"280 0 CURVE SMOOTH",
"327 0 LINE SMOOTH",
"347 0 OFFCURVE",
"351 4 OFFCURVE",
"351 25 CURVE SMOOTH",
"351 1499 LINE SMOOTH",
"351 1516 OFFCURVE",
"347 1520 OFFCURVE",
"333 1520 CURVE SMOOTH",
"275 1520 LINE SMOOTH"
);
}
);
};
layerId = "91AB5BCA-6A50-42DA-B2F7-8181BF189245";
paths = (
{
closed = 1;
nodes = (
"226 0 LINE",
"433 1481 LINE",
"359 1481 LINE",
"153 0 LINE"
);
}
);
width = 525;
}
);
leftKerningGroup = N;
leftMetricsKey = H;
rightKerningGroup = N;
rightMetricsKey = H;
unicode = 0049;
},
{
glyphname = J;
lastChange = "2019-05-31 16:36:05 +0000";
layers = (
{
anchors = (
{
name = top;
position = "{675, 1481}";
}
);
background = {
anchors = (
{
name = top;
position = "{460, 1520}";
}
);
paths = (
{
closed = 1;
nodes = (
"822 1477 LINE SMOOTH",
"822 1503 OFFCURVE",
"810 1520 OFFCURVE",
"785 1520 CURVE SMOOTH",
"398 1520 LINE SMOOTH",
"374 1520 OFFCURVE",
"357 1503 OFFCURVE",
"357 1473 CURVE SMOOTH",
"357 549 LINE SMOOTH",
"357 410 OFFCURVE",
"298 358 OFFCURVE",
"198 358 CURVE SMOOTH",
"153 358 OFFCURVE",
"118 369 OFFCURVE",
"85 373 CURVE SMOOTH",
"52 377 OFFCURVE",
"38 356 OFFCURVE",
"36 326 CURVE SMOOTH",
"17 92 LINE SMOOTH",
"13 35 OFFCURVE",
"34 12 OFFCURVE",
"81 4 CURVE SMOOTH",
"173 -12 OFFCURVE",
"251 -20 OFFCURVE",
"335 -20 CURVE SMOOTH",
"654 -20 OFFCURVE",
"822 98 OFFCURVE",
"822 434 CURVE SMOOTH"
);
}
);
};
layerId = "258ED206-D907-4350-8EBA-CBDDA1C16BF7";
paths = (
{
closed = 1;
nodes = (
"574 -20 OFFCURVE",
"679 141 OFFCURVE",
"728 469 CURVE SMOOTH",
"882 1481 LINE",
"486 1481 LINE",
"347 571 LINE SMOOTH",
"325 418 OFFCURVE",
"280 348 OFFCURVE",
"138 348 CURVE SMOOTH",
"95 348 OFFCURVE",
"46 354 OFFCURVE",
"9 358 CURVE",
"-44 0 LINE",
"15 -12 OFFCURVE",
"136 -20 OFFCURVE",
"220 -20 CURVE SMOOTH"
);
}
);
width = 860;
},
{
anchors = (
{
name = top;
position = "{653, 1481}";
}
);
background = {
anchors = (
{
name = top;
position = "{584, 1520}";
}
);
paths = (
{
closed = 1;
nodes = (
"631 1499 LINE SMOOTH",
"631 1513 OFFCURVE",
"627 1520 OFFCURVE",
"614 1520 CURVE SMOOTH",
"553 1520 LINE SMOOTH",
"541 1520 OFFCURVE",
"537 1513 OFFCURVE",
"537 1501 CURVE SMOOTH",
"537 315 LINE SMOOTH",
"537 125 OFFCURVE",
"492 70 OFFCURVE",
"358 70 CURVE SMOOTH",
"258 70 OFFCURVE",
"213 100 OFFCURVE",
"170 121 CURVE SMOOTH",
"162 125 OFFCURVE",
"156 123 OFFCURVE",
"154 113 CURVE SMOOTH",
"135 49 LINE SMOOTH",
"133 41 OFFCURVE",
"137 35 OFFCURVE",
"143 31 CURVE SMOOTH",
"158 20 OFFCURVE",
"250 -20 OFFCURVE",
"363 -20 CURVE SMOOTH",
"561 -20 OFFCURVE",
"631 100 OFFCURVE",
"631 295 CURVE SMOOTH"
);
}
);
};
layerId = "91AB5BCA-6A50-42DA-B2F7-8181BF189245";
paths = (
{
closed = 1;
nodes = (
"426 -20 OFFCURVE",
"496 98 OFFCURVE",
"522 287 CURVE SMOOTH",
"690 1481 LINE",
"617 1481 LINE",
"453 315 LINE SMOOTH",
"428 129 OFFCURVE",
"377 63 OFFCURVE",
"258 63 CURVE SMOOTH",
"162 63 OFFCURVE",
"121 106 OFFCURVE",
"82 127 CURVE",
"51 39 LINE",
"62 27 OFFCURVE",
"143 -20 OFFCURVE",
"250 -20 CURVE SMOOTH"
);
}
);
width = 736;
}
);
leftKerningGroup = J;
leftMetricsKey = X;
rightKerningGroup = U;
rightMetricsKey = U;
unicode = 004A;
},
{
glyphname = K;
lastChange = "2019-05-31 16:36:28 +0000";
layers = (
{
anchors = (
{
name = bottom;
position = "{662, 0}";
},
{
name = top;
position = "{912, 1481}";
}
);
background = {
anchors = (
{
name = bottom;
position = "{767, 0}";
},
{
name = top;
position = "{767, 1520}";
}
);
paths = (
{
closed = 1;
nodes = (
"1086 983 LINE SMOOTH",
"1074 1012 OFFCURVE",
"1076 1026 OFFCURVE",
"1092 1049 CURVE SMOOTH",
"1428 1460 LINE SMOOTH",
"1455 1491 OFFCURVE",
"1430 1520 OFFCURVE",
"1385 1520 CURVE SMOOTH",
"1074 1520 LINE SMOOTH",
"1025 1520 OFFCURVE",
"1008 1507 OFFCURVE",
"986 1477 CURVE SMOOTH",
"609 948 LINE",
"593 928 OFFCURVE",
"578 926 OFFCURVE",
"578 958 CURVE SMOOTH",
"578 1477 LINE SMOOTH",
"578 1503 OFFCURVE",
"566 1520 OFFCURVE",
"542 1520 CURVE SMOOTH",
"152 1520 LINE SMOOTH",
"130 1520 OFFCURVE",
"113 1503 OFFCURVE",
"113 1473 CURVE SMOOTH",
"113 51 LINE SMOOTH",
"113 16 OFFCURVE",
"126 0 OFFCURVE",
"169 0 CURVE SMOOTH",
"511 0 LINE SMOOTH",
"558 0 OFFCURVE",
"578 16 OFFCURVE",
"578 59 CURVE SMOOTH",
"578 369 LINE SMOOTH",
"578 389 OFFCURVE",
"580 401 OFFCURVE",
"591 414 CURVE SMOOTH",
"736 600 LINE SMOOTH",
"757 627 OFFCURVE",
"769 631 OFFCURVE",
"781 610 CURVE SMOOTH",
"1031 41 LINE SMOOTH",
"1045 10 OFFCURVE",
"1070 0 OFFCURVE",
"1105 0 CURVE SMOOTH",
"1504 0 LINE SMOOTH",
"1545 0 OFFCURVE",
"1549 31 OFFCURVE",
"1533 63 CURVE SMOOTH"
);
}
);
};
guideLines = (
{
angle = 54.4985;
position = "{687, 670}";
},
{
angle = -62.8805;
position = "{374, 283}";
}
);
hints = (
{
horizontal = 1;
origin = "{0, 11}";
target = up;
type = BottomGhost;
},
{
horizontal = 1;
origin = "{0, 10}";
target = down;
type = TopGhost;
},
{
place = "{63, 346}";
type = Stem;
}
);
layerId = "258ED206-D907-4350-8EBA-CBDDA1C16BF7";
paths = (
{
closed = 1;
nodes = (
"478 0 LINE",
"537 387 LINE",
"757 625 LINE",
"990 0 LINE",
"1414 0 LINE",
"1082 915 LINE",
"1574 1481 LINE",
"1129 1481 LINE",
"613 883 LINE",
"703 1481 LINE",
"292 1481 LINE",
"66 0 LINE"
);
}
);
width = 1526;
},
{
anchors = (
{
name = bottom;
position = "{568, 0}";
},
{
name = top;
position = "{810, 1481}";
}
);
background = {
anchors = (
{
name = bottom;
position = "{691, 0}";
},
{
name = top;
position = "{753, 1520}";
}
);
paths = (
{
closed = 1;
nodes = (
"691 911 LINE SMOOTH",
"687 920 OFFCURVE",
"687 920 OFFCURVE",
"691 924 CURVE SMOOTH",
"1222 1503 LINE SMOOTH",
"1230 1511 OFFCURVE",
"1228 1520 OFFCURVE",
"1215 1520 CURVE SMOOTH",
"1138 1520 LINE SMOOTH",
"1125 1520 OFFCURVE",
"1121 1518 OFFCURVE",
"1115 1511 CURVE SMOOTH",
"331 659 LINE SMOOTH",
"321 649 OFFCURVE",
"316 649 OFFCURVE",
"316 662 CURVE SMOOTH",
"316 1503 LINE SMOOTH",
"316 1516 OFFCURVE",
"310 1520 OFFCURVE",
"300 1520 CURVE SMOOTH",
"239 1520 LINE SMOOTH",
"226 1520 OFFCURVE",
"222 1513 OFFCURVE",
"222 1503 CURVE SMOOTH",
"222 18 LINE SMOOTH",
"222 4 OFFCURVE",
"228 0 OFFCURVE",
"243 0 CURVE SMOOTH",
"296 0 LINE SMOOTH",
"310 0 OFFCURVE",
"316 6 OFFCURVE",
"316 18 CURVE SMOOTH",
"316 504 LINE SMOOTH",
"316 520 OFFCURVE",
"321 526 OFFCURVE",
"333 539 CURVE SMOOTH",
"603 838 LINE SMOOTH",
"613 848 OFFCURVE",
"620 850 OFFCURVE",
"628 838 CURVE SMOOTH",
"1156 10 LINE SMOOTH",
"1160 4 OFFCURVE",
"1168 0 OFFCURVE",
"1179 0 CURVE SMOOTH",
"1258 0 LINE SMOOTH",
"1267 0 OFFCURVE",
"1271 6 OFFCURVE",
"1265 14 CURVE SMOOTH"
);
}
);
};
layerId = "91AB5BCA-6A50-42DA-B2F7-8181BF189245";
rightMetricsKey = "=X/1.25";
paths = (
{
closed = 1;
nodes = (
"228 0 LINE",
"300 508 LINE",
"615 834 LINE",
"988 0 LINE",
"1084 0 LINE",
"687 897 LINE",
"1261 1481 LINE",
"1160 1481 LINE",
"316 627 LINE",
"435 1481 LINE",
"359 1481 LINE",
"151 0 LINE"
);
}
);
width = 1254;
}
);
leftKerningGroup = N;
leftMetricsKey = H;
rightKerningGroup = K;
rightMetricsKey = "=X*1.25";
unicode = 004B;
},
{
glyphname = L;
lastChange = "2019-06-06 17:45:57 +0000";
layers = (
{
anchors = (
{
name = bottom;
position = "{552, 0}";
},
{
name = caron;
position = "{924, 1481}";
},
{
name = top;
position = "{480, 1481}";
}
);
background = {
anchors = (
{
name = bottom;
position = "{652, 0}";
},
{
name = top;
position = "{353, 1520}";
},
{
name = topright;
position = "{1054, 1520}";
}
);
paths = (
{
closed = 1;
nodes = (
"116 51 LINE SMOOTH",
"116 16 OFFCURVE",
"128 0 OFFCURVE",
"171 0 CURVE SMOOTH",
"1217 0 LINE SMOOTH",
"1252 0 OFFCURVE",
"1269 20 OFFCURVE",
"1269 45 CURVE SMOOTH",
"1269 297 LINE SMOOTH",
"1269 326 OFFCURVE",
"1250 336 OFFCURVE",
"1221 336 CURVE SMOOTH",
"605 336 LINE SMOOTH",
"587 336 OFFCURVE",
"580 342 OFFCURVE",
"580 365 CURVE SMOOTH",
"580 1477 LINE SMOOTH",
"580 1503 OFFCURVE",
"568 1520 OFFCURVE",
"544 1520 CURVE SMOOTH",
"154 1520 LINE SMOOTH",
"132 1520 OFFCURVE",
"116 1503 OFFCURVE",
"116 1473 CURVE SMOOTH"
);
}
);
};
layerId = "258ED206-D907-4350-8EBA-CBDDA1C16BF7";
rightMetricsKey = "=H/2.5";
paths = (
{
closed = 1;
nodes = (
"1051 0 LINE",
"1101 328 LINE",
"513 328 LINE",
"687 1481 LINE",
"292 1481 LINE",
"66 0 LINE"
);
}
);
width = 1185;
},
{
anchors = (
{
name = bottom;
position = "{527, 0}";
},
{
name = caron;
position = "{877, 1481}";
},
{
name = top;
position = "{400, 1481}";
}
);
background = {
anchors = (
{
name = bottom;
position = "{648, 0}";
},
{
name = top;
position = "{275, 1520}";
},
{
name = topright;
position = "{861, 1520}";
}
);
paths = (
{
closed = 1;
nodes = (
"228 20 LINE SMOOTH",
"228 6 OFFCURVE",
"232 0 OFFCURVE",
"247 0 CURVE",
"1086 0 LINE",
"1097 0 OFFCURVE",
"1101 4 OFFCURVE",
"1101 14 CURVE SMOOTH",
"1101 68 LINE SMOOTH",
"1101 80 OFFCURVE",
"1097 82 OFFCURVE",
"1084 82 CURVE SMOOTH",
"341 82 LINE SMOOTH",
"327 82 OFFCURVE",
"323 84 OFFCURVE",
"323 100 CURVE SMOOTH",
"323 1499 LINE SMOOTH",
"323 1516 OFFCURVE",
"318 1520 OFFCURVE",
"304 1520 CURVE SMOOTH",
"247 1520 LINE SMOOTH",
"232 1520 OFFCURVE",
"228 1516 OFFCURVE",
"228 1499 CURVE SMOOTH"
);
}
);
};
layerId = "91AB5BCA-6A50-42DA-B2F7-8181BF189245";
paths = (
{
closed = 1;
nodes = (
"927 0 LINE",
"939 88 LINE",
"243 88 LINE",
"439 1481 LINE",
"359 1481 LINE",
"151 0 LINE"
);
}
);
width = 1121;
}
);
leftKerningGroup = N;
leftMetricsKey = H;
rightKerningGroup = L;
rightMetricsKey = X;
unicode = 004C;
},
{
glyphname = Lslash;
lastChange = "2019-05-31 16:36:05 +0000";
layers = (
{
background = {
components = (
{
name = L;
transform = "{1, 0, 0, 1, 44, 0}";
}
);
paths = (
{
closed = 1;
nodes = (
"944 1098 OFFCURVE",
"930 1112 OFFCURVE",
"895 1102 CURVE SMOOTH",
"88 887 LINE SMOOTH",
"63 881 OFFCURVE",
"49 870 OFFCURVE",
"49 840 CURVE SMOOTH",
"49 600 LINE SMOOTH",
"49 567 OFFCURVE",
"61 553 OFFCURVE",
"100 565 CURVE SMOOTH",
"903 793 LINE SMOOTH",
"932 801 OFFCURVE",
"944 817 OFFCURVE",
"944 840 CURVE SMOOTH",
"944 1067 LINE SMOOTH"
);
}
);
};
components = (
{
name = L;
transform = "{1, 0, 0, 1, 90, 0}";
}
);
layerId = "258ED206-D907-4350-8EBA-CBDDA1C16BF7";
paths = (
{
closed = 1;
nodes = (
"944 805 LINE",
"944 1114 LINE",
"49 877 LINE",
"49 551 LINE"
);
}
);
width = 1275;
},
{
background = {
components = (
{
name = L;
transform = "{1, 0, 0, 1, 8, 0}";
}
);
paths = (
{
closed = 1;
nodes = (
"677 870 OFFCURVE",
"673 874 OFFCURVE",
"663 872 CURVE SMOOTH",
"99 729 LINE SMOOTH",
"93 727 OFFCURVE",
"89 721 OFFCURVE",
"89 711 CURVE SMOOTH",
"89 664 LINE SMOOTH",
"89 653 OFFCURVE",
"93 651 OFFCURVE",
"103 653 CURVE SMOOTH",
"665 799 LINE SMOOTH",
"673 801 OFFCURVE",
"677 807 OFFCURVE",
"677 815 CURVE SMOOTH",
"677 862 LINE SMOOTH"
);
}
);
};
components = (
{
name = L;
transform = "{1, 0, 0, 1, 18, 0}";
}
);
layerId = "91AB5BCA-6A50-42DA-B2F7-8181BF189245";
paths = (
{
closed = 1;
nodes = (
"677 803 LINE",
"677 877 LINE",
"89 727 LINE",
"89 649 LINE"
);
}
);
width = 1139;
}
);
leftKerningGroup = N;
rightKerningGroup = L;
rightMetricsKey = L;
unicode = 0141;
},
{
glyphname = M;
lastChange = "2019-05-31 16:36:28 +0000";
layers = (
{
background = {
paths = (
{
closed = 1;
nodes = (
"470 0 LINE SMOOTH",
"507 0 OFFCURVE",
"515 8 OFFCURVE",
"515 45 CURVE SMOOTH",
"515 950 LINE SMOOTH",
"515 977 OFFCURVE",
"529 985 OFFCURVE",
"539 952 CURVE SMOOTH",
"834 37 LINE SMOOTH",
"843 12 OFFCURVE",
"859 0 OFFCURVE",
"884 0 CURVE SMOOTH",
"1099 0 LINE SMOOTH",
"1121 0 OFFCURVE",
"1140 14 OFFCURVE",
"1148 37 CURVE SMOOTH",
"1443 969 LINE SMOOTH",
"1451 993 OFFCURVE",
"1467 993 OFFCURVE",
"1467 971 CURVE SMOOTH",
"1467 51 LINE SMOOTH",
"1467 16 OFFCURVE",
"1479 0 OFFCURVE",
"1520 0 CURVE SMOOTH",
"1867 0 LINE SMOOTH",
"1914 0 OFFCURVE",
"1932 16 OFFCURVE",
"1932 59 CURVE SMOOTH",
"1932 1477 LINE SMOOTH",
"1932 1503 OFFCURVE",
"1920 1520 OFFCURVE",
"1895 1520 CURVE SMOOTH",
"1303 1520 LINE SMOOTH",
"1275 1520 OFFCURVE",
"1258 1497 OFFCURVE",
"1248 1460 CURVE SMOOTH",
"1058 831 LINE SMOOTH",
"1051 813 OFFCURVE",
"1039 809 OFFCURVE",
"1031 831 CURVE SMOOTH",
"818 1483 LINE SMOOTH",
"808 1511 OFFCURVE",
"795 1520 OFFCURVE",
"761 1520 CURVE SMOOTH",
"187 1520 LINE SMOOTH",
"156 1520 OFFCURVE",
"144 1505 OFFCURVE",
"144 1473 CURVE SMOOTH",
"144 57 LINE SMOOTH",
"144 23 OFFCURVE",
"165 0 OFFCURVE",
"197 0 CURVE SMOOTH"
);
}
);
};
guideLines = (
{
angle = -105;
position = "{479, 261}";
},
{
angle = 105;
position = "{479, 261}";
}
);
layerId = "258ED206-D907-4350-8EBA-CBDDA1C16BF7";
paths = (
{
closed = 1;
nodes = (
"462 0 LINE",
"625 1073 LINE",
"750 0 LINE",
"1035 0 LINE",
"1484 1073 LINE",
"1322 0 LINE",
"1719 0 LINE",
"1942 1481 LINE",
"1357 1481 LINE",
"980 578 LINE",
"879 1481 LINE",
"290 1481 LINE",
"66 0 LINE"
);
}
);
width = 1948;
},
{
background = {
guideLines = (
{
position = "{35, 566}";
showMeasurement = 1;
}
);
paths = (
{
closed = 1;
nodes = (
"273 0 LINE SMOOTH",
"288 0 OFFCURVE",
"294 6 OFFCURVE",
"294 18 CURVE SMOOTH",
"294 1274 LINE SMOOTH",
"294 1282 OFFCURVE",
"298 1280 OFFCURVE",
"300 1274 CURVE SMOOTH",
"800 20 LINE SMOOTH",
"806 6 OFFCURVE",
"816 0 OFFCURVE",
"839 0 CURVE SMOOTH",
"894 0 LINE SMOOTH",
"912 0 OFFCURVE",
"921 6 OFFCURVE",
"927 23 CURVE SMOOTH",
"1437 1284 LINE SMOOTH",
"1439 1290 OFFCURVE",
"1443 1294 OFFCURVE",
"1443 1284 CURVE SMOOTH",
"1443 18 LINE SMOOTH",
"1443 4 OFFCURVE",
"1449 0 OFFCURVE",
"1463 0 CURVE SMOOTH",
"1519 0 LINE SMOOTH",
"1531 0 OFFCURVE",
"1537 6 OFFCURVE",
"1537 20 CURVE SMOOTH",
"1537 1499 LINE SMOOTH",
"1537 1516 OFFCURVE",
"1533 1520 OFFCURVE",
"1519 1520 CURVE SMOOTH",
"1459 1520 LINE SMOOTH",
"1447 1520 OFFCURVE",
"1441 1516 OFFCURVE",
"1437 1505 CURVE SMOOTH",
"882 133 LINE SMOOTH",
"869 104 OFFCURVE",
"859 104 OFFCURVE",
"849 131 CURVE SMOOTH",
"302 1503 LINE",
"298 1516 OFFCURVE",
"292 1520 OFFCURVE",
"275 1520 CURVE SMOOTH",
"222 1520 LINE SMOOTH",
"208 1520 OFFCURVE",
"204 1516 OFFCURVE",
"204 1499 CURVE SMOOTH",
"204 20 LINE SMOOTH",
"204 6 OFFCURVE",
"208 0 OFFCURVE",
"222 0 CURVE SMOOTH"
);
}
);
};
guideLines = (
{
position = "{106, 525}";
showMeasurement = 1;
},
{
angle = 68.255;
position = "{388, 0}";
}
);
layerId = "91AB5BCA-6A50-42DA-B2F7-8181BF189245";
paths = (
{
closed = 1;
nodes = (
"232 0 LINE",
"409 1245 LINE",
"691 0 LINE",
"800 0 LINE",
"1441 1262 LINE",
"1263 0 LINE",
"1344 0 LINE",
"1551 1481 LINE",
"1471 1481 LINE",
"757 90 LINE",
"443 1481 LINE",
"359 1481 LINE",
"153 0 LINE"
);
}
);
width = 1643;
}
);
leftKerningGroup = N;
leftMetricsKey = "=H";
rightKerningGroup = N;
rightMetricsKey = H;
unicode = 004D;
},
{
glyphname = N;
lastChange = "2019-05-31 16:36:28 +0000";
layers = (
{
anchors = (
{
name = bottom;
position = "{750, 0}";
},
{
name = top;
position = "{976, 1481}";
}
);
background = {
anchors = (
{
name = bottom;
position = "{861, 0}";
},
{
name = top;
position = "{861, 1520}";
}
);
paths = (
{
closed = 1;
nodes = (
"1174 1520 OFFCURVE",
"1160 1503 OFFCURVE",
"1160 1477 CURVE SMOOTH",
"1160 807 LINE SMOOTH",
"1160 774 OFFCURVE",
"1146 774 OFFCURVE",
"1127 799 CURVE SMOOTH",
"636 1483 LINE SMOOTH",
"613 1513 OFFCURVE",
"601 1520 OFFCURVE",
"566 1520 CURVE SMOOTH",
"232 1520 LINE SMOOTH",
"202 1520 OFFCURVE",
"187 1505 OFFCURVE",
"187 1473 CURVE SMOOTH",
"187 41 LINE SMOOTH",
"187 10 OFFCURVE",
"208 0 OFFCURVE",
"238 0 CURVE SMOOTH",
"517 0 LINE SMOOTH",
"554 0 OFFCURVE",
"568 12 OFFCURVE",
"566 45 CURVE SMOOTH",
"566 791 LINE SMOOTH",
"566 805 OFFCURVE",
"576 809 OFFCURVE",
"587 795 CURVE SMOOTH",
"1150 31 LINE SMOOTH",
"1170 4 OFFCURVE",
"1183 0 OFFCURVE",
"1205 0 CURVE SMOOTH",
"1486 0 LINE SMOOTH",
"1512 0 OFFCURVE",
"1533 14 OFFCURVE",
"1533 37 CURVE SMOOTH",
"1533 1485 LINE SMOOTH",
"1533 1507 OFFCURVE",
"1522 1520 OFFCURVE",
"1502 1520 CURVE SMOOTH",
"1205 1520 LINE SMOOTH"
);
}
);
};
guideLines = (
{
angle = 125.0467;
position = "{547, 296}";
}
);
layerId = "258ED206-D907-4350-8EBA-CBDDA1C16BF7";
paths = (
{
closed = 1;
nodes = (
"464 0 LINE",
"597 883 LINE",
"1078 0 LINE",
"1436 0 LINE",
"1662 1481 LINE",
"1264 1481 LINE",
"1140 655 LINE",
"691 1481 LINE",
"292 1481 LINE",
"66 0 LINE"
);
}
);
width = 1668;
},
{
anchors = (
{
name = bottom;
position = "{583, 0}";
},
{
name = top;
position = "{837, 1481}";
}
);
background = {
anchors = (
{
name = bottom;
position = "{716, 0}";
},
{
name = top;
position = "{787, 1520}";
}
);
guideLines = (
{
position = "{43, 576}";
showMeasurement = 1;
}
);
paths = (
{
closed = 1;
nodes = (
"1207 1520 OFFCURVE",
"1203 1513 OFFCURVE",
"1203 1501 CURVE SMOOTH",
"1203 219 LINE SMOOTH",
"1203 207 OFFCURVE",
"1189 195 OFFCURVE",
"1175 215 CURVE SMOOTH",
"300 1505 LINE SMOOTH",
"292 1518 OFFCURVE",
"286 1520 OFFCURVE",
"269 1520 CURVE SMOOTH",
"232 1520 LINE",
"218 1520 OFFCURVE",
"214 1516 OFFCURVE",
"214 1499 CURVE SMOOTH",
"214 20 LINE SMOOTH",
"214 6 OFFCURVE",
"218 0 OFFCURVE",
"232 0 CURVE SMOOTH",
"284 0 LINE SMOOTH",
"298 0 OFFCURVE",
"304 6 OFFCURVE",
"304 18 CURVE SMOOTH",
"304 1305 LINE SMOOTH",
"304 1321 OFFCURVE",
"314 1325 OFFCURVE",
"329 1305 CURVE SMOOTH",
"1205 12 LINE SMOOTH",
"1215 -2 OFFCURVE",
"1228 0 OFFCURVE",
"1244 0 CURVE SMOOTH",
"1275 0 LINE SMOOTH",
"1287 0 OFFCURVE",
"1293 6 OFFCURVE",
"1293 20 CURVE SMOOTH",
"1293 1499 LINE SMOOTH",
"1293 1516 OFFCURVE",
"1289 1520 OFFCURVE",
"1275 1520 CURVE SMOOTH",
"1220 1520 LINE SMOOTH"
);
}
);
};
guideLines = (
{
position = "{114, 534}";
showMeasurement = 1;
},
{
angle = 123.9688;
position = "{116, 610}";
}
);
layerId = "91AB5BCA-6A50-42DA-B2F7-8181BF189245";
paths = (
{
closed = 1;
nodes = (
"224 0 LINE",
"411 1317 LINE",
"1041 0 LINE",
"1105 0 LINE",
"1314 1481 LINE",
"1240 1481 LINE",
"1054 160 LINE",
"419 1481 LINE",
"359 1481 LINE",
"151 0 LINE"
);
}
);
width = 1405;
}
);
leftKerningGroup = N;
leftMetricsKey = H;
rightKerningGroup = N;
rightMetricsKey = H;
unicode = 004E;
},
{
glyphname = Eng;
lastChange = "2019-05-31 16:36:28 +0000";
layers = (
{
background = {
paths = (
{
closed = 1;
nodes = (
"1141 1520 LINE SMOOTH",
"1110 1520 OFFCURVE",
"1096 1503 OFFCURVE",
"1096 1477 CURVE SMOOTH",
"1096 889 LINE SMOOTH",
"1096 856 OFFCURVE",
"1081 856 OFFCURVE",
"1063 881 CURVE",
"571 1483 LINE SMOOTH",
"547 1513 OFFCURVE",
"537 1520 OFFCURVE",
"502 1520 CURVE SMOOTH",
"168 1520 LINE SMOOTH",
"137 1520 OFFCURVE",
"123 1505 OFFCURVE",
"123 1473 CURVE SMOOTH",
"123 41 LINE SMOOTH",
"123 10 OFFCURVE",
"143 0 OFFCURVE",
"174 0 CURVE SMOOTH",
"453 0 LINE SMOOTH",
"489 0 OFFCURVE",
"504 12 OFFCURVE",
"502 45 CURVE",
"502 791 LINE",
"502 805 OFFCURVE",
"510 809 OFFCURVE",
"522 795 CURVE SMOOTH",
"1014 199 LINE",
"1014 180 LINE SMOOTH",
"1008 63 OFFCURVE",
"946 20 OFFCURVE",
"854 20 CURVE SMOOTH",
"809 20 OFFCURVE",
"762 31 OFFCURVE",
"729 35 CURVE SMOOTH",
"696 39 OFFCURVE",
"682 18 OFFCURVE",
"680 -12 CURVE SMOOTH",
"662 -246 LINE SMOOTH",
"657 -303 OFFCURVE",
"678 -326 OFFCURVE",
"725 -334 CURVE SMOOTH",
"817 -350 OFFCURVE",
"907 -358 OFFCURVE",
"991 -358 CURVE SMOOTH",
"1303 -358 OFFCURVE",
"1468 -233 OFFCURVE",
"1468 96 CURVE SMOOTH",
"1468 1485 LINE SMOOTH",
"1468 1507 OFFCURVE",
"1458 1520 OFFCURVE",
"1438 1520 CURVE SMOOTH"
);
}
);
};
components = (
{
name = N;
},
{
alignment = -1;
name = "_j-hook";
transform = "{1, 0, 0, 1, 684, -471}";
}
);
layerId = "258ED206-D907-4350-8EBA-CBDDA1C16BF7";
width = 1668;
},
{
background = {
paths = (
{
closed = 1;
nodes = (
"1235 1520 LINE SMOOTH",
"1223 1520 OFFCURVE",
"1219 1513 OFFCURVE",
"1219 1501 CURVE SMOOTH",
"1219 219 LINE SMOOTH",
"1219 207 OFFCURVE",
"1204 193 OFFCURVE",
"1190 213 CURVE SMOOTH",
"317 1505 LINE SMOOTH",
"309 1518 OFFCURVE",
"303 1520 OFFCURVE",
"289 1520 CURVE SMOOTH",
"246 1520 LINE SMOOTH",
"231 1520 OFFCURVE",
"227 1516 OFFCURVE",
"227 1499 CURVE SMOOTH",
"227 20 LINE SMOOTH",
"227 6 OFFCURVE",
"231 0 OFFCURVE",
"246 0 CURVE SMOOTH",
"297 0 LINE SMOOTH",
"311 0 OFFCURVE",
"317 6 OFFCURVE",
"317 18 CURVE SMOOTH",
"317 1311 LINE SMOOTH",
"317 1327 OFFCURVE",
"322 1331 OFFCURVE",
"336 1311 CURVE SMOOTH",
"1212 25 LINE",
"1212 -84 LINE SMOOTH",
"1212 -229 OFFCURVE",
"1149 -276 OFFCURVE",
"1038 -276 CURVE SMOOTH",
"977 -276 OFFCURVE",
"928 -262 OFFCURVE",
"895 -250 CURVE SMOOTH",
"885 -246 OFFCURVE",
"881 -248 OFFCURVE",
"879 -258 CURVE",
"872 -309 LINE",
"872 -317 OFFCURVE",
"874 -324 OFFCURVE",
"881 -328 CURVE SMOOTH",
"895 -338 OFFCURVE",
"963 -358 OFFCURVE",
"1047 -358 CURVE SMOOTH",
"1239 -358 OFFCURVE",
"1307 -254 OFFCURVE",
"1307 -94 CURVE SMOOTH",
"1307 1499 LINE SMOOTH",
"1307 1516 OFFCURVE",
"1303 1520 OFFCURVE",
"1288 1520 CURVE SMOOTH"
);
}
);
};
components = (
{
name = N;
},
{
alignment = -1;
name = "_j-hook";
transform = "{1, 0, 0, 1, 625, -471}";
}
);
layerId = "91AB5BCA-6A50-42DA-B2F7-8181BF189245";
width = 1405;
}
);
leftKerningGroup = N;
leftMetricsKey = N;
rightKerningGroup = N;
rightMetricsKey = N;
unicode = 014A;
},
{
glyphname = O;
lastChange = "2019-05-31 16:36:28 +0000";
layers = (
{
anchors = (
{
name = bottom;
position = "{723, 0}";
},
{
name = horn;
position = "{1389, 1120}";
},
{
name = ogonek;
position = "{908, 20}";
},
{
name = top;
position = "{926, 1481}";
}
);
background = {
anchors = (
{
name = bottom;
position = "{834, 0}";
},
{
name = ogonek;
position = "{1020, 20}";
},
{
name = top;
position = "{830, 1520}";
}
);
paths = (
{
closed = 1;
nodes = (
"1278 -20 OFFCURVE",
"1565 285 OFFCURVE",
"1565 756 CURVE SMOOTH",
"1565 1231 OFFCURVE",
"1272 1540 OFFCURVE",
"832 1540 CURVE SMOOTH",
"387 1540 OFFCURVE",
"95 1231 OFFCURVE",
"95 756 CURVE SMOOTH",
"95 283 OFFCURVE",
"379 -20 OFFCURVE",
"832 -20 CURVE SMOOTH"
);
},
{
closed = 1;
nodes = (
"650 299 OFFCURVE",
"582 422 OFFCURVE",
"582 750 CURVE SMOOTH",
"582 1087 OFFCURVE",
"654 1225 OFFCURVE",
"832 1225 CURVE SMOOTH",
"1006 1225 OFFCURVE",
"1078 1087 OFFCURVE",
"1078 750 CURVE SMOOTH",
"1078 422 OFFCURVE",
"1010 299 OFFCURVE",
"832 299 CURVE SMOOTH"
);
}
);
};
guideLines = (
{
angle = 90;
position = "{-498, 389}";
}
);
layerId = "258ED206-D907-4350-8EBA-CBDDA1C16BF7";
paths = (
{
closed = 1;
nodes = (
"1151 -20 OFFCURVE",
"1475 279 OFFCURVE",
"1545 737 CURVE SMOOTH",
"1614 1200 OFFCURVE",
"1377 1501 OFFCURVE",
"949 1501 CURVE SMOOTH",
"521 1501 OFFCURVE",
"189 1200 OFFCURVE",
"119 737 CURVE SMOOTH",
"49 276 OFFCURVE",
"281 -20 OFFCURVE",
"719 -20 CURVE SMOOTH"
);
},
{
closed = 1;
nodes = (
"604 299 OFFCURVE",
"502 412 OFFCURVE",
"549 731 CURVE SMOOTH",
"600 1061 OFFCURVE",
"738 1182 OFFCURVE",
"901 1182 CURVE SMOOTH",
"1063 1182 OFFCURVE",
"1164 1061 OFFCURVE",
"1112 731 CURVE SMOOTH",
"1065 412 OFFCURVE",
"930 299 OFFCURVE",
"766 299 CURVE SMOOTH"
);
}
);
width = 1606;
},
{
anchors = (
{
name = bottom;
position = "{613, 0}";
},
{
name = horn;
position = "{1142, 1241}";
},
{
name = ogonek;
position = "{745, 18}";
},
{
name = top;
position = "{822, 1481}";
}
);
background = {
anchors = (
{
name = bottom;
position = "{738, 0}";
},
{
name = ogonek;
position = "{882, 18}";
},
{
name = top;
position = "{738, 1520}";
}
);
paths = (
{
closed = 1;
nodes = (
"1119 -20 OFFCURVE",
"1351 250 OFFCURVE",
"1351 756 CURVE SMOOTH",
"1351 1266 OFFCURVE",
"1119 1540 OFFCURVE",
"736 1540 CURVE SMOOTH",
"351 1540 OFFCURVE",
"118 1264 OFFCURVE",
"118 752 CURVE SMOOTH",
"118 248 OFFCURVE",
"347 -20 OFFCURVE",
"734 -20 CURVE SMOOTH"
);
},
{
closed = 1;
nodes = (
"398 66 OFFCURVE",
"216 293 OFFCURVE",
"216 756 CURVE SMOOTH",
"216 1223 OFFCURVE",
"398 1454 OFFCURVE",
"736 1454 CURVE SMOOTH",
"1072 1454 OFFCURVE",
"1252 1225 OFFCURVE",
"1252 756 CURVE SMOOTH",
"1252 291 OFFCURVE",
"1076 66 OFFCURVE",
"738 66 CURVE SMOOTH"
);
}
);
};
guideLines = (
{
angle = 90;
position = "{-457, 400}";
},
{
angle = 90;
position = "{386, 593}";
}
);
layerId = "91AB5BCA-6A50-42DA-B2F7-8181BF189245";
paths = (
{
closed = 1;
nodes = (
"951 -20 OFFCURVE",
"1195 244 OFFCURVE",
"1265 737 CURVE SMOOTH",
"1334 1235 OFFCURVE",
"1166 1501 OFFCURVE",
"822 1501 CURVE SMOOTH",
"476 1501 OFFCURVE",
"228 1233 OFFCURVE",
"159 733 CURVE SMOOTH",
"89 242 OFFCURVE",
"259 -20 OFFCURVE",
"607 -20 CURVE SMOOTH"
);
},
{
closed = 1;
nodes = (
"316 63 OFFCURVE",
"179 285 OFFCURVE",
"243 737 CURVE SMOOTH",
"306 1192 OFFCURVE",
"507 1417 OFFCURVE",
"810 1417 CURVE SMOOTH",
"1113 1417 OFFCURVE",
"1246 1194 OFFCURVE",
"1183 737 CURVE SMOOTH",
"1119 283 OFFCURVE",
"925 63 OFFCURVE",
"622 63 CURVE SMOOTH"
);
}
);
width = 1366;
}
);
leftKerningGroup = O;
rightKerningGroup = O;
unicode = 004F;
},
{
glyphname = Oslash;
lastChange = "2019-05-31 16:36:28 +0000";
layers = (
{
anchors = (
{
name = top;
position = "{951, 1481}";
}
);
background = {
anchors = (
{
name = top;
position = "{839, 1481}";
}
);
paths = (
{
closed = 1;
nodes = (
"1496 1481 LINE SMOOTH",
"1480 1497 OFFCURVE",
"1455 1493 OFFCURVE",
"1435 1473 CURVE SMOOTH",
"1304 1346 LINE",
"1185 1446 OFFCURVE",
"1027 1501 OFFCURVE",
"841 1501 CURVE SMOOTH",
"407 1501 OFFCURVE",
"122 1200 OFFCURVE",
"122 737 CURVE SMOOTH",
"122 565 OFFCURVE",
"161 418 OFFCURVE",
"230 299 CURVE",
"95 168 LINE SMOOTH",
"73 143 OFFCURVE",
"75 123 OFFCURVE",
"103 94 CURVE SMOOTH",
"181 14 LINE SMOOTH",
"214 -18 OFFCURVE",
"239 -16 OFFCURVE",
"267 14 CURVE SMOOTH",
"382 125 LINE",
"501 33 OFFCURVE",
"656 -20 OFFCURVE",
"841 -20 CURVE SMOOTH",
"1277 -20 OFFCURVE",
"1555 279 OFFCURVE",
"1555 737 CURVE SMOOTH",
"1555 905 OFFCURVE",
"1519 1051 OFFCURVE",
"1449 1167 CURVE",
"1600 1317 LINE",
"1621 1333 OFFCURVE",
"1619 1354 OFFCURVE",
"1603 1370 CURVE SMOOTH"
);
},
{
closed = 1;
nodes = (
"597 1061 OFFCURVE",
"667 1194 OFFCURVE",
"841 1194 CURVE SMOOTH",
"929 1194 OFFCURVE",
"990 1159 OFFCURVE",
"1029 1077 CURVE",
"599 657 LINE",
"597 682 OFFCURVE",
"597 707 OFFCURVE",
"597 731 CURVE"
);
},
{
closed = 1;
nodes = (
"1080 412 OFFCURVE",
"1015 291 OFFCURVE",
"841 291 CURVE SMOOTH",
"753 291 OFFCURVE",
"691 322 OFFCURVE",
"652 389 CURVE",
"1078 807 LINE",
"1080 780 OFFCURVE",
"1080 758 OFFCURVE",
"1080 731 CURVE SMOOTH"
);
}
);
};
layerId = "258ED206-D907-4350-8EBA-CBDDA1C16BF7";
paths = (
{
closed = 1;
nodes = (
"292 125 LINE",
"396 33 OFFCURVE",
"542 -20 OFFCURVE",
"726 -20 CURVE SMOOTH",
"1158 -20 OFFCURVE",
"1482 279 OFFCURVE",
"1551 737 CURVE SMOOTH",
"1576 905 OFFCURVE",
"1562 1051 OFFCURVE",
"1510 1167 CURVE",
"1713 1343 LINE",
"1584 1507 LINE",
"1392 1346 LINE",
"1289 1446 OFFCURVE",
"1142 1501 OFFCURVE",
"955 1501 CURVE SMOOTH",
"525 1501 OFFCURVE",
"196 1200 OFFCURVE",
"126 737 CURVE SMOOTH",
"99 565 OFFCURVE",
"116 418 OFFCURVE",
"167 299 CURVE",
"-24 137 LINE",
"110 -29 LINE"
);
},
{
closed = 1;
nodes = (
"685 291 OFFCURVE",
"630 322 OFFCURVE",
"601 389 CURVE",
"1088 809 LINE",
"1070 686 OFFCURVE",
"1050 590 OFFCURVE",
"1023 514 CURVE SMOOTH",
"968 356 OFFCURVE",
"888 291 OFFCURVE",
"773 291 CURVE SMOOTH"
);
},
{
closed = 1;
nodes = (
"601 758 OFFCURVE",
"619 844 OFFCURVE",
"642 915 CURVE SMOOTH",
"699 1110 OFFCURVE",
"783 1194 OFFCURVE",
"910 1194 CURVE SMOOTH",
"996 1194 OFFCURVE",
"1054 1159 OFFCURVE",
"1078 1077 CURVE",
"587 655 LINE"
);
}
);
width = 1640;
},
{
anchors = (
{
name = top;
position = "{824, 1481}";
}
);
background = {
anchors = (
{
name = top;
position = "{720, 1481}";
}
);
paths = (
{
closed = 1;
nodes = (
"1326 1495 LINE",
"1318 1503 OFFCURVE",
"1310 1499 OFFCURVE",
"1302 1489 CURVE",
"1152 1317 LINE",
"1048 1438 OFFCURVE",
"902 1501 OFFCURVE",
"720 1501 CURVE SMOOTH",
"345 1501 OFFCURVE",
"118 1233 OFFCURVE",
"118 733 CURVE SMOOTH",
"118 530 OFFCURVE",
"155 367 OFFCURVE",
"226 246 CURVE",
"58 51 LINE",
"50 41 OFFCURVE",
"52 37 OFFCURVE",
"67 23 CURVE SMOOTH",
"101 -10 LINE",
"118 -23 OFFCURVE",
"128 -23 OFFCURVE",
"138 -6 CURVE",
"286 162 LINE",
"386 41 OFFCURVE",
"534 -20 OFFCURVE",
"718 -20 CURVE SMOOTH",
"1093 -20 OFFCURVE",
"1320 244 OFFCURVE",
"1320 737 CURVE SMOOTH",
"1320 942 OFFCURVE",
"1281 1108 OFFCURVE",
"1209 1233 CURVE",
"1379 1430 LINE",
"1385 1438 OFFCURVE",
"1383 1446 OFFCURVE",
"1377 1452 CURVE"
);
},
{
closed = 1;
nodes = (
"218 1192 OFFCURVE",
"390 1415 OFFCURVE",
"720 1415 CURVE SMOOTH",
"884 1415 OFFCURVE",
"1007 1360 OFFCURVE",
"1091 1247 CURVE",
"292 322 LINE",
"243 428 OFFCURVE",
"218 565 OFFCURVE",
"218 737 CURVE SMOOTH"
);
},
{
closed = 1;
nodes = (
"1218 283 OFFCURVE",
"1052 66 OFFCURVE",
"722 66 CURVE SMOOTH",
"556 66 OFFCURVE",
"431 121 OFFCURVE",
"345 233 CURVE",
"1144 1159 LINE",
"1193 1051 OFFCURVE",
"1218 911 OFFCURVE",
"1218 737 CURVE SMOOTH"
);
}
);
};
layerId = "91AB5BCA-6A50-42DA-B2F7-8181BF189245";
paths = (
{
closed = 1;
nodes = (
"239 162 LINE",
"314 41 OFFCURVE",
"441 -20 OFFCURVE",
"611 -20 CURVE SMOOTH",
"955 -20 OFFCURVE",
"1203 244 OFFCURVE",
"1271 737 CURVE SMOOTH",
"1299 942 OFFCURVE",
"1287 1108 OFFCURVE",
"1240 1233 CURVE",
"1435 1442 LINE",
"1375 1505 LINE",
"1199 1317 LINE",
"1119 1438 OFFCURVE",
"994 1501 OFFCURVE",
"826 1501 CURVE SMOOTH",
"482 1501 OFFCURVE",
"234 1233 OFFCURVE",
"165 733 CURVE SMOOTH",
"136 530 OFFCURVE",
"146 367 OFFCURVE",
"196 246 CURVE",
"3 39 LINE",
"60 -27 LINE"
);
},
{
closed = 1;
nodes = (
"474 66 OFFCURVE",
"368 121 OFFCURVE",
"304 233 CURVE",
"1168 1159 LINE",
"1199 1051 OFFCURVE",
"1201 911 OFFCURVE",
"1177 737 CURVE SMOOTH",
"1113 283 OFFCURVE",
"931 66 OFFCURVE",
"628 66 CURVE SMOOTH"
);
},
{
closed = 1;
nodes = (
"237 428 OFFCURVE",
"234 565 OFFCURVE",
"257 737 CURVE SMOOTH",
"323 1192 OFFCURVE",
"511 1415 OFFCURVE",
"814 1415 CURVE SMOOTH",
"966 1415 OFFCURVE",
"1070 1360 OFFCURVE",
"1132 1247 CURVE",
"267 322 LINE"
);
}
);
width = 1379;
}
);
leftKerningGroup = Oslash;
rightKerningGroup = Oslash;
unicode = 00D8;
},
{
glyphname = OE;
lastChange = "2019-05-31 16:36:05 +0000";
layers = (
{
background = {
paths = (
{
closed = 1;
nodes = (
"1542 336 LINE",
"1542 598 LINE",
"1991 598 LINE",
"1991 928 LINE",
"1542 928 LINE",
"1542 1184 LINE",
"2257 1184 LINE",
"2259 1520 LINE",
"1272 1520 LINE",
"1145 1520 LINE",
"1073 1534 OFFCURVE",
"985 1540 OFFCURVE",
"881 1540 CURVE SMOOTH",
"387 1540 OFFCURVE",
"95 1231 OFFCURVE",
"95 756 CURVE SMOOTH",
"95 283 OFFCURVE",
"379 -20 OFFCURVE",
"856 -20 CURVE SMOOTH",
"971 -20 OFFCURVE",
"1067 -14 OFFCURVE",
"1145 0 CURVE",
"1248 0 LINE",
"1262 0 OFFCURVE",
"1276 0 OFFCURVE",
"1291 0 CURVE",
"2229 0 LINE SMOOTH",
"2263 0 OFFCURVE",
"2278 20 OFFCURVE",
"2278 45 CURVE SMOOTH",
"2278 297 LINE SMOOTH",
"2278 326 OFFCURVE",
"2261 336 OFFCURVE",
"2233 336 CURVE SMOOTH"
);
},
{
closed = 1;
nodes = (
"650 299 OFFCURVE",
"582 422 OFFCURVE",
"582 750 CURVE SMOOTH",
"582 1087 OFFCURVE",
"654 1225 OFFCURVE",
"832 1225 CURVE SMOOTH",
"1006 1225 OFFCURVE",
"1078 1087 OFFCURVE",
"1078 750 CURVE SMOOTH",
"1078 422 OFFCURVE",
"1010 299 OFFCURVE",
"832 299 CURVE SMOOTH"
);
}
);
};
layerId = "258ED206-D907-4350-8EBA-CBDDA1C16BF7";
paths = (
{
closed = 1;
nodes = (
"852 -20 OFFCURVE",
"946 -14 OFFCURVE",
"1024 0 CURVE",
"1123 0 LINE",
"2120 0 LINE",
"2171 328 LINE",
"1458 328 LINE",
"1497 584 LINE",
"1932 584 LINE",
"1981 905 LINE",
"1547 905 LINE",
"1583 1155 LINE",
"2278 1155 LINE",
"2329 1481 LINE",
"1372 1481 LINE",
"1248 1481 LINE",
"1182 1495 OFFCURVE",
"1096 1501 OFFCURVE",
"996 1501 CURVE SMOOTH",
"518 1501 OFFCURVE",
"189 1200 OFFCURVE",
"119 737 CURVE SMOOTH",
"47 276 OFFCURVE",
"281 -20 OFFCURVE",
"742 -20 CURVE SMOOTH"
);
},
{
closed = 1;
nodes = (
"588 291 OFFCURVE",
"541 412 OFFCURVE",
"590 731 CURVE SMOOTH",
"639 1061 OFFCURVE",
"729 1194 OFFCURVE",
"901 1194 CURVE SMOOTH",
"1071 1194 OFFCURVE",
"1121 1061 OFFCURVE",
"1069 731 CURVE SMOOTH",
"1020 412 OFFCURVE",
"938 291 OFFCURVE",
"764 291 CURVE SMOOTH"
);
}
);
width = 2292;
},
{
background = {
paths = (
{
closed = 1;
nodes = (
"1338 82 LINE SMOOTH",
"1324 82 OFFCURVE",
"1320 84 OFFCURVE",
"1320 100 CURVE SMOOTH",
"1320 709 LINE SMOOTH",
"1320 725 OFFCURVE",
"1324 727 OFFCURVE",
"1338 727 CURVE SMOOTH",
"1906 727 LINE SMOOTH",
"1918 727 OFFCURVE",
"1922 729 OFFCURVE",
"1922 741 CURVE SMOOTH",
"1922 795 LINE SMOOTH",
"1922 805 OFFCURVE",
"1918 809 OFFCURVE",
"1908 809 CURVE SMOOTH",
"1338 809 LINE SMOOTH",
"1324 809 OFFCURVE",
"1320 811 OFFCURVE",
"1320 823 CURVE SMOOTH",
"1320 1419 LINE SMOOTH",
"1320 1436 OFFCURVE",
"1324 1438 OFFCURVE",
"1338 1438 CURVE SMOOTH",
"2072 1438 LINE SMOOTH",
"2084 1438 OFFCURVE",
"2088 1440 OFFCURVE",
"2088 1452 CURVE SMOOTH",
"2088 1505 LINE SMOOTH",
"2088 1516 OFFCURVE",
"2084 1520 OFFCURVE",
"2074 1520 CURVE SMOOTH",
"1244 1520 LINE SMOOTH",
"1230 1520 OFFCURVE",
"1226 1516 OFFCURVE",
"1226 1499 CURVE SMOOTH",
"1226 1229 LINE",
"1123 1434 OFFCURVE",
"945 1540 OFFCURVE",
"706 1540 CURVE SMOOTH",
"321 1540 OFFCURVE",
"87 1264 OFFCURVE",
"87 752 CURVE SMOOTH",
"87 248 OFFCURVE",
"316 -20 OFFCURVE",
"704 -20 CURVE SMOOTH",
"943 -20 OFFCURVE",
"1123 84 OFFCURVE",
"1226 287 CURVE",
"1226 20 LINE SMOOTH",
"1226 4 OFFCURVE",
"1230 0 OFFCURVE",
"1244 0 CURVE SMOOTH",
"2104 0 LINE SMOOTH",
"2115 0 OFFCURVE",
"2119 4 OFFCURVE",
"2119 14 CURVE SMOOTH",
"2119 68 LINE SMOOTH",
"2119 80 OFFCURVE",
"2115 82 OFFCURVE",
"2102 82 CURVE SMOOTH"
);
},
{
closed = 1;
nodes = (
"368 66 OFFCURVE",
"185 293 OFFCURVE",
"185 756 CURVE SMOOTH",
"185 1223 OFFCURVE",
"368 1454 OFFCURVE",
"706 1454 CURVE SMOOTH",
"1041 1454 OFFCURVE",
"1216 1225 OFFCURVE",
"1216 756 CURVE SMOOTH",
"1216 291 OFFCURVE",
"1046 66 OFFCURVE",
"708 66 CURVE SMOOTH"
);
}
);
};
layerId = "91AB5BCA-6A50-42DA-B2F7-8181BF189245";
paths = (
{
closed = 1;
nodes = (
"822 -20 OFFCURVE",
"998 82 OFFCURVE",
"1117 281 CURVE",
"1078 0 LINE",
"1879 0 LINE",
"1891 80 LINE",
"1173 80 LINE",
"1263 709 LINE",
"1803 709 LINE",
"1814 788 LINE",
"1273 788 LINE",
"1359 1401 LINE",
"2049 1401 LINE",
"2059 1481 LINE",
"1285 1481 LINE",
"1246 1198 LINE",
"1183 1399 OFFCURVE",
"1037 1501 OFFCURVE",
"822 1501 CURVE SMOOTH",
"478 1501 OFFCURVE",
"230 1233 OFFCURVE",
"159 733 CURVE SMOOTH",
"89 242 OFFCURVE",
"261 -20 OFFCURVE",
"607 -20 CURVE SMOOTH"
);
},
{
closed = 1;
nodes = (
"319 63 OFFCURVE",
"185 285 OFFCURVE",
"249 737 CURVE SMOOTH",
"312 1192 OFFCURVE",
"507 1417 OFFCURVE",
"812 1417 CURVE SMOOTH",
"1113 1417 OFFCURVE",
"1238 1194 OFFCURVE",
"1173 737 CURVE SMOOTH",
"1109 283 OFFCURVE",
"927 63 OFFCURVE",
"624 63 CURVE SMOOTH"
);
}
);
width = 2094;
}
);
leftKerningGroup = O;
leftMetricsKey = O;
rightKerningGroup = E;
rightMetricsKey = E;
unicode = 0152;
},
{
glyphname = P;
lastChange = "2019-05-31 16:36:28 +0000";
layers = (
{
background = {
paths = (
{
closed = 1;
nodes = (
"1453 1356 OFFCURVE",
"1172 1520 OFFCURVE",
"836 1520 CURVE SMOOTH",
"159 1520 LINE SMOOTH",
"134 1520 OFFCURVE",
"120 1503 OFFCURVE",
"120 1473 CURVE SMOOTH",
"120 51 LINE SMOOTH",
"120 16 OFFCURVE",
"132 0 OFFCURVE",
"173 0 CURVE SMOOTH",
"517 0 LINE SMOOTH",
"564 0 OFFCURVE",
"585 16 OFFCURVE",
"585 59 CURVE SMOOTH",
"585 522 LINE SMOOTH",
"585 537 OFFCURVE",
"591 545 OFFCURVE",
"609 545 CURVE SMOOTH",
"890 545 LINE SMOOTH",
"1223 545 OFFCURVE",
"1453 727 OFFCURVE",
"1453 1026 CURVE SMOOTH"
);
},
{
closed = 1;
nodes = (
"978 944 OFFCURVE",
"918 872 OFFCURVE",
"820 872 CURVE SMOOTH",
"619 872 LINE SMOOTH",
"593 872 OFFCURVE",
"585 887 OFFCURVE",
"585 918 CURVE SMOOTH",
"585 1149 LINE SMOOTH",
"585 1180 OFFCURVE",
"597 1192 OFFCURVE",
"632 1192 CURVE SMOOTH",
"808 1192 LINE SMOOTH",
"902 1192 OFFCURVE",
"978 1130 OFFCURVE",
"978 1032 CURVE SMOOTH"
);
}
);
};
layerId = "258ED206-D907-4350-8EBA-CBDDA1C16BF7";
rightMetricsKey = "=X*2";
paths = (
{
closed = 1;
nodes = (
"464 0 LINE",
"542 510 LINE",
"777 510 LINE SMOOTH",
"1101 510 OFFCURVE",
"1330 686 OFFCURVE",
"1375 979 CURVE SMOOTH",
"1424 1300 OFFCURVE",
"1199 1481 OFFCURVE",
"873 1481 CURVE SMOOTH",
"292 1481 LINE",
"66 0 LINE"
);
},
{
closed = 1;
nodes = (
"640 1186 LINE",
"867 1186 LINE SMOOTH",
"955 1186 OFFCURVE",
"1029 1102 OFFCURVE",
"1015 999 CURVE SMOOTH",
"1000 903 OFFCURVE",
"910 807 OFFCURVE",
"810 807 CURVE SMOOTH",
"582 807 LINE"
);
}
);
width = 1372;
},
{
background = {
paths = (
{
closed = 1;
nodes = (
"1242 1401 OFFCURVE",
"1015 1520 OFFCURVE",
"697 1520 CURVE SMOOTH",
"243 1520 LINE SMOOTH",
"228 1520 OFFCURVE",
"224 1516 OFFCURVE",
"224 1499 CURVE SMOOTH",
"224 16 LINE SMOOTH",
"224 6 OFFCURVE",
"230 0 OFFCURVE",
"241 0 CURVE SMOOTH",
"302 0 LINE SMOOTH",
"312 0 OFFCURVE",
"318 6 OFFCURVE",
"318 18 CURVE SMOOTH",
"318 651 LINE SMOOTH",
"318 664 OFFCURVE",
"323 670 OFFCURVE",
"335 670 CURVE SMOOTH",
"710 670 LINE SMOOTH",
"1019 670 OFFCURVE",
"1242 793 OFFCURVE",
"1242 1096 CURVE SMOOTH"
);
},
{
closed = 1;
nodes = (
"1144 850 OFFCURVE",
"972 752 OFFCURVE",
"710 752 CURVE SMOOTH",
"333 752 LINE SMOOTH",
"323 752 OFFCURVE",
"318 758 OFFCURVE",
"318 772 CURVE SMOOTH",
"318 1421 LINE SMOOTH",
"318 1434 OFFCURVE",
"325 1438 OFFCURVE",
"337 1438 CURVE SMOOTH",
"695 1438 LINE SMOOTH",
"972 1438 OFFCURVE",
"1144 1356 OFFCURVE",
"1144 1102 CURVE SMOOTH"
);
}
);
};
layerId = "91AB5BCA-6A50-42DA-B2F7-8181BF189245";
rightMetricsKey = "=X/2";
paths = (
{
closed = 1;
nodes = (
"232 0 LINE",
"312 567 LINE",
"662 567 LINE SMOOTH",
"941 567 OFFCURVE",
"1164 733 OFFCURVE",
"1207 1030 CURVE SMOOTH",
"1248 1327 OFFCURVE",
"1066 1481 OFFCURVE",
"779 1481 CURVE SMOOTH",
"359 1481 LINE",
"153 0 LINE"
);
},
{
closed = 1;
nodes = (
"429 1395 LINE",
"765 1395 LINE SMOOTH",
"1015 1395 OFFCURVE",
"1158 1282 OFFCURVE",
"1125 1036 CURVE SMOOTH",
"1091 791 OFFCURVE",
"910 655 OFFCURVE",
"675 655 CURVE SMOOTH",
"325 655 LINE"
);
}
);
width = 1197;
}
);
leftKerningGroup = N;
leftMetricsKey = H;
rightKerningGroup = P;
rightMetricsKey = "=O";
unicode = 0050;
},
{
glyphname = Thorn;
lastChange = "2019-05-31 16:36:28 +0000";
layers = (
{
background = {
paths = (
{
closed = 1;
nodes = (
"1512 1085 OFFCURVE",
"1232 1245 OFFCURVE",
"896 1245 CURVE SMOOTH",
"638 1245 LINE SMOOTH",
"623 1245 OFFCURVE",
"617 1253 OFFCURVE",
"617 1270 CURVE SMOOTH",
"617 1477 LINE SMOOTH",
"617 1503 OFFCURVE",
"605 1520 OFFCURVE",
"580 1520 CURVE SMOOTH",
"191 1520 LINE SMOOTH",
"169 1520 OFFCURVE",
"152 1503 OFFCURVE",
"152 1473 CURVE SMOOTH",
"152 51 LINE SMOOTH",
"152 16 OFFCURVE",
"165 0 OFFCURVE",
"206 0 CURVE SMOOTH",
"550 0 LINE SMOOTH",
"597 0 OFFCURVE",
"617 16 OFFCURVE",
"617 59 CURVE SMOOTH",
"617 268 LINE SMOOTH",
"617 283 OFFCURVE",
"623 291 OFFCURVE",
"642 291 CURVE SMOOTH",
"949 291 LINE SMOOTH",
"1283 291 OFFCURVE",
"1512 469 OFFCURVE",
"1512 762 CURVE SMOOTH"
);
},
{
closed = 1;
nodes = (
"1037 686 OFFCURVE",
"978 618 OFFCURVE",
"879 618 CURVE SMOOTH",
"652 618 LINE SMOOTH",
"625 618 OFFCURVE",
"617 633 OFFCURVE",
"617 664 CURVE SMOOTH",
"617 874 LINE SMOOTH",
"617 905 OFFCURVE",
"630 918 OFFCURVE",
"664 918 CURVE SMOOTH",
"867 918 LINE SMOOTH",
"961 918 OFFCURVE",
"1037 860 OFFCURVE",
"1037 768 CURVE SMOOTH"
);
}
);
};
layerId = "258ED206-D907-4350-8EBA-CBDDA1C16BF7";
paths = (
{
closed = 1;
nodes = (
"519 0 LINE",
"562 283 LINE",
"884 283 LINE SMOOTH",
"1207 283 OFFCURVE",
"1455 457 OFFCURVE",
"1498 743 CURVE SMOOTH",
"1545 1059 OFFCURVE",
"1297 1214 OFFCURVE",
"972 1214 CURVE SMOOTH",
"703 1214 LINE",
"742 1481 LINE",
"292 1481 LINE",
"66 0 LINE"
);
},
{
closed = 1;
nodes = (
"654 895 LINE",
"896 895 LINE SMOOTH",
"986 895 OFFCURVE",
"1054 840 OFFCURVE",
"1039 750 CURVE SMOOTH",
"1027 670 OFFCURVE",
"957 602 OFFCURVE",
"863 602 CURVE SMOOTH",
"609 602 LINE"
);
}
);
width = 1528;
},
{
background = {
paths = (
{
closed = 1;
nodes = (
"1242 1069 OFFCURVE",
"1017 1186 OFFCURVE",
"697 1186 CURVE SMOOTH",
"331 1186 LINE SMOOTH",
"323 1186 OFFCURVE",
"318 1190 OFFCURVE",
"318 1196 CURVE SMOOTH",
"318 1499 LINE SMOOTH",
"318 1516 OFFCURVE",
"314 1520 OFFCURVE",
"300 1520 CURVE SMOOTH",
"243 1520 LINE SMOOTH",
"228 1520 OFFCURVE",
"224 1516 OFFCURVE",
"224 1499 CURVE SMOOTH",
"224 16 LINE SMOOTH",
"224 6 OFFCURVE",
"230 0 OFFCURVE",
"241 0 CURVE SMOOTH",
"302 0 LINE SMOOTH",
"312 0 OFFCURVE",
"318 6 OFFCURVE",
"318 18 CURVE SMOOTH",
"318 354 LINE SMOOTH",
"318 367 OFFCURVE",
"323 373 OFFCURVE",
"335 373 CURVE SMOOTH",
"710 373 LINE SMOOTH",
"1017 373 OFFCURVE",
"1242 489 OFFCURVE",
"1242 799 CURVE SMOOTH"
);
},
{
closed = 1;
nodes = (
"1144 549 OFFCURVE",
"972 455 OFFCURVE",
"710 455 CURVE SMOOTH",
"333 455 LINE SMOOTH",
"323 455 OFFCURVE",
"318 461 OFFCURVE",
"318 475 CURVE SMOOTH",
"318 1087 LINE SMOOTH",
"318 1100 OFFCURVE",
"325 1104 OFFCURVE",
"337 1104 CURVE SMOOTH",
"695 1104 LINE SMOOTH",
"972 1104 OFFCURVE",
"1144 1026 OFFCURVE",
"1144 799 CURVE SMOOTH"
);
}
);
};
layerId = "91AB5BCA-6A50-42DA-B2F7-8181BF189245";
paths = (
{
closed = 1;
nodes = (
"236 0 LINE",
"288 362 LINE",
"638 362 LINE SMOOTH",
"914 362 OFFCURVE",
"1134 477 OFFCURVE",
"1174 778 CURVE SMOOTH",
"1211 1042 OFFCURVE",
"1027 1157 OFFCURVE",
"738 1157 CURVE SMOOTH",
"398 1157 LINE",
"445 1481 LINE",
"359 1481 LINE",
"153 0 LINE"
);
},
{
closed = 1;
nodes = (
"388 1077 LINE",
"726 1077 LINE SMOOTH",
"974 1077 OFFCURVE",
"1117 999 OFFCURVE",
"1086 778 CURVE SMOOTH",
"1052 535 OFFCURVE",
"884 442 OFFCURVE",
"648 442 CURVE SMOOTH",
"298 442 LINE"
);
}
);
width = 1199;
}
);
leftKerningGroup = N;
leftMetricsKey = P;
rightKerningGroup = P;
rightMetricsKey = P;
unicode = 00DE;
},
{
glyphname = Q;
lastChange = "2019-05-31 16:38:47 +0000";
layers = (
{
background = {
paths = (
{
closed = 1;
nodes = (
"78 283 OFFCURVE",
"363 -20 OFFCURVE",
"815 -20 CURVE SMOOTH",
"869 -20 OFFCURVE",
"912 -18 OFFCURVE",
"961 -12 CURVE SMOOTH",
"975 -10 OFFCURVE",
"985 -12 OFFCURVE",
"992 -20 CURVE SMOOTH",
"1108 -172 OFFCURVE",
"1256 -262 OFFCURVE",
"1461 -262 CURVE SMOOTH",
"1526 -262 OFFCURVE",
"1551 -250 OFFCURVE",
"1551 -199 CURVE SMOOTH",
"1551 27 LINE SMOOTH",
"1551 41 OFFCURVE",
"1545 57 OFFCURVE",
"1516 61 CURVE SMOOTH",
"1428 74 OFFCURVE",
"1332 125 OFFCURVE",
"1332 160 CURVE SMOOTH",
"1332 168 OFFCURVE",
"1332 172 OFFCURVE",
"1336 176 CURVE",
"1473 311 OFFCURVE",
"1551 510 OFFCURVE",
"1551 756 CURVE SMOOTH",
"1551 1231 OFFCURVE",
"1258 1540 OFFCURVE",
"815 1540 CURVE SMOOTH",
"371 1540 OFFCURVE",
"78 1231 OFFCURVE",
"78 756 CURVE SMOOTH"
);
},
{
closed = 1;
nodes = (
"566 1090 OFFCURVE",
"637 1225 OFFCURVE",
"815 1225 CURVE SMOOTH",
"992 1225 OFFCURVE",
"1063 1090 OFFCURVE",
"1063 752 CURVE SMOOTH",
"1063 422 OFFCURVE",
"996 299 OFFCURVE",
"815 299 CURVE SMOOTH",
"633 299 OFFCURVE",
"566 422 OFFCURVE",
"566 752 CURVE SMOOTH"
);
}
);
};
layerId = "258ED206-D907-4350-8EBA-CBDDA1C16BF7";
rightMetricsKey = "=O*1.25";
paths = (
{
closed = 1;
nodes = (
"1442 55 LINE",
"1342 55 OFFCURVE",
"1258 106 OFFCURVE",
"1252 164 CURVE",
"1405 307 OFFCURVE",
"1510 498 OFFCURVE",
"1547 737 CURVE SMOOTH",
"1616 1200 OFFCURVE",
"1379 1501 OFFCURVE",
"949 1501 CURVE SMOOTH",
"521 1501 OFFCURVE",
"189 1200 OFFCURVE",
"119 737 CURVE SMOOTH",
"49 276 OFFCURVE",
"281 -20 OFFCURVE",
"719 -20 CURVE SMOOTH",
"770 -20 OFFCURVE",
"811 -18 OFFCURVE",
"883 -10 CURVE",
"1024 -231 OFFCURVE",
"1159 -256 OFFCURVE",
"1395 -256 CURVE"
);
},
{
closed = 1;
nodes = (
"592 299 OFFCURVE",
"504 412 OFFCURVE",
"551 733 CURVE SMOOTH",
"602 1063 OFFCURVE",
"729 1182 OFFCURVE",
"901 1182 CURVE SMOOTH",
"1071 1182 OFFCURVE",
"1164 1063 OFFCURVE",
"1114 733 CURVE SMOOTH",
"1065 412 OFFCURVE",
"942 299 OFFCURVE",
"766 299 CURVE SMOOTH"
);
}
);
width = 1631;
},
{
background = {
paths = (
{
closed = 1;
nodes = (
"101 238 OFFCURVE",
"341 -20 OFFCURVE",
"718 -20 CURVE SMOOTH",
"771 -20 OFFCURVE",
"833 -14 OFFCURVE",
"884 -2 CURVE SMOOTH",
"898 2 OFFCURVE",
"908 -2 OFFCURVE",
"914 -10 CURVE SMOOTH",
"1048 -197 OFFCURVE",
"1183 -250 OFFCURVE",
"1273 -250 CURVE SMOOTH",
"1302 -250 OFFCURVE",
"1314 -246 OFFCURVE",
"1314 -223 CURVE SMOOTH",
"1314 -178 LINE SMOOTH",
"1314 -172 OFFCURVE",
"1312 -166 OFFCURVE",
"1300 -164 CURVE SMOOTH",
"1146 -143 OFFCURVE",
"1009 -23 OFFCURVE",
"1009 33 CURVE SMOOTH",
"1009 41 OFFCURVE",
"1011 45 OFFCURVE",
"1021 51 CURVE SMOOTH",
"1220 170 OFFCURVE",
"1334 387 OFFCURVE",
"1334 756 CURVE SMOOTH",
"1334 1270 OFFCURVE",
"1103 1540 OFFCURVE",
"718 1540 CURVE SMOOTH",
"333 1540 OFFCURVE",
"101 1270 OFFCURVE",
"101 756 CURVE SMOOTH"
);
},
{
closed = 1;
nodes = (
"200 1212 OFFCURVE",
"376 1454 OFFCURVE",
"718 1454 CURVE SMOOTH",
"1060 1454 OFFCURVE",
"1236 1212 OFFCURVE",
"1236 756 CURVE SMOOTH",
"1236 289 OFFCURVE",
"1054 66 OFFCURVE",
"718 66 CURVE SMOOTH",
"382 66 OFFCURVE",
"200 289 OFFCURVE",
"200 752 CURVE SMOOTH"
);
}
);
};
layerId = "91AB5BCA-6A50-42DA-B2F7-8181BF189245";
rightMetricsKey = "=O*1.25";
paths = (
{
closed = 1;
nodes = (
"1121 -162 LINE",
"1003 -156 OFFCURVE",
"904 -102 OFFCURVE",
"861 37 CURVE",
"1099 162 OFFCURVE",
"1218 397 OFFCURVE",
"1265 737 CURVE SMOOTH",
"1334 1239 OFFCURVE",
"1164 1501 OFFCURVE",
"820 1501 CURVE SMOOTH",
"474 1501 OFFCURVE",
"228 1239 OFFCURVE",
"159 737 CURVE SMOOTH",
"87 231 OFFCURVE",
"269 -20 OFFCURVE",
"605 -20 CURVE SMOOTH",
"658 -20 OFFCURVE",
"712 -12 OFFCURVE",
"775 2 CURVE",
"843 -201 OFFCURVE",
"1019 -244 OFFCURVE",
"1109 -244 CURVE"
);
},
{
closed = 1;
nodes = (
"316 63 OFFCURVE",
"177 281 OFFCURVE",
"241 733 CURVE SMOOTH",
"304 1182 OFFCURVE",
"501 1417 OFFCURVE",
"808 1417 CURVE SMOOTH",
"1115 1417 OFFCURVE",
"1246 1182 OFFCURVE",
"1183 737 CURVE SMOOTH",
"1119 281 OFFCURVE",
"919 63 OFFCURVE",
"618 63 CURVE SMOOTH"
);
}
);
width = 1399;
}
);
leftKerningGroup = O;
leftMetricsKey = O;
rightKerningGroup = O;
rightMetricsKey = "O*1.25";
unicode = 0051;
},
{
glyphname = R;
lastChange = "2019-05-31 16:36:05 +0000";
layers = (
{
anchors = (
{
name = bottom;
position = "{660, 0}";
},
{
name = top;
position = "{865, 1481}";
}
);
background = {
anchors = (
{
name = bottom;
position = "{765, 0}";
},
{
name = top;
position = "{744, 1520}";
}
);
paths = (
{
closed = 1;
nodes = (
"1189 639 LINE SMOOTH",
"1183 655 OFFCURVE",
"1183 672 OFFCURVE",
"1197 678 CURVE SMOOTH",
"1353 737 OFFCURVE",
"1465 893 OFFCURVE",
"1465 1085 CURVE SMOOTH",
"1465 1360 OFFCURVE",
"1236 1520 OFFCURVE",
"841 1520 CURVE SMOOTH",
"156 1520 LINE SMOOTH",
"132 1520 OFFCURVE",
"118 1503 OFFCURVE",
"118 1473 CURVE SMOOTH",
"118 51 LINE SMOOTH",
"118 16 OFFCURVE",
"130 0 OFFCURVE",
"171 0 CURVE SMOOTH",
"515 0 LINE SMOOTH",
"562 0 OFFCURVE",
"582 16 OFFCURVE",
"582 59 CURVE SMOOTH",
"582 582 LINE SMOOTH",
"582 588 OFFCURVE",
"589 604 OFFCURVE",
"607 604 CURVE SMOOTH",
"701 604 LINE SMOOTH",
"740 604 OFFCURVE",
"757 594 OFFCURVE",
"765 571 CURVE SMOOTH",
"957 43 LINE SMOOTH",
"965 14 OFFCURVE",
"984 0 OFFCURVE",
"1013 0 CURVE SMOOTH",
"1410 0 LINE SMOOTH",
"1443 0 OFFCURVE",
"1461 31 OFFCURVE",
"1447 66 CURVE SMOOTH"
);
},
{
closed = 1;
nodes = (
"617 909 LINE SMOOTH",
"591 909 OFFCURVE",
"582 922 OFFCURVE",
"582 952 CURVE SMOOTH",
"582 1176 LINE SMOOTH",
"582 1206 OFFCURVE",
"595 1217 OFFCURVE",
"630 1217 CURVE SMOOTH",
"810 1217 LINE SMOOTH",
"902 1217 OFFCURVE",
"984 1161 OFFCURVE",
"984 1057 CURVE SMOOTH",
"984 969 OFFCURVE",
"927 909 OFFCURVE",
"822 909 CURVE SMOOTH"
);
}
);
};
layerId = "258ED206-D907-4350-8EBA-CBDDA1C16BF7";
rightMetricsKey = "=H/1.5";
paths = (
{
closed = 1;
nodes = (
"462 0 LINE",
"539 510 LINE",
"748 510 LINE",
"884 0 LINE",
"1289 0 LINE",
"1117 573 LINE",
"1266 657 OFFCURVE",
"1381 776 OFFCURVE",
"1416 1004 CURVE SMOOTH",
"1457 1272 OFFCURVE",
"1340 1481 OFFCURVE",
"957 1481 CURVE SMOOTH",
"290 1481 LINE",
"66 0 LINE"
);
},
{
closed = 1;
nodes = (
"642 1186 LINE",
"869 1186 LINE SMOOTH",
"957 1186 OFFCURVE",
"1033 1102 OFFCURVE",
"1017 999 CURVE SMOOTH",
"1002 903 OFFCURVE",
"912 807 OFFCURVE",
"812 807 CURVE SMOOTH",
"585 807 LINE"
);
}
);
width = 1456;
},
{
anchors = (
{
name = bottom;
position = "{558, 0}";
},
{
name = top;
position = "{753, 1481}";
}
);
background = {
anchors = (
{
name = bottom;
position = "{677, 0}";
},
{
name = top;
position = "{663, 1520}";
}
);
paths = (
{
closed = 1;
nodes = (
"906 735 LINE",
"904 741 OFFCURVE",
"906 748 OFFCURVE",
"914 750 CURVE SMOOTH",
"1056 786 OFFCURVE",
"1226 891 OFFCURVE",
"1226 1143 CURVE SMOOTH",
"1226 1393 OFFCURVE",
"1054 1520 OFFCURVE",
"759 1520 CURVE SMOOTH",
"230 1520 LINE SMOOTH",
"216 1520 OFFCURVE",
"212 1516 OFFCURVE",
"212 1499 CURVE SMOOTH",
"212 18 LINE SMOOTH",
"212 6 OFFCURVE",
"216 0 OFFCURVE",
"232 0 CURVE SMOOTH",
"286 0 LINE SMOOTH",
"302 0 OFFCURVE",
"306 6 OFFCURVE",
"306 23 CURVE SMOOTH",
"306 705 LINE SMOOTH",
"306 719 OFFCURVE",
"312 727 OFFCURVE",
"331 727 CURVE SMOOTH",
"773 727 LINE SMOOTH",
"800 727 OFFCURVE",
"810 721 OFFCURVE",
"816 707 CURVE SMOOTH",
"1107 18 LINE SMOOTH",
"1113 6 OFFCURVE",
"1117 0 OFFCURVE",
"1132 0 CURVE SMOOTH",
"1189 0 LINE SMOOTH",
"1203 0 OFFCURVE",
"1211 14 OFFCURVE",
"1205 29 CURVE SMOOTH"
);
},
{
closed = 1;
nodes = (
"321 809 LINE SMOOTH",
"310 809 OFFCURVE",
"306 815 OFFCURVE",
"306 827 CURVE SMOOTH",
"306 1421 LINE SMOOTH",
"306 1434 OFFCURVE",
"312 1438 OFFCURVE",
"329 1438 CURVE SMOOTH",
"757 1438 LINE SMOOTH",
"1005 1438 OFFCURVE",
"1127 1337 OFFCURVE",
"1127 1128 CURVE SMOOTH",
"1127 899 OFFCURVE",
"980 809 OFFCURVE",
"687 809 CURVE SMOOTH"
);
}
);
};
layerId = "91AB5BCA-6A50-42DA-B2F7-8181BF189245";
paths = (
{
closed = 1;
nodes = (
"224 0 LINE",
"325 705 LINE",
"781 705 LINE",
"957 0 LINE",
"1041 0 LINE",
"861 723 LINE",
"998 760 OFFCURVE",
"1172 866 OFFCURVE",
"1207 1114 CURVE SMOOTH",
"1240 1358 OFFCURVE",
"1103 1481 OFFCURVE",
"839 1481 CURVE SMOOTH",
"359 1481 LINE",
"151 0 LINE"
);
},
{
closed = 1;
nodes = (
"421 1399 LINE",
"826 1399 LINE SMOOTH",
"1050 1399 OFFCURVE",
"1154 1311 OFFCURVE",
"1125 1100 CURVE SMOOTH",
"1095 877 OFFCURVE",
"941 788 OFFCURVE",
"679 788 CURVE SMOOTH",
"335 788 LINE"
);
}
);
width = 1275;
}
);
leftKerningGroup = N;
leftMetricsKey = H;
rightKerningGroup = R;
rightMetricsKey = "=X+30";
unicode = 0052;
},
{
glyphname = S;
lastChange = "2019-05-31 16:36:05 +0000";
layers = (
{
anchors = (
{
name = bottom;
position = "{669, 0}";
},
{
name = top;
position = "{894, 1481}";
}
);
background = {
anchors = (
{
name = bottom;
position = "{778, 0}";
},
{
name = top;
position = "{778, 1520}";
}
);
paths = (
{
closed = 1;
nodes = (
"1091 1083 OFFCURVE",
"1103 1081 OFFCURVE",
"1124 1096 CURVE SMOOTH",
"1347 1257 LINE SMOOTH",
"1373 1278 OFFCURVE",
"1359 1300 OFFCURVE",
"1347 1319 CURVE SMOOTH",
"1253 1452 OFFCURVE",
"1021 1540 OFFCURVE",
"778 1540 CURVE SMOOTH",
"390 1540 OFFCURVE",
"147 1321 OFFCURVE",
"147 1055 CURVE SMOOTH",
"147 840 OFFCURVE",
"302 662 OFFCURVE",
"548 600 CURVE SMOOTH",
"859 524 LINE SMOOTH",
"947 504 OFFCURVE",
"988 463 OFFCURVE",
"988 414 CURVE SMOOTH",
"988 338 OFFCURVE",
"890 295 OFFCURVE",
"741 295 CURVE SMOOTH",
"579 295 OFFCURVE",
"499 342 OFFCURVE",
"409 459 CURVE SMOOTH",
"392 479 OFFCURVE",
"368 487 OFFCURVE",
"331 463 CURVE SMOOTH",
"120 317 LINE SMOOTH",
"91 295 OFFCURVE",
"91 279 OFFCURVE",
"108 250 CURVE SMOOTH",
"204 88 OFFCURVE",
"476 -20 OFFCURVE",
"775 -20 CURVE SMOOTH",
"1179 -20 OFFCURVE",
"1431 176 OFFCURVE",
"1431 479 CURVE SMOOTH",
"1431 690 OFFCURVE",
"1312 862 OFFCURVE",
"1056 926 CURVE SMOOTH",
"716 1014 LINE SMOOTH",
"614 1038 OFFCURVE",
"585 1081 OFFCURVE",
"585 1118 CURVE SMOOTH",
"585 1169 OFFCURVE",
"640 1223 OFFCURVE",
"794 1223 CURVE SMOOTH",
"954 1223 OFFCURVE",
"1013 1165 OFFCURVE",
"1062 1112 CURVE SMOOTH"
);
}
);
};
guideLines = (
{
angle = 214.3236;
position = "{686, 302}";
}
);
layerId = "258ED206-D907-4350-8EBA-CBDDA1C16BF7";
leftMetricsKey = "=O";
rightMetricsKey = "=O/1.1";
paths = (
{
closed = 1;
nodes = (
"1042 -20 OFFCURVE",
"1347 168 OFFCURVE",
"1384 420 CURVE SMOOTH",
"1406 567 OFFCURVE",
"1421 834 OFFCURVE",
"1005 907 CURVE SMOOTH",
"782 946 LINE SMOOTH",
"657 969 OFFCURVE",
"630 1008 OFFCURVE",
"640 1075 CURVE SMOOTH",
"648 1128 OFFCURVE",
"704 1192 OFFCURVE",
"859 1192 CURVE SMOOTH",
"997 1192 OFFCURVE",
"1072 1147 OFFCURVE",
"1066 1032 CURVE",
"1468 1032 LINE",
"1478 1276 OFFCURVE",
"1257 1499 OFFCURVE",
"896 1499 CURVE SMOOTH",
"558 1499 OFFCURVE",
"251 1325 OFFCURVE",
"208 1026 CURVE SMOOTH",
"175 774 OFFCURVE",
"304 627 OFFCURVE",
"530 590 CURVE SMOOTH",
"753 551 LINE SMOOTH",
"874 530 OFFCURVE",
"993 510 OFFCURVE",
"980 420 CURVE SMOOTH",
"964 315 OFFCURVE",
"841 285 OFFCURVE",
"716 285 CURVE SMOOTH",
"579 285 OFFCURVE",
"497 346 OFFCURVE",
"491 451 CURVE",
"79 451 LINE",
"55 121 OFFCURVE",
"364 -20 OFFCURVE",
"673 -20 CURVE SMOOTH"
);
}
);
width = 1481;
},
{
anchors = (
{
name = bottom;
position = "{553, 0}";
},
{
name = top;
position = "{773, 1481}";
}
);
background = {
anchors = (
{
name = bottom;
position = "{695, 0}";
},
{
name = top;
position = "{687, 1520}";
}
);
paths = (
{
closed = 1;
nodes = (
"1070 1270 OFFCURVE",
"1074 1266 OFFCURVE",
"1084 1274 CURVE SMOOTH",
"1129 1315 LINE SMOOTH",
"1141 1325 OFFCURVE",
"1137 1335 OFFCURVE",
"1129 1343 CURVE SMOOTH",
"1012 1466 OFFCURVE",
"875 1540 OFFCURVE",
"685 1540 CURVE SMOOTH",
"404 1540 OFFCURVE",
"209 1395 OFFCURVE",
"209 1139 CURVE SMOOTH",
"209 1008 OFFCURVE",
"271 862 OFFCURVE",
"492 778 CURVE SMOOTH",
"801 659 LINE SMOOTH",
"1025 573 OFFCURVE",
"1072 489 OFFCURVE",
"1072 369 CURVE SMOOTH",
"1072 150 OFFCURVE",
"910 66 OFFCURVE",
"666 66 CURVE SMOOTH",
"447 66 OFFCURVE",
"349 141 OFFCURVE",
"234 289 CURVE SMOOTH",
"224 301 OFFCURVE",
"214 303 OFFCURVE",
"193 289 CURVE SMOOTH",
"171 272 LINE SMOOTH",
"150 258 OFFCURVE",
"148 246 OFFCURVE",
"158 231 CURVE SMOOTH",
"279 59 OFFCURVE",
"439 -20 OFFCURVE",
"666 -20 CURVE SMOOTH",
"975 -20 OFFCURVE",
"1166 123 OFFCURVE",
"1166 373 CURVE SMOOTH",
"1166 545 OFFCURVE",
"1078 668 OFFCURVE",
"836 756 CURVE SMOOTH",
"553 858 LINE SMOOTH",
"334 938 OFFCURVE",
"304 1061 OFFCURVE",
"304 1141 CURVE SMOOTH",
"304 1343 OFFCURVE",
"455 1454 OFFCURVE",
"678 1454 CURVE SMOOTH",
"850 1454 OFFCURVE",
"975 1380 OFFCURVE",
"1057 1284 CURVE SMOOTH"
);
}
);
};
layerId = "91AB5BCA-6A50-42DA-B2F7-8181BF189245";
rightMetricsKey = "=O*1.2";
paths = (
{
closed = 1;
nodes = (
"895 -20 OFFCURVE",
"1082 154 OFFCURVE",
"1111 362 CURVE SMOOTH",
"1135 530 OFFCURVE",
"1078 684 OFFCURVE",
"873 745 CURVE SMOOTH",
"594 827 LINE SMOOTH",
"388 889 OFFCURVE",
"328 965 OFFCURVE",
"347 1092 CURVE SMOOTH",
"377 1317 OFFCURVE",
"601 1415 OFFCURVE",
"762 1415 CURVE SMOOTH",
"949 1415 OFFCURVE",
"1106 1331 OFFCURVE",
"1111 1090 CURVE",
"1188 1106 LINE",
"1199 1311 OFFCURVE",
"1088 1499 OFFCURVE",
"779 1499 CURVE SMOOTH",
"504 1499 OFFCURVE",
"297 1323 OFFCURVE",
"265 1090 CURVE SMOOTH",
"240 913 OFFCURVE",
"340 817 OFFCURVE",
"533 762 CURVE SMOOTH",
"826 680 LINE SMOOTH",
"994 633 OFFCURVE",
"1051 516 OFFCURVE",
"1029 358 CURVE SMOOTH",
"1004 184 OFFCURVE",
"822 59 OFFCURVE",
"584 59 CURVE SMOOTH",
"383 59 OFFCURVE",
"211 160 OFFCURVE",
"199 360 CURVE",
"117 342 LINE",
"125 113 OFFCURVE",
"324 -20 OFFCURVE",
"572 -20 CURVE SMOOTH"
);
}
);
width = 1291;
}
);
leftKerningGroup = S;
leftMetricsKey = "=O*1.1";
rightKerningGroup = S;
rightMetricsKey = "=O";
unicode = 0053;
},
{
glyphname = Schwa;
lastChange = "2019-05-31 16:36:28 +0000";
layers = (
{
background = {
paths = (
{
closed = 1;
nodes = (
"1070 883 OFFCURVE",
"1056 870 OFFCURVE",
"1029 870 CURVE SMOOTH",
"143 870 LINE SMOOTH",
"98 870 OFFCURVE",
"96 848 OFFCURVE",
"96 803 CURVE SMOOTH",
"96 279 OFFCURVE",
"343 -20 OFFCURVE",
"821 -20 CURVE SMOOTH",
"1216 -20 OFFCURVE",
"1562 324 OFFCURVE",
"1562 778 CURVE SMOOTH",
"1562 1227 OFFCURVE",
"1281 1540 OFFCURVE",
"827 1540 CURVE SMOOTH",
"528 1540 OFFCURVE",
"311 1411 OFFCURVE",
"184 1161 CURVE SMOOTH",
"167 1128 OFFCURVE",
"169 1110 OFFCURVE",
"194 1098 CURVE SMOOTH",
"476 958 LINE SMOOTH",
"511 940 OFFCURVE",
"524 946 OFFCURVE",
"532 961 CURVE SMOOTH",
"626 1114 OFFCURVE",
"704 1184 OFFCURVE",
"831 1184 CURVE SMOOTH",
"1031 1184 OFFCURVE",
"1070 1036 OFFCURVE",
"1070 915 CURVE SMOOTH"
);
},
{
closed = 1;
nodes = (
"1042 393 OFFCURVE",
"982 299 OFFCURVE",
"816 299 CURVE SMOOTH",
"677 299 OFFCURVE",
"593 412 OFFCURVE",
"593 547 CURVE SMOOTH",
"593 578 OFFCURVE",
"603 584 OFFCURVE",
"638 584 CURVE SMOOTH",
"1066 582 LINE"
);
}
);
};
layerId = "258ED206-D907-4350-8EBA-CBDDA1C16BF7";
paths = (
{
closed = 1;
nodes = (
"1089 -20 OFFCURVE",
"1476 315 OFFCURVE",
"1543 760 CURVE SMOOTH",
"1609 1196 OFFCURVE",
"1386 1501 OFFCURVE",
"943 1501 CURVE SMOOTH",
"655 1501 OFFCURVE",
"425 1376 OFFCURVE",
"266 1133 CURVE SMOOTH",
"245 1100 OFFCURVE",
"243 1081 OFFCURVE",
"266 1071 CURVE SMOOTH",
"517 934 LINE SMOOTH",
"550 918 OFFCURVE",
"562 922 OFFCURVE",
"573 936 CURVE SMOOTH",
"687 1085 OFFCURVE",
"773 1155 OFFCURVE",
"896 1155 CURVE SMOOTH",
"1091 1155 OFFCURVE",
"1105 1010 OFFCURVE",
"1089 893 CURVE SMOOTH",
"1083 860 OFFCURVE",
"1066 848 OFFCURVE",
"1042 848 CURVE SMOOTH",
"184 848 LINE SMOOTH",
"139 848 OFFCURVE",
"134 827 OFFCURVE",
"126 782 CURVE SMOOTH",
"48 272 OFFCURVE",
"245 -20 OFFCURVE",
"708 -20 CURVE SMOOTH"
);
},
{
closed = 1;
nodes = (
"616 291 OFFCURVE",
"552 401 OFFCURVE",
"571 532 CURVE SMOOTH",
"577 563 OFFCURVE",
"587 569 OFFCURVE",
"620 569 CURVE SMOOTH",
"1034 567 LINE",
"984 383 OFFCURVE",
"911 291 OFFCURVE",
"751 291 CURVE SMOOTH"
);
}
);
width = 1601;
},
{
background = {
paths = (
{
closed = 1;
nodes = (
"1242 780 OFFCURVE",
"1240 778 OFFCURVE",
"1230 778 CURVE SMOOTH",
"134 778 LINE SMOOTH",
"118 778 OFFCURVE",
"118 768 OFFCURVE",
"118 756 CURVE SMOOTH",
"118 356 OFFCURVE",
"253 -20 OFFCURVE",
"734 -20 CURVE SMOOTH",
"1203 -20 OFFCURVE",
"1349 369 OFFCURVE",
"1349 750 CURVE SMOOTH",
"1349 1087 OFFCURVE",
"1246 1540 OFFCURVE",
"734 1540 CURVE SMOOTH",
"267 1540 OFFCURVE",
"177 1147 OFFCURVE",
"146 1069 CURVE SMOOTH",
"142 1059 OFFCURVE",
"140 1053 OFFCURVE",
"149 1051 CURVE SMOOTH",
"226 1024 LINE SMOOTH",
"235 1022 OFFCURVE",
"239 1020 OFFCURVE",
"241 1024 CURVE SMOOTH",
"269 1087 OFFCURVE",
"306 1452 OFFCURVE",
"734 1452 CURVE SMOOTH",
"1181 1452 OFFCURVE",
"1242 1032 OFFCURVE",
"1242 791 CURVE SMOOTH"
);
},
{
closed = 1;
nodes = (
"1236 391 OFFCURVE",
"1136 68 OFFCURVE",
"734 68 CURVE SMOOTH",
"331 68 OFFCURVE",
"224 393 OFFCURVE",
"224 680 CURVE SMOOTH",
"224 688 OFFCURVE",
"228 692 OFFCURVE",
"241 692 CURVE SMOOTH",
"1242 692 LINE"
);
}
);
};
layerId = "91AB5BCA-6A50-42DA-B2F7-8181BF189245";
paths = (
{
closed = 1;
nodes = (
"1027 -20 OFFCURVE",
"1209 360 OFFCURVE",
"1263 731 CURVE SMOOTH",
"1310 1061 OFFCURVE",
"1281 1501 OFFCURVE",
"820 1501 CURVE SMOOTH",
"402 1501 OFFCURVE",
"267 1118 OFFCURVE",
"228 1042 CURVE SMOOTH",
"224 1032 OFFCURVE",
"220 1026 OFFCURVE",
"228 1024 CURVE SMOOTH",
"294 999 LINE SMOOTH",
"302 997 OFFCURVE",
"304 995 OFFCURVE",
"306 999 CURVE SMOOTH",
"343 1061 OFFCURVE",
"425 1415 OFFCURVE",
"808 1415 CURVE SMOOTH",
"1207 1415 OFFCURVE",
"1207 1006 OFFCURVE",
"1175 770 CURVE SMOOTH",
"1173 760 OFFCURVE",
"1170 760 OFFCURVE",
"1160 760 CURVE SMOOTH",
"177 760 LINE SMOOTH",
"163 760 OFFCURVE",
"161 750 OFFCURVE",
"159 737 CURVE SMOOTH",
"106 348 OFFCURVE",
"175 -20 OFFCURVE",
"607 -20 CURVE SMOOTH"
);
},
{
closed = 1;
nodes = (
"257 66 OFFCURVE",
"206 383 OFFCURVE",
"245 664 CURVE SMOOTH",
"247 672 OFFCURVE",
"251 676 OFFCURVE",
"261 676 CURVE SMOOTH",
"1160 676 LINE",
"1113 381 OFFCURVE",
"978 66 OFFCURVE",
"620 66 CURVE SMOOTH"
);
}
);
width = 1365;
}
);
leftKerningGroup = e;
leftMetricsKey = O;
rightKerningGroup = e;
rightMetricsKey = O;
unicode = 018F;
},
{
glyphname = T;
lastChange = "2019-05-31 16:36:05 +0000";
layers = (
{
anchors = (
{
name = bottom;
position = "{576, 0}";
},
{
name = top;
position = "{802, 1481}";
}
);
background = {
anchors = (
{
name = bottom;
position = "{697, 0}";
},
{
name = top;
position = "{697, 1520}";
}
);
paths = (
{
closed = 1;
nodes = (
"34 1200 OFFCURVE",
"52 1190 OFFCURVE",
"81 1190 CURVE SMOOTH",
"441 1190 LINE SMOOTH",
"458 1190 OFFCURVE",
"464 1182 OFFCURVE",
"464 1161 CURVE SMOOTH",
"464 41 LINE SMOOTH",
"464 14 OFFCURVE",
"478 0 OFFCURVE",
"501 0 CURVE SMOOTH",
"890 0 LINE SMOOTH",
"912 0 OFFCURVE",
"929 14 OFFCURVE",
"929 45 CURVE SMOOTH",
"929 1169 LINE SMOOTH",
"929 1184 OFFCURVE",
"937 1190 OFFCURVE",
"953 1190 CURVE SMOOTH",
"1316 1190 LINE SMOOTH",
"1342 1190 OFFCURVE",
"1361 1200 OFFCURVE",
"1361 1229 CURVE SMOOTH",
"1361 1473 LINE SMOOTH",
"1361 1499 OFFCURVE",
"1344 1520 OFFCURVE",
"1310 1520 CURVE SMOOTH",
"85 1520 LINE SMOOTH",
"50 1520 OFFCURVE",
"34 1499 OFFCURVE",
"34 1473 CURVE SMOOTH",
"34 1229 LINE SMOOTH"
);
}
);
};
layerId = "258ED206-D907-4350-8EBA-CBDDA1C16BF7";
leftMetricsKey = "=X";
rightMetricsKey = "=X";
paths = (
{
closed = 1;
nodes = (
"755 0 LINE",
"927 1130 LINE",
"1349 1130 LINE",
"1402 1481 LINE",
"167 1481 LINE",
"114 1130 LINE",
"529 1130 LINE",
"359 0 LINE"
);
}
);
width = 1298;
},
{
anchors = (
{
name = bottom;
position = "{465, 4}";
},
{
name = top;
position = "{672, 1481}";
}
);
background = {
anchors = (
{
name = bottom;
position = "{586, 0}";
},
{
name = top;
position = "{586, 1520}";
}
);
paths = (
{
closed = 1;
nodes = (
"21 1440 OFFCURVE",
"25 1438 OFFCURVE",
"37 1438 CURVE SMOOTH",
"516 1438 LINE SMOOTH",
"533 1438 OFFCURVE",
"537 1436 OFFCURVE",
"537 1419 CURVE SMOOTH",
"537 20 LINE SMOOTH",
"537 4 OFFCURVE",
"541 0 OFFCURVE",
"557 0 CURVE SMOOTH",
"613 0 LINE SMOOTH",
"627 0 OFFCURVE",
"631 4 OFFCURVE",
"631 20 CURVE SMOOTH",
"631 1419 LINE SMOOTH",
"631 1436 OFFCURVE",
"635 1438 OFFCURVE",
"651 1438 CURVE SMOOTH",
"1088 1438 LINE SMOOTH",
"1100 1438 OFFCURVE",
"1104 1440 OFFCURVE",
"1104 1452 CURVE SMOOTH",
"1104 1505 LINE SMOOTH",
"1104 1516 OFFCURVE",
"1100 1520 OFFCURVE",
"1090 1520 CURVE SMOOTH",
"35 1520 LINE SMOOTH",
"25 1520 OFFCURVE",
"21 1516 OFFCURVE",
"21 1505 CURVE SMOOTH",
"21 1452 LINE SMOOTH"
);
}
);
};
layerId = "91AB5BCA-6A50-42DA-B2F7-8181BF189245";
leftMetricsKey = "=X/4";
rightMetricsKey = "=X/4";
paths = (
{
closed = 1;
nodes = (
"498 0 LINE",
"694 1399 LINE",
"1125 1399 LINE",
"1135 1481 LINE",
"164 1481 LINE",
"154 1399 LINE",
"621 1399 LINE",
"424 0 LINE"
);
}
);
width = 1033;
}
);
leftKerningGroup = T;
leftMetricsKey = X;
rightKerningGroup = T;
rightMetricsKey = X;
unicode = 0054;
},
{
glyphname = Tbar;
lastChange = "2019-05-31 16:36:05 +0000";
layers = (
{
background = {
components = (
{
name = T;
transform = "{1, 0, 0, 1, -22, 0}";
}
);
paths = (
{
closed = 1;
nodes = (
"1090 848 OFFCURVE",
"1075 864 OFFCURVE",
"1053 864 CURVE SMOOTH",
"231 864 LINE SMOOTH",
"207 864 OFFCURVE",
"193 848 OFFCURVE",
"193 817 CURVE SMOOTH",
"193 627 LINE SMOOTH",
"193 592 OFFCURVE",
"205 575 OFFCURVE",
"246 575 CURVE SMOOTH",
"1022 575 LINE SMOOTH",
"1069 575 OFFCURVE",
"1090 592 OFFCURVE",
"1090 633 CURVE SMOOTH",
"1090 823 LINE SMOOTH"
);
}
);
};
components = (
{
name = T;
}
);
layerId = "258ED206-D907-4350-8EBA-CBDDA1C16BF7";
paths = (
{
closed = 1;
nodes = (
"1077 561 LINE",
"1118 842 LINE",
"244 842 LINE",
"203 561 LINE"
);
}
);
width = 1298;
},
{
background = {
components = (
{
name = T;
transform = "{1, 0, 0, 1, 4, 0}";
}
);
guideLines = (
{
angle = 90;
position = "{179, 188}";
showMeasurement = 1;
}
);
paths = (
{
closed = 1;
nodes = (
"1040 817 OFFCURVE",
"1036 823 OFFCURVE",
"1026 823 CURVE SMOOTH",
"305 823 LINE SMOOTH",
"295 823 OFFCURVE",
"291 817 OFFCURVE",
"291 805 CURVE SMOOTH",
"291 758 LINE SMOOTH",
"291 743 OFFCURVE",
"295 737 OFFCURVE",
"311 737 CURVE SMOOTH",
"1014 737 LINE SMOOTH",
"1032 737 OFFCURVE",
"1040 743 OFFCURVE",
"1040 760 CURVE SMOOTH",
"1040 807 LINE SMOOTH"
);
}
);
};
components = (
{
name = T;
}
);
guideLines = (
{
angle = 90;
position = "{233, 175}";
showMeasurement = 1;
}
);
layerId = "91AB5BCA-6A50-42DA-B2F7-8181BF189245";
paths = (
{
closed = 1;
nodes = (
"950 719 LINE",
"950 803 LINE",
"219 803 LINE",
"219 719 LINE"
);
}
);
width = 1033;
}
);
leftKerningGroup = T;
leftMetricsKey = T;
rightKerningGroup = T;
rightMetricsKey = T;
unicode = 0166;
},
{
glyphname = U;
lastChange = "2019-05-31 16:36:05 +0000";
layers = (
{
anchors = (
{
name = bottom;
position = "{693, 0}";
},
{
name = horn;
position = "{1430, 1120}";
},
{
name = ogonek;
position = "{859, 25}";
},
{
name = top;
position = "{918, 1481}";
}
);
background = {
anchors = (
{
name = ogonek;
position = "{1002, 20}";
},
{
name = top;
position = "{808, 1520}";
}
);
paths = (
{
closed = 1;
nodes = (
"1428 1477 LINE SMOOTH",
"1428 1503 OFFCURVE",
"1416 1520 OFFCURVE",
"1391 1520 CURVE SMOOTH",
"1084 1520 LINE SMOOTH",
"1060 1520 OFFCURVE",
"1045 1503 OFFCURVE",
"1045 1473 CURVE SMOOTH",
"1045 598 LINE SMOOTH",
"1045 371 OFFCURVE",
"935 305 OFFCURVE",
"808 305 CURVE SMOOTH",
"668 305 OFFCURVE",
"582 383 OFFCURVE",
"582 592 CURVE SMOOTH",
"582 1477 LINE SMOOTH",
"582 1503 OFFCURVE",
"570 1520 OFFCURVE",
"546 1520 CURVE SMOOTH",
"156 1520 LINE SMOOTH",
"134 1520 OFFCURVE",
"118 1503 OFFCURVE",
"118 1473 CURVE SMOOTH",
"118 641 LINE SMOOTH",
"118 213 OFFCURVE",
"283 -20 OFFCURVE",
"773 -20 CURVE SMOOTH",
"1164 -20 OFFCURVE",
"1428 127 OFFCURVE",
"1428 600 CURVE SMOOTH"
);
}
);
};
layerId = "258ED206-D907-4350-8EBA-CBDDA1C16BF7";
paths = (
{
closed = 1;
nodes = (
"1164 -20 OFFCURVE",
"1365 236 OFFCURVE",
"1422 612 CURVE SMOOTH",
"1553 1481 LINE",
"1152 1481 LINE",
"1019 596 LINE SMOOTH",
"988 391 OFFCURVE",
"863 313 OFFCURVE",
"742 313 CURVE SMOOTH",
"617 313 OFFCURVE",
"519 391 OFFCURVE",
"550 596 CURVE SMOOTH",
"685 1481 LINE",
"283 1481 LINE",
"152 612 LINE SMOOTH",
"95 236 OFFCURVE",
"216 -20 OFFCURVE",
"691 -20 CURVE SMOOTH"
);
}
);
width = 1531;
},
{
anchors = (
{
name = bottom;
position = "{599, 4}";
},
{
name = horn;
position = "{1199, 1241}";
},
{
name = ogonek;
position = "{736, 18}";
},
{
name = top;
position = "{812, 1481}";
}
);
background = {
anchors = (
{
name = ogonek;
position = "{869, 18}";
},
{
name = top;
position = "{730, 1520}";
}
);
paths = (
{
closed = 1;
nodes = (
"1228 1501 LINE SMOOTH",
"1228 1513 OFFCURVE",
"1224 1520 OFFCURVE",
"1211 1520 CURVE SMOOTH",
"1162 1520 LINE SMOOTH",
"1150 1520 OFFCURVE",
"1146 1513 OFFCURVE",
"1146 1501 CURVE SMOOTH",
"1146 469 LINE SMOOTH",
"1146 199 OFFCURVE",
"1009 66 OFFCURVE",
"726 66 CURVE SMOOTH",
"447 66 OFFCURVE",
"310 197 OFFCURVE",
"310 463 CURVE SMOOTH",
"310 1499 LINE SMOOTH",
"310 1516 OFFCURVE",
"306 1520 OFFCURVE",
"290 1520 CURVE SMOOTH",
"232 1520 LINE SMOOTH",
"220 1520 OFFCURVE",
"216 1513 OFFCURVE",
"216 1497 CURVE SMOOTH",
"216 502 LINE SMOOTH",
"216 145 OFFCURVE",
"378 -20 OFFCURVE",
"722 -20 CURVE SMOOTH",
"1062 -20 OFFCURVE",
"1228 141 OFFCURVE",
"1228 471 CURVE SMOOTH"
);
}
);
};
layerId = "91AB5BCA-6A50-42DA-B2F7-8181BF189245";
paths = (
{
closed = 1;
nodes = (
"902 -20 OFFCURVE",
"1072 137 OFFCURVE",
"1117 459 CURVE SMOOTH",
"1260 1481 LINE",
"1187 1481 LINE",
"1043 455 LINE SMOOTH",
"1007 193 OFFCURVE",
"861 57 OFFCURVE",
"609 57 CURVE SMOOTH",
"359 57 OFFCURVE",
"259 197 OFFCURVE",
"296 455 CURVE SMOOTH",
"439 1481 LINE",
"359 1481 LINE",
"220 489 LINE SMOOTH",
"171 141 OFFCURVE",
"290 -20 OFFCURVE",
"599 -20 CURVE SMOOTH"
);
}
);
width = 1307;
}
);
leftKerningGroup = U;
leftMetricsKey = H;
rightKerningGroup = U;
rightMetricsKey = "=H/1.25";
unicode = 0055;
},
{
glyphname = V;
lastChange = "2019-05-31 16:36:05 +0000";
layers = (
{
background = {
paths = (
{
closed = 1;
nodes = (
"1143 1520 LINE SMOOTH",
"1118 1520 OFFCURVE",
"1096 1503 OFFCURVE",
"1089 1477 CURVE SMOOTH",
"833 580 LINE SMOOTH",
"827 559 OFFCURVE",
"819 559 OFFCURVE",
"813 578 CURVE SMOOTH",
"539 1477 LINE SMOOTH",
"530 1503 OFFCURVE",
"512 1520 OFFCURVE",
"487 1520 CURVE SMOOTH",
"92 1520 LINE SMOOTH",
"59 1520 OFFCURVE",
"41 1491 OFFCURVE",
"53 1460 CURVE SMOOTH",
"528 51 LINE SMOOTH",
"539 16 OFFCURVE",
"563 0 OFFCURVE",
"604 0 CURVE SMOOTH",
"936 0 LINE SMOOTH",
"977 0 OFFCURVE",
"1001 16 OFFCURVE",
"1012 51 CURVE SMOOTH",
"1487 1460 LINE SMOOTH",
"1497 1491 OFFCURVE",
"1481 1520 OFFCURVE",
"1448 1520 CURVE SMOOTH"
);
}
);
};
guideLines = (
{
angle = -108.62;
position = "{384, 211}";
}
);
layerId = "258ED206-D907-4350-8EBA-CBDDA1C16BF7";
paths = (
{
closed = 1;
nodes = (
"870 0 LINE",
"1593 1481 LINE",
"1218 1481 LINE",
"725 467 LINE",
"537 1481 LINE",
"164 1481 LINE",
"436 0 LINE"
);
}
);
width = 1489;
},
{
background = {
paths = (
{
closed = 1;
nodes = (
"1153 1520 LINE SMOOTH",
"1141 1520 OFFCURVE",
"1135 1516 OFFCURVE",
"1131 1505 CURVE SMOOTH",
"631 133 LINE SMOOTH",
"621 104 OFFCURVE",
"608 104 OFFCURVE",
"598 131 CURVE SMOOTH",
"113 1503 LINE SMOOTH",
"109 1516 OFFCURVE",
"103 1520 OFFCURVE",
"86 1520 CURVE SMOOTH",
"39 1520 LINE SMOOTH",
"25 1520 OFFCURVE",
"19 1511 OFFCURVE",
"23 1499 CURVE SMOOTH",
"545 20 LINE SMOOTH",
"549 6 OFFCURVE",
"561 0 OFFCURVE",
"584 0 CURVE SMOOTH",
"649 0 LINE SMOOTH",
"668 0 OFFCURVE",
"676 6 OFFCURVE",
"682 23 CURVE SMOOTH",
"1219 1501 LINE SMOOTH",
"1223 1511 OFFCURVE",
"1217 1520 OFFCURVE",
"1204 1520 CURVE SMOOTH"
);
}
);
};
layerId = "91AB5BCA-6A50-42DA-B2F7-8181BF189245";
paths = (
{
closed = 1;
nodes = (
"547 0 LINE",
"1249 1481 LINE",
"1170 1481 LINE",
"504 84 LINE",
"244 1481 LINE",
"164 1481 LINE",
"438 0 LINE"
);
}
);
width = 1145;
}
);
leftKerningGroup = V;
leftMetricsKey = T;
rightKerningGroup = V;
rightMetricsKey = T;
unicode = 0056;
},
{
glyphname = W;
lastChange = "2019-05-31 16:36:05 +0000";
layers = (
{
anchors = (
{
name = top;
position = "{1132, 1481}";
}
);
background = {
anchors = (
{
name = top;
position = "{1077, 1520}";
}
);
paths = (
{
closed = 1;
nodes = (
"1855 1520 LINE SMOOTH",
"1812 1520 OFFCURVE",
"1796 1503 OFFCURVE",
"1790 1477 CURVE SMOOTH",
"1581 694 LINE SMOOTH",
"1577 678 OFFCURVE",
"1563 682 OFFCURVE",
"1558 698 CURVE SMOOTH",
"1333 1477 LINE SMOOTH",
"1325 1503 OFFCURVE",
"1311 1520 OFFCURVE",
"1268 1520 CURVE SMOOTH",
"981 1520 LINE SMOOTH",
"938 1520 OFFCURVE",
"922 1503 OFFCURVE",
"915 1477 CURVE SMOOTH",
"700 709 LINE SMOOTH",
"694 686 OFFCURVE",
"684 686 OFFCURVE",
"676 717 CURVE SMOOTH",
"459 1477 LINE SMOOTH",
"450 1503 OFFCURVE",
"436 1520 OFFCURVE",
"393 1520 CURVE SMOOTH",
"55 1520 LINE SMOOTH",
"2 1520 OFFCURVE",
"-19 1485 OFFCURVE",
"-6 1438 CURVE SMOOTH",
"412 51 LINE SMOOTH",
"424 16 OFFCURVE",
"444 0 OFFCURVE",
"485 0 CURVE SMOOTH",
"778 0 LINE SMOOTH",
"821 0 OFFCURVE",
"842 16 OFFCURVE",
"852 51 CURVE SMOOTH",
"1063 768 LINE SMOOTH",
"1077 809 OFFCURVE",
"1087 805 OFFCURVE",
"1096 772 CURVE SMOOTH",
"1309 51 LINE SMOOTH",
"1319 16 OFFCURVE",
"1341 0 OFFCURVE",
"1382 0 CURVE SMOOTH",
"1665 0 LINE SMOOTH",
"1706 0 OFFCURVE",
"1726 16 OFFCURVE",
"1739 51 CURVE SMOOTH",
"2154 1438 LINE SMOOTH",
"2167 1485 OFFCURVE",
"2146 1520 OFFCURVE",
"2093 1520 CURVE SMOOTH"
);
}
);
};
guideLines = (
{
angle = -73.94;
position = "{227, 670}";
},
{
angle = 74.3834;
position = "{430, 670}";
}
);
layerId = "258ED206-D907-4350-8EBA-CBDDA1C16BF7";
paths = (
{
closed = 1;
nodes = (
"674 0 LINE",
"1030 805 LINE",
"1141 0 LINE",
"1436 0 LINE",
"2101 1481 LINE",
"1718 1481 LINE",
"1378 686 LINE",
"1270 1481 LINE",
"993 1481 LINE",
"653 686 LINE",
"547 1481 LINE",
"164 1481 LINE",
"383 0 LINE"
);
}
);
width = 1997;
},
{
anchors = (
{
name = top;
position = "{1026, 1481}";
}
);
background = {
anchors = (
{
name = top;
position = "{960, 1520}";
}
);
guideLines = (
{
position = "{3, 125}";
showMeasurement = 1;
}
);
paths = (
{
closed = 1;
nodes = (
"1824 1520 LINE SMOOTH",
"1812 1520 OFFCURVE",
"1802 1516 OFFCURVE",
"1800 1505 CURVE SMOOTH",
"1413 147 LINE SMOOTH",
"1404 119 OFFCURVE",
"1396 119 OFFCURVE",
"1388 145 CURVE SMOOTH",
"1009 1503 LINE SMOOTH",
"1005 1516 OFFCURVE",
"1001 1520 OFFCURVE",
"985 1520 CURVE SMOOTH",
"933 1520 LINE SMOOTH",
"915 1520 OFFCURVE",
"909 1511 OFFCURVE",
"907 1505 CURVE SMOOTH",
"520 147 LINE SMOOTH",
"511 119 OFFCURVE",
"503 119 OFFCURVE",
"495 145 CURVE SMOOTH",
"116 1503 LINE SMOOTH",
"112 1516 OFFCURVE",
"108 1520 OFFCURVE",
"92 1520 CURVE SMOOTH",
"40 1520 LINE SMOOTH",
"26 1520 OFFCURVE",
"20 1511 OFFCURVE",
"24 1499 CURVE SMOOTH",
"438 20 LINE SMOOTH",
"442 6 OFFCURVE",
"454 0 OFFCURVE",
"475 0 CURVE SMOOTH",
"540 0 LINE SMOOTH",
"561 0 OFFCURVE",
"569 6 OFFCURVE",
"573 23 CURVE SMOOTH",
"952 1348 LINE SMOOTH",
"954 1356 OFFCURVE",
"958 1356 OFFCURVE",
"960 1348 CURVE SMOOTH",
"1331 20 LINE SMOOTH",
"1335 6 OFFCURVE",
"1347 0 OFFCURVE",
"1368 0 CURVE SMOOTH",
"1433 0 LINE SMOOTH",
"1454 0 OFFCURVE",
"1462 6 OFFCURVE",
"1466 23 CURVE SMOOTH",
"1890 1501 LINE SMOOTH",
"1892 1511 OFFCURVE",
"1888 1520 OFFCURVE",
"1875 1520 CURVE SMOOTH"
);
}
);
};
guideLines = (
{
position = "{76, 116}";
showMeasurement = 1;
}
);
layerId = "91AB5BCA-6A50-42DA-B2F7-8181BF189245";
leftMetricsKey = "=X/2";
rightMetricsKey = "=X/2";
paths = (
{
closed = 1;
nodes = (
"466 0 LINE",
"1001 1327 LINE",
"1157 0 LINE",
"1259 0 LINE",
"1859 1481 LINE",
"1779 1481 LINE",
"1224 100 LINE",
"1060 1481 LINE",
"987 1481 LINE",
"432 100 LINE",
"278 1481 LINE",
"194 1481 LINE",
"368 0 LINE"
);
}
);
width = 1785;
}
);
leftKerningGroup = W;
leftMetricsKey = X;
rightKerningGroup = W;
rightMetricsKey = X;
unicode = 0057;
},
{
glyphname = X;
lastChange = "2019-05-31 16:36:28 +0000";
layers = (
{
background = {
paths = (
{
closed = 1;
nodes = (
"1029 825 LINE",
"1484 1520 LINE",
"1039 1520 LINE",
"806 1108 LINE",
"572 1520 LINE",
"50 1520 LINE",
"534 766 LINE",
"105 104 LINE SMOOTH",
"52 23 OFFCURVE",
"75 0 OFFCURVE",
"132 0 CURVE SMOOTH",
"488 0 LINE",
"761 477 LINE",
"1039 0 LINE",
"1469 0 LINE SMOOTH",
"1527 0 OFFCURVE",
"1549 25 OFFCURVE",
"1498 104 CURVE SMOOTH"
);
}
);
};
layerId = "258ED206-D907-4350-8EBA-CBDDA1C16BF7";
paths = (
{
closed = 1;
nodes = (
"378 0 LINE",
"712 465 LINE",
"912 0 LINE",
"1406 0 LINE",
"1011 805 LINE",
"1551 1481 LINE",
"1138 1481 LINE",
"851 1079 LINE",
"683 1481 LINE",
"194 1481 LINE",
"550 748 LINE",
"-44 0 LINE"
);
}
);
width = 1510;
},
{
background = {
guideLines = (
{
angle = 90;
position = "{95, 437}";
},
{
angle = 90;
position = "{606, 372}";
},
{
position = "{61, 716}";
showMeasurement = 1;
},
{
position = "{55, 32}";
showMeasurement = 1;
},
{
position = "{125, 454}";
showMeasurement = 1;
},
{
position = "{123, 290}";
showMeasurement = 1;
},
{
angle = 236.602;
position = "{338, 374}";
},
{
angle = 123.344;
position = "{395, 374}";
},
{
angle = 56.5817;
position = "{383, 370}";
},
{
angle = 123.4;
position = "{348, 370}";
}
);
paths = (
{
closed = 1;
nodes = (
"753 766 LINE SMOOTH",
"745 778 OFFCURVE",
"747 786 OFFCURVE",
"755 799 CURVE SMOOTH",
"1234 1507 LINE SMOOTH",
"1238 1513 OFFCURVE",
"1238 1520 OFFCURVE",
"1230 1520 CURVE SMOOTH",
"1146 1520 LINE SMOOTH",
"1138 1520 OFFCURVE",
"1134 1518 OFFCURVE",
"1130 1511 CURVE SMOOTH",
"706 883 LINE SMOOTH",
"691 862 OFFCURVE",
"683 864 OFFCURVE",
"671 881 CURVE SMOOTH",
"247 1511 LINE SMOOTH",
"243 1518 OFFCURVE",
"241 1520 OFFCURVE",
"228 1520 CURVE SMOOTH",
"149 1520 LINE SMOOTH",
"140 1520 OFFCURVE",
"138 1509 OFFCURVE",
"142 1503 CURVE SMOOTH",
"618 801 LINE SMOOTH",
"628 784 OFFCURVE",
"630 772 OFFCURVE",
"620 758 CURVE SMOOTH",
"124 20 LINE SMOOTH",
"114 4 OFFCURVE",
"118 0 OFFCURVE",
"130 0 CURVE SMOOTH",
"204 0 LINE SMOOTH",
"210 0 OFFCURVE",
"216 2 OFFCURVE",
"220 8 CURVE SMOOTH",
"665 664 LINE SMOOTH",
"685 694 OFFCURVE",
"693 692 OFFCURVE",
"708 670 CURVE SMOOTH",
"1158 8 LINE SMOOTH",
"1162 2 OFFCURVE",
"1164 0 OFFCURVE",
"1173 0 CURVE SMOOTH",
"1246 0 LINE SMOOTH",
"1259 0 OFFCURVE",
"1267 4 OFFCURVE",
"1254 20 CURVE SMOOTH"
);
}
);
};
guideLines = (
{
angle = 90;
position = "{166, 405}";
},
{
angle = 90;
position = "{616, 345}";
},
{
position = "{136, 664}";
showMeasurement = 1;
},
{
position = "{131, 29}";
showMeasurement = 1;
},
{
position = "{192, 421}";
showMeasurement = 1;
},
{
position = "{190, 269}";
showMeasurement = 1;
},
{
angle = 236.602;
position = "{380, 347}";
},
{
angle = 123.344;
position = "{429, 347}";
},
{
angle = 56.5817;
position = "{420, 343}";
},
{
angle = 123.4;
position = "{388, 343}";
}
);
layerId = "91AB5BCA-6A50-42DA-B2F7-8181BF189245";
paths = (
{
closed = 1;
nodes = (
"140 0 LINE",
"663 680 LINE",
"992 0 LINE",
"1087 0 LINE",
"720 760 LINE",
"1271 1481 LINE",
"1177 1481 LINE",
"683 836 LINE",
"374 1481 LINE",
"276 1481 LINE",
"624 760 LINE",
"46 0 LINE"
);
}
);
width = 1281;
}
);
leftKerningGroup = X;
rightKerningGroup = X;
unicode = 0058;
},
{
glyphname = Y;
lastChange = "2019-05-31 16:36:05 +0000";
layers = (
{
anchors = (
{
name = bottom;
position = "{642, 0}";
},
{
name = top;
position = "{849, 1481}";
}
);
background = {
anchors = (
{
name = top;
position = "{812, 1520}";
}
);
paths = (
{
closed = 1;
nodes = (
"1167 1520 LINE SMOOTH",
"1128 1520 OFFCURVE",
"1113 1511 OFFCURVE",
"1097 1477 CURVE SMOOTH",
"849 1020 LINE SMOOTH",
"835 995 OFFCURVE",
"827 997 OFFCURVE",
"814 1022 CURVE SMOOTH",
"562 1477 LINE SMOOTH",
"544 1509 OFFCURVE",
"534 1520 OFFCURVE",
"493 1520 CURVE SMOOTH",
"81 1520 LINE SMOOTH",
"38 1520 OFFCURVE",
"24 1495 OFFCURVE",
"44 1462 CURVE SMOOTH",
"524 680 LINE SMOOTH",
"542 649 OFFCURVE",
"552 633 OFFCURVE",
"552 590 CURVE SMOOTH",
"552 51 LINE SMOOTH",
"552 16 OFFCURVE",
"565 0 OFFCURVE",
"605 0 CURVE SMOOTH",
"950 0 LINE SMOOTH",
"997 0 OFFCURVE",
"1017 16 OFFCURVE",
"1017 59 CURVE SMOOTH",
"1017 563 LINE SMOOTH",
"1017 649 OFFCURVE",
"1019 670 OFFCURVE",
"1038 698 CURVE SMOOTH",
"1517 1473 LINE SMOOTH",
"1533 1499 OFFCURVE",
"1523 1520 OFFCURVE",
"1488 1520 CURVE SMOOTH"
);
}
);
};
guideLines = (
{
angle = 58.823;
position = "{507, 670}";
}
);
layerId = "258ED206-D907-4350-8EBA-CBDDA1C16BF7";
leftMetricsKey = "=X/2";
rightMetricsKey = "=X/2";
paths = (
{
closed = 1;
nodes = (
"839 0 LINE",
"933 616 LINE",
"1589 1481 LINE",
"1156 1481 LINE",
"788 954 LINE",
"577 1481 LINE",
"149 1481 LINE",
"536 616 LINE",
"444 0 LINE"
);
}
);
width = 1470;
},
{
anchors = (
{
name = bottom;
position = "{449, 0}";
},
{
name = top;
position = "{653, 1485}";
}
);
background = {
anchors = (
{
name = top;
position = "{557, 1520}";
}
);
paths = (
{
closed = 1;
nodes = (
"1053 1520 LINE SMOOTH",
"1034 1520 OFFCURVE",
"1030 1518 OFFCURVE",
"1020 1501 CURVE SMOOTH",
"592 766 LINE SMOOTH",
"576 739 OFFCURVE",
"561 737 OFFCURVE",
"543 770 CURVE SMOOTH",
"113 1501 LINE SMOOTH",
"105 1516 OFFCURVE",
"98 1520 OFFCURVE",
"80 1520 CURVE SMOOTH",
"33 1520 LINE SMOOTH",
"12 1520 OFFCURVE",
"8 1509 OFFCURVE",
"17 1495 CURVE SMOOTH",
"516 645 LINE SMOOTH",
"524 631 OFFCURVE",
"527 625 OFFCURVE",
"527 604 CURVE SMOOTH",
"527 23 LINE SMOOTH",
"527 8 OFFCURVE",
"533 0 OFFCURVE",
"551 0 CURVE SMOOTH",
"590 0 LINE SMOOTH",
"613 0 OFFCURVE",
"621 8 OFFCURVE",
"621 27 CURVE SMOOTH",
"621 627 LINE SMOOTH",
"621 647 OFFCURVE",
"621 655 OFFCURVE",
"629 668 CURVE SMOOTH",
"1118 1497 LINE SMOOTH",
"1127 1509 OFFCURVE",
"1120 1520 OFFCURVE",
"1106 1520 CURVE SMOOTH"
);
}
);
};
guideLines = (
{
angle = 239.8907;
position = "{232, 335}";
},
{
angle = -59.5603;
position = "{197, 328}";
}
);
layerId = "91AB5BCA-6A50-42DA-B2F7-8181BF189245";
paths = (
{
closed = 1;
nodes = (
"484 0 LINE",
"574 637 LINE",
"1141 1481 LINE",
"1059 1481 LINE",
"549 719 LINE",
"246 1481 LINE",
"164 1481 LINE",
"500 639 LINE",
"412 0 LINE"
);
}
);
width = 1037;
}
);
leftKerningGroup = Y;
leftMetricsKey = "=X/4";
rightKerningGroup = Y;
rightMetricsKey = "=X/4";
unicode = 0059;
},
{
glyphname = Z;
lastChange = "2019-05-31 16:36:05 +0000";
layers = (
{
anchors = (
{
name = bottom;
position = "{656, 0}";
},
{
name = top;
position = "{928, 1481}";
}
);
background = {
anchors = (
{
name = bottom;
position = "{764, 0}";
},
{
name = top;
position = "{813, 1520}";
}
);
paths = (
{
closed = 1;
nodes = (
"1440 0 LINE",
"1440 340 LINE",
"742 340 LINE",
"1452 1339 LINE",
"1452 1520 LINE",
"174 1520 LINE",
"174 1182 LINE",
"803 1182 LINE",
"107 186 LINE",
"107 0 LINE"
);
}
);
};
layerId = "258ED206-D907-4350-8EBA-CBDDA1C16BF7";
paths = (
{
closed = 1;
nodes = (
"1270 0 LINE",
"1321 332 LINE",
"625 332 LINE",
"1481 1307 LINE",
"1508 1481 LINE",
"310 1481 LINE",
"258 1153 LINE",
"887 1153 LINE",
"47 182 LINE",
"19 0 LINE"
);
}
);
width = 1444;
},
{
anchors = (
{
name = bottom;
position = "{547, 0}";
},
{
name = top;
position = "{741, 1481}";
}
);
background = {
anchors = (
{
name = bottom;
position = "{672, 0}";
},
{
name = top;
position = "{658, 1520}";
}
);
paths = (
{
closed = 1;
nodes = (
"1147 0 LINE",
"1147 82 LINE",
"258 82 LINE",
"1147 1464 LINE",
"1147 1520 LINE",
"166 1520 LINE",
"166 1438 LINE",
"1028 1438 LINE",
"146 57 LINE",
"146 0 LINE"
);
}
);
};
guideLines = (
{
angle = 237.1304;
position = "{495, 659}";
}
);
layerId = "91AB5BCA-6A50-42DA-B2F7-8181BF189245";
paths = (
{
closed = 1;
nodes = (
"973 0 LINE",
"985 80 LINE",
"180 80 LINE",
"1174 1419 LINE",
"1182 1481 LINE",
"301 1481 LINE",
"291 1401 LINE",
"1073 1401 LINE",
"86 63 LINE",
"76 0 LINE"
);
}
);
width = 1162;
}
);
leftKerningGroup = Z;
leftMetricsKey = "=H/1.5";
rightKerningGroup = Z;
rightMetricsKey = "=H/2";
unicode = 005A;
},
{
glyphname = a;
lastChange = "2019-06-06 16:40:10 +0000";
layers = (
{
anchors = (
{
name = bottom;
position = "{519, 0}";
},
{
name = ogonek;
position = "{943, 20}";
},
{
name = top;
position = "{683, 1059}";
}
);
background = {
anchors = (
{
name = ogonek;
position = "{1011, 20}";
},
{
name = top;
position = "{576, 1085}";
}
);
guideLines = (
{
angle = 90;
position = "{335, 102}";
}
);
paths = (
{
closed = 1;
nodes = (
"664 115 OFFCURVE",
"681 113 OFFCURVE",
"685 86 CURVE SMOOTH",
"687 72 LINE SMOOTH",
"693 33 OFFCURVE",
"703 0 OFFCURVE",
"740 0 CURVE SMOOTH",
"1021 0 LINE SMOOTH",
"1060 0 OFFCURVE",
"1068 14 OFFCURVE",
"1068 55 CURVE SMOOTH",
"1068 768 LINE SMOOTH",
"1068 969 OFFCURVE",
"955 1106 OFFCURVE",
"576 1106 CURVE SMOOTH",
"308 1106 OFFCURVE",
"122 1036 OFFCURVE",
"60 862 CURVE SMOOTH",
"42 811 OFFCURVE",
"54 801 OFFCURVE",
"75 797 CURVE SMOOTH",
"343 743 LINE SMOOTH",
"380 737 OFFCURVE",
"388 743 OFFCURVE",
"398 766 CURVE SMOOTH",
"433 842 OFFCURVE",
"501 862 OFFCURVE",
"558 862 CURVE SMOOTH",
"640 862 OFFCURVE",
"679 819 OFFCURVE",
"679 743 CURVE SMOOTH",
"679 709 LINE SMOOTH",
"679 684 OFFCURVE",
"658 680 OFFCURVE",
"648 680 CURVE SMOOTH",
"634 680 LINE SMOOTH",
"247 680 OFFCURVE",
"5 518 OFFCURVE",
"5 279 CURVE SMOOTH",
"5 109 OFFCURVE",
"128 -20 OFFCURVE",
"333 -20 CURVE SMOOTH",
"460 -20 OFFCURVE",
"556 25 OFFCURVE",
"630 86 CURVE SMOOTH"
);
},
{
closed = 1;
nodes = (
"679 350 LINE SMOOTH",
"679 319 OFFCURVE",
"656 297 OFFCURVE",
"632 276 CURVE SMOOTH",
"609 258 OFFCURVE",
"572 238 OFFCURVE",
"519 238 CURVE SMOOTH",
"445 238 OFFCURVE",
"402 276 OFFCURVE",
"402 334 CURVE SMOOTH",
"402 449 OFFCURVE",
"574 496 OFFCURVE",
"640 496 CURVE SMOOTH",
"648 496 LINE SMOOTH",
"673 496 OFFCURVE",
"679 483 OFFCURVE",
"679 459 CURVE SMOOTH"
);
}
);
};
guideLines = (
{
angle = 270;
position = "{332, 93}";
},
{
angle = 270;
position = "{297, 516}";
}
);
layerId = "258ED206-D907-4350-8EBA-CBDDA1C16BF7";
paths = (
{
closed = 1;
nodes = (
"480 -20 OFFCURVE",
"574 25 OFFCURVE",
"660 168 CURVE",
"669 0 LINE",
"996 0 LINE",
"1111 750 LINE SMOOTH",
"1140 944 OFFCURVE",
"1049 1079 OFFCURVE",
"685 1079 CURVE SMOOTH",
"413 1079 OFFCURVE",
"179 979 OFFCURVE",
"128 729 CURVE",
"449 729 LINE",
"492 801 OFFCURVE",
"572 819 OFFCURVE",
"628 821 CURVE SMOOTH",
"705 823 OFFCURVE",
"738 793 OFFCURVE",
"728 725 CURVE SMOOTH",
"722 680 LINE",
"640 680 LINE SMOOTH",
"257 680 OFFCURVE",
"60 547 OFFCURVE",
"25 317 CURVE SMOOTH",
"-7 98 OFFCURVE",
"138 -20 OFFCURVE",
"339 -20 CURVE SMOOTH"
);
},
{
closed = 1;
nodes = (
"447 231 OFFCURVE",
"392 279 OFFCURVE",
"404 358 CURVE SMOOTH",
"419 463 OFFCURVE",
"566 492 OFFCURVE",
"630 492 CURVE SMOOTH",
"693 492 LINE",
"673 358 LINE",
"660 291 OFFCURVE",
"593 231 OFFCURVE",
"515 231 CURVE SMOOTH"
);
}
);
width = 1188;
},
{
anchors = (
{
name = bottom;
position = "{461, 0}";
},
{
name = ogonek;
position = "{803, 29}";
},
{
name = top;
position = "{608, 1059}";
}
);
background = {
anchors = (
{
name = ogonek;
position = "{932, 29}";
},
{
name = top;
position = "{553, 1085}";
}
);
paths = (
{
closed = 1;
nodes = (
"854 160 OFFCURVE",
"862 158 OFFCURVE",
"864 143 CURVE SMOOTH",
"868 18 LINE SMOOTH",
"868 4 OFFCURVE",
"874 0 OFFCURVE",
"887 0 CURVE SMOOTH",
"924 0 LINE SMOOTH",
"936 0 OFFCURVE",
"944 4 OFFCURVE",
"944 20 CURVE SMOOTH",
"944 752 LINE SMOOTH",
"944 973 OFFCURVE",
"793 1106 OFFCURVE",
"561 1106 CURVE SMOOTH",
"367 1106 OFFCURVE",
"229 1010 OFFCURVE",
"143 883 CURVE SMOOTH",
"135 872 OFFCURVE",
"137 866 OFFCURVE",
"143 862 CURVE SMOOTH",
"193 831 LINE SMOOTH",
"201 825 OFFCURVE",
"205 829 OFFCURVE",
"213 840 CURVE SMOOTH",
"305 963 OFFCURVE",
"416 1028 OFFCURVE",
"557 1028 CURVE SMOOTH",
"741 1028 OFFCURVE",
"862 918 OFFCURVE",
"862 743 CURVE SMOOTH",
"862 680 LINE SMOOTH",
"862 662 OFFCURVE",
"850 651 OFFCURVE",
"827 649 CURVE SMOOTH",
"612 631 LINE SMOOTH",
"276 602 OFFCURVE",
"106 483 OFFCURVE",
"106 276 CURVE SMOOTH",
"106 92 OFFCURVE",
"240 -20 OFFCURVE",
"455 -20 CURVE SMOOTH",
"606 -20 OFFCURVE",
"731 35 OFFCURVE",
"844 147 CURVE SMOOTH"
);
},
{
closed = 1;
nodes = (
"862 350 LINE SMOOTH",
"862 289 OFFCURVE",
"821 219 OFFCURVE",
"745 158 CURVE SMOOTH",
"668 96 OFFCURVE",
"567 57 OFFCURVE",
"467 57 CURVE SMOOTH",
"301 57 OFFCURVE",
"193 141 OFFCURVE",
"193 283 CURVE SMOOTH",
"193 440 OFFCURVE",
"330 535 OFFCURVE",
"651 559 CURVE SMOOTH",
"834 573 LINE SMOOTH",
"852 575 OFFCURVE",
"862 567 OFFCURVE",
"862 545 CURVE SMOOTH"
);
}
);
};
guideLines = (
{
position = "{372, 208}";
showMeasurement = 1;
}
);
hints = (
{
horizontal = 1;
place = "{7186, 309}";
type = Stem;
}
);
layerId = "91AB5BCA-6A50-42DA-B2F7-8181BF189245";
paths = (
{
closed = 1;
nodes = (
"512 -20 OFFCURVE",
"657 29 OFFCURVE",
"768 205 CURVE",
"743 0 LINE",
"811 0 LINE",
"913 733 LINE SMOOTH",
"944 948 OFFCURVE",
"817 1079 OFFCURVE",
"610 1079 CURVE SMOOTH",
"383 1079 OFFCURVE",
"238 926 OFFCURVE",
"207 776 CURVE",
"287 776 LINE",
"328 922 OFFCURVE",
"455 1001 OFFCURVE",
"596 1001 CURVE SMOOTH",
"762 1001 OFFCURVE",
"864 901 OFFCURVE",
"840 731 CURVE SMOOTH",
"825 629 LINE",
"600 621 LINE SMOOTH",
"274 608 OFFCURVE",
"129 508 OFFCURVE",
"96 270 CURVE SMOOTH",
"72 90 OFFCURVE",
"176 -20 OFFCURVE",
"369 -20 CURVE SMOOTH"
);
},
{
closed = 1;
nodes = (
"242 55 OFFCURVE",
"156 137 OFFCURVE",
"174 276 CURVE SMOOTH",
"201 461 OFFCURVE",
"313 539 OFFCURVE",
"625 545 CURVE SMOOTH",
"813 549 LINE",
"784 342 LINE SMOOTH",
"764 199 OFFCURVE",
"553 55 OFFCURVE",
"391 55 CURVE SMOOTH"
);
}
);
width = 1089;
}
);
leftKerningGroup = a;
leftMetricsKey = "=|o*1.1";
rightKerningGroup = n;
rightMetricsKey = "=n*1.2";
unicode = 0061;
},
{
glyphname = ae;
lastChange = "2019-06-06 16:49:16 +0000";
layers = (
{
anchors = (
{
name = top;
position = "{1009, 1059}";
}
);
background = {
anchors = (
{
name = top;
position = "{912, 1085}";
}
);
paths = (
{
closed = 1;
nodes = (
"1777 469 LINE SMOOTH",
"1811 471 OFFCURVE",
"1813 485 OFFCURVE",
"1813 520 CURVE SMOOTH",
"1813 891 OFFCURVE",
"1578 1106 OFFCURVE",
"1256 1106 CURVE SMOOTH",
"1150 1106 OFFCURVE",
"1047 1077 OFFCURVE",
"959 1024 CURVE",
"882 1075 OFFCURVE",
"761 1104 OFFCURVE",
"578 1106 CURVE SMOOTH",
"265 1106 OFFCURVE",
"148 1022 OFFCURVE",
"71 862 CURVE SMOOTH",
"60 840 OFFCURVE",
"66 801 OFFCURVE",
"85 797 CURVE SMOOTH",
"353 743 LINE SMOOTH",
"390 737 OFFCURVE",
"398 739 OFFCURVE",
"408 766 CURVE",
"443 842 OFFCURVE",
"511 862 OFFCURVE",
"568 862 CURVE SMOOTH",
"650 862 OFFCURVE",
"689 819 OFFCURVE",
"689 743 CURVE SMOOTH",
"689 709 LINE SMOOTH",
"689 684 OFFCURVE",
"669 680 OFFCURVE",
"652 680 CURVE",
"605 678 LINE SMOOTH",
"212 659 OFFCURVE",
"15 512 OFFCURVE",
"15 293 CURVE SMOOTH",
"15 106 OFFCURVE",
"138 -20 OFFCURVE",
"370 -20 CURVE SMOOTH",
"558 -20 OFFCURVE",
"691 25 OFFCURVE",
"816 145 CURVE SMOOTH",
"824 154 OFFCURVE",
"830 154 OFFCURVE",
"839 145 CURVE SMOOTH",
"941 41 OFFCURVE",
"1092 -20 OFFCURVE",
"1265 -20 CURVE SMOOTH",
"1494 -20 OFFCURVE",
"1633 35 OFFCURVE",
"1781 242 CURVE",
"1799 264 OFFCURVE",
"1793 283 OFFCURVE",
"1772 291 CURVE SMOOTH",
"1586 367 LINE SMOOTH",
"1559 377 OFFCURVE",
"1553 375 OFFCURVE",
"1543 365 CURVE SMOOTH",
"1453 276 OFFCURVE",
"1389 250 OFFCURVE",
"1320 250 CURVE SMOOTH",
"1201 250 OFFCURVE",
"1109 309 OFFCURVE",
"1109 434 CURVE SMOOTH",
"1109 459 OFFCURVE",
"1119 469 OFFCURVE",
"1140 469 CURVE SMOOTH"
);
},
{
closed = 1;
nodes = (
"1377 866 OFFCURVE",
"1416 762 OFFCURVE",
"1416 709 CURVE SMOOTH",
"1416 684 OFFCURVE",
"1408 680 OFFCURVE",
"1381 680 CURVE SMOOTH",
"1115 682 LINE",
"1113 809 OFFCURVE",
"1191 866 OFFCURVE",
"1275 866 CURVE SMOOTH"
);
},
{
closed = 1;
nodes = (
"689 328 LINE SMOOTH",
"689 260 OFFCURVE",
"613 221 OFFCURVE",
"535 221 CURVE SMOOTH",
"456 221 OFFCURVE",
"413 260 OFFCURVE",
"413 319 CURVE SMOOTH",
"413 420 OFFCURVE",
"546 471 OFFCURVE",
"623 477 CURVE SMOOTH",
"652 479 LINE SMOOTH",
"677 479 OFFCURVE",
"689 467 OFFCURVE",
"689 442 CURVE SMOOTH"
);
}
);
};
layerId = "258ED206-D907-4350-8EBA-CBDDA1C16BF7";
paths = (
{
closed = 1;
nodes = (
"503 -20 OFFCURVE",
"638 25 OFFCURVE",
"777 141 CURVE SMOOTH",
"785 150 OFFCURVE",
"791 150 OFFCURVE",
"798 141 CURVE SMOOTH",
"882 41 OFFCURVE",
"1019 -20 OFFCURVE",
"1187 -20 CURVE SMOOTH",
"1418 -20 OFFCURVE",
"1570 41 OFFCURVE",
"1756 270 CURVE",
"1531 369 LINE",
"1422 274 OFFCURVE",
"1353 244 OFFCURVE",
"1279 244 CURVE SMOOTH",
"1166 244 OFFCURVE",
"1086 311 OFFCURVE",
"1109 457 CURVE",
"1791 457 LINE",
"1850 850 OFFCURVE",
"1656 1079 OFFCURVE",
"1344 1079 CURVE SMOOTH",
"1244 1079 OFFCURVE",
"1140 1051 OFFCURVE",
"1045 999 CURVE",
"978 1049 OFFCURVE",
"865 1077 OFFCURVE",
"689 1079 CURVE SMOOTH",
"372 1079 OFFCURVE",
"232 977 OFFCURVE",
"124 784 CURVE",
"456 717 LINE",
"507 815 OFFCURVE",
"583 840 OFFCURVE",
"644 840 CURVE SMOOTH",
"724 840 OFFCURVE",
"753 799 OFFCURVE",
"742 725 CURVE SMOOTH",
"734 666 LINE",
"650 662 LINE SMOOTH",
"267 643 OFFCURVE",
"54 500 OFFCURVE",
"21 285 CURVE SMOOTH",
"-5 104 OFFCURVE",
"95 -20 OFFCURVE",
"320 -20 CURVE SMOOTH"
);
},
{
closed = 1;
nodes = (
"439 215 OFFCURVE",
"404 254 OFFCURVE",
"413 311 CURVE SMOOTH",
"427 410 OFFCURVE",
"564 459 OFFCURVE",
"640 465 CURVE SMOOTH",
"703 469 LINE",
"681 319 LINE SMOOTH",
"671 254 OFFCURVE",
"591 215 OFFCURVE",
"517 215 CURVE SMOOTH"
);
},
{
closed = 1;
nodes = (
"1146 666 LINE",
"1162 788 OFFCURVE",
"1246 844 OFFCURVE",
"1328 844 CURVE SMOOTH",
"1428 844 OFFCURVE",
"1447 725 OFFCURVE",
"1437 664 CURVE"
);
}
);
width = 1856;
},
{
anchors = (
{
name = top;
position = "{934, 1059}";
}
);
background = {
anchors = (
{
name = top;
position = "{901, 1085}";
}
);
paths = (
{
closed = 1;
nodes = (
"1741 520 LINE SMOOTH",
"1769 520 OFFCURVE",
"1778 535 OFFCURVE",
"1778 561 CURVE SMOOTH",
"1778 909 OFFCURVE",
"1589 1106 OFFCURVE",
"1309 1106 CURVE SMOOTH",
"1116 1106 OFFCURVE",
"969 1024 OFFCURVE",
"887 862 CURVE",
"846 1026 OFFCURVE",
"731 1106 OFFCURVE",
"528 1106 CURVE SMOOTH",
"354 1106 OFFCURVE",
"197 1024 OFFCURVE",
"109 883 CURVE SMOOTH",
"102 872 OFFCURVE",
"102 866 OFFCURVE",
"109 862 CURVE SMOOTH",
"154 831 LINE SMOOTH",
"162 825 OFFCURVE",
"166 827 OFFCURVE",
"176 840 CURVE SMOOTH",
"270 963 OFFCURVE",
"381 1028 OFFCURVE",
"512 1028 CURVE SMOOTH",
"717 1028 OFFCURVE",
"827 918 OFFCURVE",
"827 743 CURVE SMOOTH",
"827 680 LINE SMOOTH",
"827 662 OFFCURVE",
"815 651 OFFCURVE",
"791 649 CURVE SMOOTH",
"561 631 LINE SMOOTH",
"227 602 OFFCURVE",
"72 479 OFFCURVE",
"72 279 CURVE SMOOTH",
"72 92 OFFCURVE",
"199 -20 OFFCURVE",
"412 -20 CURVE SMOOTH",
"680 -20 OFFCURVE",
"799 127 OFFCURVE",
"872 221 CURVE SMOOTH",
"877 227 OFFCURVE",
"879 227 OFFCURVE",
"883 221 CURVE SMOOTH",
"942 133 OFFCURVE",
"1053 -20 OFFCURVE",
"1303 -20 CURVE SMOOTH",
"1501 -20 OFFCURVE",
"1667 76 OFFCURVE",
"1737 205 CURVE SMOOTH",
"1743 217 OFFCURVE",
"1741 221 OFFCURVE",
"1735 225 CURVE SMOOTH",
"1690 256 LINE SMOOTH",
"1679 262 OFFCURVE",
"1677 260 OFFCURVE",
"1667 248 CURVE SMOOTH",
"1608 166 OFFCURVE",
"1520 57 OFFCURVE",
"1307 57 CURVE SMOOTH",
"1077 57 OFFCURVE",
"897 274 OFFCURVE",
"897 467 CURVE SMOOTH",
"897 510 OFFCURVE",
"903 518 OFFCURVE",
"938 518 CURVE SMOOTH"
);
},
{
closed = 1;
nodes = (
"1528 1028 OFFCURVE",
"1690 848 OFFCURVE",
"1690 627 CURVE SMOOTH",
"1690 602 OFFCURVE",
"1688 594 OFFCURVE",
"1655 594 CURVE SMOOTH",
"901 596 LINE",
"903 856 OFFCURVE",
"1077 1028 OFFCURVE",
"1303 1028 CURVE SMOOTH"
);
},
{
closed = 1;
nodes = (
"827 362 LINE",
"827 203 OFFCURVE",
"651 70 OFFCURVE",
"432 59 CURVE SMOOTH",
"260 51 OFFCURVE",
"160 145 OFFCURVE",
"160 283 CURVE SMOOTH",
"160 440 OFFCURVE",
"295 532 OFFCURVE",
"602 557 CURVE SMOOTH",
"797 571 LINE SMOOTH",
"823 573 OFFCURVE",
"827 563 OFFCURVE",
"827 543 CURVE SMOOTH"
);
}
);
};
hints = (
{
horizontal = 1;
place = "{7221, 344}";
type = Stem;
}
);
layerId = "91AB5BCA-6A50-42DA-B2F7-8181BF189245";
paths = (
{
closed = 1;
nodes = (
"602 -20 OFFCURVE",
"729 123 OFFCURVE",
"807 215 CURVE SMOOTH",
"813 221 OFFCURVE",
"815 221 OFFCURVE",
"817 215 CURVE SMOOTH",
"858 129 OFFCURVE",
"934 -20 OFFCURVE",
"1159 -20 CURVE SMOOTH",
"1341 -20 OFFCURVE",
"1507 80 OFFCURVE",
"1589 213 CURVE",
"1538 258 LINE",
"1470 170 OFFCURVE",
"1372 55 OFFCURVE",
"1173 55 CURVE SMOOTH",
"969 55 OFFCURVE",
"840 293 OFFCURVE",
"868 506 CURVE",
"1661 508 LINE",
"1712 872 OFFCURVE",
"1571 1079 OFFCURVE",
"1319 1079 CURVE SMOOTH",
"1147 1079 OFFCURVE",
"1006 999 OFFCURVE",
"909 840 CURVE",
"893 999 OFFCURVE",
"801 1079 OFFCURVE",
"621 1079 CURVE SMOOTH",
"461 1079 OFFCURVE",
"305 993 OFFCURVE",
"203 846 CURVE",
"254 803 LINE",
"360 932 OFFCURVE",
"473 1001 OFFCURVE",
"594 1001 CURVE SMOOTH",
"778 1001 OFFCURVE",
"862 895 OFFCURVE",
"838 725 CURVE SMOOTH",
"825 635 LINE",
"584 614 LINE SMOOTH",
"283 588 OFFCURVE",
"123 467 OFFCURVE",
"96 272 CURVE SMOOTH",
"70 90 OFFCURVE",
"170 -20 OFFCURVE",
"360 -20 CURVE SMOOTH"
);
},
{
closed = 1;
nodes = (
"233 49 OFFCURVE",
"158 141 OFFCURVE",
"176 276 CURVE SMOOTH",
"197 430 OFFCURVE",
"332 520 OFFCURVE",
"610 543 CURVE SMOOTH",
"815 559 LINE",
"786 354 LINE",
"764 199 OFFCURVE",
"588 68 OFFCURVE",
"389 57 CURVE SMOOTH"
);
},
{
closed = 1;
nodes = (
"885 582 LINE",
"922 836 OFFCURVE",
"1102 1001 OFFCURVE",
"1303 1001 CURVE SMOOTH",
"1505 1001 OFFCURVE",
"1624 813 OFFCURVE",
"1591 580 CURVE"
);
}
);
width = 1796;
}
);
leftKerningGroup = a;
leftMetricsKey = a;
rightKerningGroup = e;
rightMetricsKey = e;
unicode = 00E6;
},
{
glyphname = b;
lastChange = "2019-05-31 16:36:05 +0000";
layers = (
{
background = {
paths = (
{
closed = 1;
nodes = (
"354 0 OFFCURVE",
"370 14 OFFCURVE",
"380 47 CURVE SMOOTH",
"413 143 LINE SMOOTH",
"419 160 OFFCURVE",
"427 162 OFFCURVE",
"440 150 CURVE SMOOTH",
"519 45 OFFCURVE",
"630 -20 OFFCURVE",
"759 -20 CURVE SMOOTH",
"1058 -20 OFFCURVE",
"1224 203 OFFCURVE",
"1224 551 CURVE SMOOTH",
"1224 893 OFFCURVE",
"1068 1106 OFFCURVE",
"802 1106 CURVE SMOOTH",
"710 1106 OFFCURVE",
"626 1079 OFFCURVE",
"542 999 CURVE SMOOTH",
"522 983 OFFCURVE",
"503 983 OFFCURVE",
"503 1016 CURVE SMOOTH",
"503 1477 LINE SMOOTH",
"503 1503 OFFCURVE",
"491 1520 OFFCURVE",
"466 1520 CURVE SMOOTH",
"132 1520 LINE SMOOTH",
"110 1520 OFFCURVE",
"93 1503 OFFCURVE",
"93 1473 CURVE SMOOTH",
"93 51 LINE SMOOTH",
"93 16 OFFCURVE",
"106 0 OFFCURVE",
"149 0 CURVE SMOOTH",
"327 0 LINE SMOOTH"
);
},
{
closed = 1;
nodes = (
"544 825 OFFCURVE",
"591 856 OFFCURVE",
"655 856 CURVE SMOOTH",
"755 856 OFFCURVE",
"810 780 OFFCURVE",
"810 543 CURVE SMOOTH",
"810 303 OFFCURVE",
"755 219 OFFCURVE",
"648 219 CURVE SMOOTH",
"562 219 OFFCURVE",
"503 276 OFFCURVE",
"503 379 CURVE SMOOTH",
"503 774 LINE"
);
}
);
};
layerId = "258ED206-D907-4350-8EBA-CBDDA1C16BF7";
paths = (
{
closed = 1;
nodes = (
"956 -20 OFFCURVE",
"1150 199 OFFCURVE",
"1201 537 CURVE SMOOTH",
"1253 870 OFFCURVE",
"1134 1079 OFFCURVE",
"874 1079 CURVE SMOOTH",
"771 1079 OFFCURVE",
"648 1028 OFFCURVE",
"558 899 CURVE",
"653 1522 LINE",
"255 1522 LINE",
"26 0 LINE",
"304 0 LINE",
"366 147 LINE",
"407 33 OFFCURVE",
"534 -20 OFFCURVE",
"665 -20 CURVE SMOOTH"
);
},
{
closed = 1;
nodes = (
"513 258 OFFCURVE",
"474 344 OFFCURVE",
"503 541 CURVE",
"503 541 LINE",
"532 723 OFFCURVE",
"599 799 OFFCURVE",
"689 799 CURVE SMOOTH",
"771 799 OFFCURVE",
"833 754 OFFCURVE",
"800 541 CURVE SMOOTH",
"769 328 OFFCURVE",
"696 258 OFFCURVE",
"601 258 CURVE"
);
}
);
width = 1250;
},
{
background = {
paths = (
{
closed = 1;
nodes = (
"262 0 OFFCURVE",
"268 6 OFFCURVE",
"268 27 CURVE SMOOTH",
"272 131 LINE SMOOTH",
"272 150 OFFCURVE",
"282 152 OFFCURVE",
"293 137 CURVE SMOOTH",
"317 102 OFFCURVE",
"420 -20 OFFCURVE",
"630 -20 CURVE SMOOTH",
"925 -20 OFFCURVE",
"1097 197 OFFCURVE",
"1097 547 CURVE SMOOTH",
"1097 852 OFFCURVE",
"966 1106 OFFCURVE",
"653 1106 CURVE SMOOTH",
"436 1106 OFFCURVE",
"321 987 OFFCURVE",
"301 969 CURVE SMOOTH",
"282 952 OFFCURVE",
"274 952 OFFCURVE",
"274 979 CURVE SMOOTH",
"274 1497 LINE SMOOTH",
"274 1513 OFFCURVE",
"270 1520 OFFCURVE",
"258 1520 CURVE SMOOTH",
"211 1520 LINE SMOOTH",
"198 1520 OFFCURVE",
"192 1513 OFFCURVE",
"192 1499 CURVE SMOOTH",
"192 27 LINE SMOOTH",
"192 6 OFFCURVE",
"198 0 OFFCURVE",
"215 0 CURVE SMOOTH",
"237 0 LINE SMOOTH"
);
},
{
closed = 1;
nodes = (
"356 948 OFFCURVE",
"487 1028 OFFCURVE",
"639 1028 CURVE SMOOTH",
"880 1028 OFFCURVE",
"1009 838 OFFCURVE",
"1009 547 CURVE SMOOTH",
"1009 211 OFFCURVE",
"835 57 OFFCURVE",
"622 57 CURVE SMOOTH",
"450 57 OFFCURVE",
"274 197 OFFCURVE",
"274 362 CURVE SMOOTH",
"274 850 LINE"
);
}
);
};
layerId = "91AB5BCA-6A50-42DA-B2F7-8181BF189245";
paths = (
{
closed = 1;
nodes = (
"792 -20 OFFCURVE",
"954 193 OFFCURVE",
"1003 532 CURVE SMOOTH",
"1044 831 OFFCURVE",
"960 1079 OFFCURVE",
"680 1079 CURVE SMOOTH",
"436 1079 OFFCURVE",
"336 905 OFFCURVE",
"311 860 CURVE",
"403 1522 LINE",
"329 1522 LINE",
"116 0 LINE",
"182 0 LINE",
"219 217 LINE",
"227 168 OFFCURVE",
"266 -20 OFFCURVE",
"526 -20 CURVE SMOOTH"
);
},
{
closed = 1;
nodes = (
"333 55 OFFCURVE",
"223 213 OFFCURVE",
"241 365 CURVE",
"286 694 LINE",
"301 739 OFFCURVE",
"366 1001 OFFCURVE",
"661 1001 CURVE SMOOTH",
"882 1001 OFFCURVE",
"964 817 OFFCURVE",
"923 532 CURVE SMOOTH",
"878 205 OFFCURVE",
"727 55 OFFCURVE",
"534 55 CURVE SMOOTH"
);
}
);
width = 1123;
}
);
leftKerningGroup = n;
leftMetricsKey = n;
rightKerningGroup = o;
rightMetricsKey = o;
unicode = 0062;
},
{
glyphname = c;
lastChange = "2019-05-31 16:37:05 +0000";
layers = (
{
anchors = (
{
name = bottom;
position = "{497, 0}";
},
{
name = top;
position = "{661, 1059}";
}
);
background = {
anchors = (
{
name = bottom;
position = "{555, 0}";
},
{
name = top;
position = "{557, 1085}";
}
);
paths = (
{
closed = 1;
nodes = (
"233 1106 OFFCURVE",
"-10 877 OFFCURVE",
"-10 539 CURVE SMOOTH",
"-10 207 OFFCURVE",
"229 -20 OFFCURVE",
"557 -20 CURVE SMOOTH",
"889 -20 OFFCURVE",
"1024 215 OFFCURVE",
"1044 322 CURVE SMOOTH",
"1052 352 OFFCURVE",
"1048 365 OFFCURVE",
"1026 369 CURVE SMOOTH",
"833 406 LINE SMOOTH",
"807 410 OFFCURVE",
"799 406 OFFCURVE",
"792 395 CURVE SMOOTH",
"741 303 OFFCURVE",
"702 233 OFFCURVE",
"590 233 CURVE SMOOTH",
"473 233 OFFCURVE",
"403 315 OFFCURVE",
"403 543 CURVE SMOOTH",
"403 762 OFFCURVE",
"467 848 OFFCURVE",
"567 848 CURVE SMOOTH",
"665 848 OFFCURVE",
"684 770 OFFCURVE",
"692 719 CURVE SMOOTH",
"696 696 OFFCURVE",
"704 688 OFFCURVE",
"727 690 CURVE SMOOTH",
"1007 705 LINE SMOOTH",
"1042 707 OFFCURVE",
"1055 723 OFFCURVE",
"1044 758 CURVE SMOOTH",
"1011 915 OFFCURVE",
"850 1106 OFFCURVE",
"557 1106 CURVE SMOOTH"
);
}
);
};
guideLines = (
{
angle = -0.5577;
position = "{-483, 167}";
},
{
position = "{521, 123}";
},
{
angle = 3.769;
position = "{416, 307}";
}
);
layerId = "258ED206-D907-4350-8EBA-CBDDA1C16BF7";
paths = (
{
closed = 1;
nodes = (
"784 -20 OFFCURVE",
"985 184 OFFCURVE",
"1018 410 CURVE",
"706 410 LINE",
"694 367 OFFCURVE",
"649 254 OFFCURVE",
"549 254 CURVE SMOOTH",
"448 254 OFFCURVE",
"387 354 OFFCURVE",
"413 528 CURVE SMOOTH",
"440 698 OFFCURVE",
"520 784 OFFCURVE",
"622 784 CURVE SMOOTH",
"723 784 OFFCURVE",
"737 686 OFFCURVE",
"735 627 CURVE",
"1057 627 LINE",
"1087 864 OFFCURVE",
"962 1079 OFFCURVE",
"663 1079 CURVE SMOOTH",
"358 1079 OFFCURVE",
"98 852 OFFCURVE",
"49 524 CURVE SMOOTH",
"0 201 OFFCURVE",
"196 -20 OFFCURVE",
"497 -20 CURVE SMOOTH"
);
}
);
width = 1098;
},
{
anchors = (
{
name = bottom;
position = "{469, 0}";
},
{
name = top;
position = "{615, 1059}";
}
);
background = {
anchors = (
{
name = bottom;
position = "{564, 0}";
},
{
name = top;
position = "{559, 1085}";
}
);
paths = (
{
closed = 1;
nodes = (
"273 1106 OFFCURVE",
"70 870 OFFCURVE",
"70 539 CURVE SMOOTH",
"70 205 OFFCURVE",
"269 -20 OFFCURVE",
"562 -20 CURVE SMOOTH",
"736 -20 OFFCURVE",
"883 59 OFFCURVE",
"981 219 CURVE SMOOTH",
"985 227 OFFCURVE",
"983 236 OFFCURVE",
"977 240 CURVE SMOOTH",
"930 270 LINE SMOOTH",
"922 276 OFFCURVE",
"918 274 OFFCURVE",
"910 262 CURVE SMOOTH",
"820 123 OFFCURVE",
"709 57 OFFCURVE",
"570 57 CURVE SMOOTH",
"320 57 OFFCURVE",
"156 252 OFFCURVE",
"156 543 CURVE SMOOTH",
"156 834 OFFCURVE",
"320 1028 OFFCURVE",
"572 1028 CURVE SMOOTH",
"686 1028 OFFCURVE",
"779 979 OFFCURVE",
"891 842 CURVE SMOOTH",
"899 831 OFFCURVE",
"908 829 OFFCURVE",
"914 834 CURVE SMOOTH",
"963 866 LINE SMOOTH",
"969 870 OFFCURVE",
"971 874 OFFCURVE",
"963 887 CURVE SMOOTH",
"869 1022 OFFCURVE",
"744 1106 OFFCURVE",
"562 1106 CURVE SMOOTH"
);
}
);
};
layerId = "91AB5BCA-6A50-42DA-B2F7-8181BF189245";
rightMetricsKey = "=e";
paths = (
{
closed = 1;
nodes = (
"625 -20 OFFCURVE",
"801 57 OFFCURVE",
"877 283 CURVE",
"799 283 LINE",
"744 125 OFFCURVE",
"615 55 OFFCURVE",
"484 55 CURVE SMOOTH",
"263 55 OFFCURVE",
"158 244 OFFCURVE",
"197 528 CURVE SMOOTH",
"238 811 OFFCURVE",
"400 1001 OFFCURVE",
"619 1001 CURVE SMOOTH",
"742 1001 OFFCURVE",
"848 940 OFFCURVE",
"867 772 CURVE",
"947 776 LINE",
"936 989 OFFCURVE",
"785 1079 OFFCURVE",
"621 1079 CURVE SMOOTH",
"357 1079 OFFCURVE",
"166 850 OFFCURVE",
"119 524 CURVE SMOOTH",
"74 201 OFFCURVE",
"201 -20 OFFCURVE",
"465 -20 CURVE SMOOTH"
);
}
);
width = 1044;
}
);
leftKerningGroup = o;
leftMetricsKey = o;
rightKerningGroup = o;
rightMetricsKey = e;
unicode = 0063;
},
{
glyphname = d;
lastChange = "2019-06-06 17:46:44 +0000";
layers = (
{
anchors = (
{
name = bottom;
position = "{524, 0}";
},
{
name = caron;
position = "{1290, 1471}";
},
{
name = center;
position = "{604, 528}";
}
);
background = {
anchors = (
{
name = bottom;
position = "{618, 0}";
},
{
name = center;
position = "{618, 543}";
},
{
name = topright;
position = "{1204, 1085}";
}
);
paths = (
{
closed = 1;
nodes = (
"1112 0 LINE SMOOTH",
"1155 0 OFFCURVE",
"1167 16 OFFCURVE",
"1167 51 CURVE SMOOTH",
"1167 1473 LINE SMOOTH",
"1167 1503 OFFCURVE",
"1151 1520 OFFCURVE",
"1128 1520 CURVE SMOOTH",
"796 1520 LINE SMOOTH",
"772 1520 OFFCURVE",
"760 1503 OFFCURVE",
"760 1477 CURVE SMOOTH",
"760 1016 LINE SMOOTH",
"760 983 OFFCURVE",
"741 983 OFFCURVE",
"721 999 CURVE SMOOTH",
"637 1081 OFFCURVE",
"559 1106 OFFCURVE",
"467 1106 CURVE SMOOTH",
"241 1106 OFFCURVE",
"37 883 OFFCURVE",
"37 539 CURVE SMOOTH",
"37 168 OFFCURVE",
"205 -20 OFFCURVE",
"446 -20 CURVE SMOOTH",
"573 -20 OFFCURVE",
"653 20 OFFCURVE",
"733 94 CURVE SMOOTH",
"747 106 OFFCURVE",
"764 104 OFFCURVE",
"764 86 CURVE SMOOTH",
"764 47 LINE SMOOTH",
"764 12 OFFCURVE",
"788 0 OFFCURVE",
"815 0 CURVE SMOOTH"
);
},
{
closed = 1;
nodes = (
"758 360 LINE SMOOTH",
"758 281 OFFCURVE",
"694 225 OFFCURVE",
"614 225 CURVE SMOOTH",
"510 225 OFFCURVE",
"450 305 OFFCURVE",
"450 541 CURVE SMOOTH",
"450 778 OFFCURVE",
"518 852 OFFCURVE",
"614 852 CURVE SMOOTH",
"678 852 OFFCURVE",
"715 825 OFFCURVE",
"758 774 CURVE"
);
}
);
};
layerId = "258ED206-D907-4350-8EBA-CBDDA1C16BF7";
paths = (
{
closed = 1;
nodes = (
"588 -20 OFFCURVE",
"702 70 OFFCURVE",
"770 217 CURVE",
"784 0 LINE",
"1065 0 LINE",
"1296 1522 LINE",
"899 1522 LINE",
"811 938 LINE",
"762 1047 OFFCURVE",
"645 1079 OFFCURVE",
"540 1079 CURVE SMOOTH",
"282 1079 OFFCURVE",
"100 870 OFFCURVE",
"51 537 CURVE SMOOTH",
"-2 199 OFFCURVE",
"127 -20 OFFCURVE",
"418 -20 CURVE SMOOTH"
);
},
{
closed = 1;
nodes = (
"463 258 OFFCURVE",
"401 328 OFFCURVE",
"434 541 CURVE SMOOTH",
"465 754 OFFCURVE",
"553 799 OFFCURVE",
"633 799 CURVE SMOOTH",
"721 799 OFFCURVE",
"782 745 OFFCURVE",
"758 582 CURVE",
"743 489 LINE",
"719 332 OFFCURVE",
"643 258 OFFCURVE",
"555 258 CURVE"
);
}
);
width = 1257;
},
{
anchors = (
{
name = bottom;
position = "{474, 0}";
},
{
name = caron;
position = "{1066, 1481}";
},
{
name = center;
position = "{571, 528}";
}
);
background = {
anchors = (
{
name = bottom;
position = "{597, 0}";
},
{
name = center;
position = "{622, 543}";
},
{
name = topright;
position = "{1263, 1520}";
}
);
paths = (
{
closed = 1;
nodes = (
"980 0 LINE SMOOTH",
"999 0 OFFCURVE",
"1005 6 OFFCURVE",
"1005 25 CURVE SMOOTH",
"1005 1501 LINE SMOOTH",
"1005 1513 OFFCURVE",
"999 1520 OFFCURVE",
"989 1520 CURVE SMOOTH",
"941 1520 LINE SMOOTH",
"927 1520 OFFCURVE",
"923 1513 OFFCURVE",
"923 1499 CURVE SMOOTH",
"923 1010 LINE SMOOTH",
"923 983 OFFCURVE",
"919 975 OFFCURVE",
"894 995 CURVE SMOOTH",
"831 1044 OFFCURVE",
"743 1106 OFFCURVE",
"593 1106 CURVE SMOOTH",
"292 1106 OFFCURVE",
"96 870 OFFCURVE",
"96 522 CURVE SMOOTH",
"96 160 OFFCURVE",
"307 -20 OFFCURVE",
"569 -20 CURVE SMOOTH",
"765 -20 OFFCURVE",
"870 100 OFFCURVE",
"903 135 CURVE SMOOTH",
"919 152 OFFCURVE",
"927 150 OFFCURVE",
"927 127 CURVE SMOOTH",
"927 23 LINE SMOOTH",
"927 8 OFFCURVE",
"933 0 OFFCURVE",
"948 0 CURVE SMOOTH"
);
},
{
closed = 1;
nodes = (
"923 348 LINE SMOOTH",
"923 225 OFFCURVE",
"776 57 OFFCURVE",
"579 57 CURVE SMOOTH",
"370 57 OFFCURVE",
"182 205 OFFCURVE",
"182 530 CURVE SMOOTH",
"182 842 OFFCURVE",
"356 1028 OFFCURVE",
"595 1028 CURVE SMOOTH",
"720 1028 OFFCURVE",
"823 971 OFFCURVE",
"923 872 CURVE"
);
}
);
};
layerId = "91AB5BCA-6A50-42DA-B2F7-8181BF189245";
rightMetricsKey = "=|n";
paths = (
{
closed = 1;
nodes = (
"702 -20 OFFCURVE",
"794 168 OFFCURVE",
"816 217 CURVE",
"792 0 LINE",
"857 0 LINE",
"1072 1522 LINE",
"999 1522 LINE",
"909 877 LINE",
"894 922 OFFCURVE",
"825 1079 OFFCURVE",
"597 1079 CURVE SMOOTH",
"317 1079 OFFCURVE",
"163 831 OFFCURVE",
"120 532 CURVE SMOOTH",
"73 193 OFFCURVE",
"178 -20 OFFCURVE",
"442 -20 CURVE SMOOTH"
);
},
{
closed = 1;
nodes = (
"264 55 OFFCURVE",
"153 205 OFFCURVE",
"200 532 CURVE SMOOTH",
"239 817 OFFCURVE",
"374 1001 OFFCURVE",
"593 1001 CURVE SMOOTH",
"868 1001 OFFCURVE",
"880 739 OFFCURVE",
"882 694 CURVE",
"835 365 LINE",
"810 213 OFFCURVE",
"657 55 OFFCURVE",
"454 55 CURVE SMOOTH"
);
}
);
width = 1123;
}
);
leftKerningGroup = o;
leftMetricsKey = o;
rightKerningGroup = u;
rightMetricsKey = "=|n";
unicode = 0064;
},
{
glyphname = eth;
lastChange = "2019-06-06 16:38:17 +0000";
layers = (
{
background = {
paths = (
{
closed = 1;
nodes = (
"1316 901 OFFCURVE",
"1163 1192 OFFCURVE",
"909 1370 CURVE",
"1003 1423 LINE SMOOTH",
"1015 1432 OFFCURVE",
"1017 1442 OFFCURVE",
"1011 1452 CURVE SMOOTH",
"968 1530 LINE SMOOTH",
"960 1540 OFFCURVE",
"946 1544 OFFCURVE",
"931 1534 CURVE SMOOTH",
"778 1448 LINE",
"702 1487 OFFCURVE",
"618 1516 OFFCURVE",
"530 1536 CURVE SMOOTH",
"505 1542 OFFCURVE",
"501 1540 OFFCURVE",
"487 1528 CURVE SMOOTH",
"315 1386 LINE SMOOTH",
"301 1374 OFFCURVE",
"307 1362 OFFCURVE",
"319 1358 CURVE SMOOTH",
"381 1337 OFFCURVE",
"436 1313 OFFCURVE",
"487 1286 CURVE",
"342 1206 LINE SMOOTH",
"327 1200 OFFCURVE",
"321 1184 OFFCURVE",
"338 1161 CURVE SMOOTH",
"368 1112 LINE SMOOTH",
"383 1090 OFFCURVE",
"395 1085 OFFCURVE",
"417 1098 CURVE SMOOTH",
"614 1208 LINE",
"671 1165 OFFCURVE",
"710 1128 OFFCURVE",
"749 1075 CURVE SMOOTH",
"753 1069 OFFCURVE",
"753 1065 OFFCURVE",
"745 1065 CURVE SMOOTH",
"422 1065 OFFCURVE",
"174 838 OFFCURVE",
"174 516 CURVE SMOOTH",
"174 211 OFFCURVE",
"407 -20 OFFCURVE",
"743 -20 CURVE SMOOTH",
"1085 -20 OFFCURVE",
"1316 209 OFFCURVE",
"1316 578 CURVE SMOOTH"
);
},
{
closed = 1;
nodes = (
"637 242 OFFCURVE",
"587 332 OFFCURVE",
"587 524 CURVE SMOOTH",
"587 719 OFFCURVE",
"637 811 OFFCURVE",
"745 811 CURVE SMOOTH",
"856 811 OFFCURVE",
"903 719 OFFCURVE",
"903 524 CURVE SMOOTH",
"903 334 OFFCURVE",
"856 242 OFFCURVE",
"745 242 CURVE SMOOTH"
);
}
);
};
layerId = "258ED206-D907-4350-8EBA-CBDDA1C16BF7";
paths = (
{
closed = 1;
nodes = (
"870 -20 OFFCURVE",
"1118 202 OFFCURVE",
"1167 551 CURVE SMOOTH",
"1232 1015 OFFCURVE",
"1129 1376 OFFCURVE",
"877 1512 CURVE",
"418 1524 LINE",
"494 1455 OFFCURVE",
"831 1319 OFFCURVE",
"949 875 CURVE",
"880 978 OFFCURVE",
"756 1040 OFFCURVE",
"618 1040 CURVE SMOOTH",
"374 1040 OFFCURVE",
"100 882 OFFCURVE",
"50 526 CURVE SMOOTH",
"6 216 OFFCURVE",
"210 -20 OFFCURVE",
"543 -20 CURVE SMOOTH"
);
},
{
closed = 1;
nodes = (
"416 268 OFFCURVE",
"421 413 OFFCURVE",
"435 515 CURVE SMOOTH",
"453 640 OFFCURVE",
"505 795 OFFCURVE",
"642 795 CURVE SMOOTH",
"761 795 OFFCURVE",
"757 662 OFFCURVE",
"742 559 CURVE SMOOTH",
"725 435 OFFCURVE",
"672 268 OFFCURVE",
"537 268 CURVE SMOOTH"
);
},
{
closed = 1;
nodes = (
"1174 1284 LINE",
"1206 1523 LINE",
"378 1285 LINE",
"346 1046 LINE"
);
}
);
width = 1214;
},
{
background = {
paths = (
{
closed = 1;
nodes = (
"1252 864 OFFCURVE",
"1140 1153 OFFCURVE",
"820 1370 CURVE",
"1005 1473 LINE SMOOTH",
"1011 1477 OFFCURVE",
"1011 1483 OFFCURVE",
"1007 1489 CURVE SMOOTH",
"982 1534 LINE SMOOTH",
"980 1538 OFFCURVE",
"970 1540 OFFCURVE",
"964 1536 CURVE SMOOTH",
"751 1417 LINE",
"679 1460 OFFCURVE",
"603 1497 OFFCURVE",
"513 1534 CURVE SMOOTH",
"495 1542 OFFCURVE",
"488 1538 OFFCURVE",
"476 1530 CURVE SMOOTH",
"439 1505 LINE SMOOTH",
"429 1497 OFFCURVE",
"431 1487 OFFCURVE",
"441 1483 CURVE SMOOTH",
"527 1448 OFFCURVE",
"603 1411 OFFCURVE",
"673 1372 CURVE",
"355 1194 LINE SMOOTH",
"349 1190 OFFCURVE",
"345 1184 OFFCURVE",
"353 1171 CURVE SMOOTH",
"372 1143 LINE SMOOTH",
"380 1130 OFFCURVE",
"386 1126 OFFCURVE",
"398 1133 CURVE SMOOTH",
"742 1327 LINE",
"919 1208 OFFCURVE",
"1027 1071 OFFCURVE",
"1091 924 CURVE",
"1002 1012 OFFCURVE",
"882 1065 OFFCURVE",
"736 1065 CURVE SMOOTH",
"458 1065 OFFCURVE",
"257 836 OFFCURVE",
"257 516 CURVE SMOOTH",
"257 201 OFFCURVE",
"456 -20 OFFCURVE",
"751 -20 CURVE SMOOTH",
"1066 -20 OFFCURVE",
"1252 207 OFFCURVE",
"1252 522 CURVE SMOOTH"
);
},
{
closed = 1;
nodes = (
"521 57 OFFCURVE",
"343 262 OFFCURVE",
"343 520 CURVE SMOOTH",
"343 778 OFFCURVE",
"521 987 OFFCURVE",
"757 987 CURVE SMOOTH",
"990 987 OFFCURVE",
"1166 780 OFFCURVE",
"1166 520 CURVE SMOOTH",
"1166 260 OFFCURVE",
"994 57 OFFCURVE",
"759 57 CURVE SMOOTH"
);
}
);
};
layerId = "91AB5BCA-6A50-42DA-B2F7-8181BF189245";
paths = (
{
closed = 1;
nodes = (
"755 -20 OFFCURVE",
"945 215 OFFCURVE",
"994 522 CURVE SMOOTH",
"1071 1007 OFFCURVE",
"1056 1296 OFFCURVE",
"741 1515 CURVE",
"654 1477 LINE",
"825 1376 OFFCURVE",
"987 1210 OFFCURVE",
"957 864 CURVE",
"930 976 OFFCURVE",
"850 1079 OFFCURVE",
"636 1079 CURVE SMOOTH",
"368 1079 OFFCURVE",
"165 852 OFFCURVE",
"120 530 CURVE SMOOTH",
"76 221 OFFCURVE",
"215 -20 OFFCURVE",
"489 -20 CURVE SMOOTH"
);
},
{
closed = 1;
nodes = (
"265 55 OFFCURVE",
"161 272 OFFCURVE",
"196 522 CURVE SMOOTH",
"236 809 OFFCURVE",
"404 1001 OFFCURVE",
"632 1001 CURVE SMOOTH",
"867 1001 OFFCURVE",
"961 840 OFFCURVE",
"917 530 CURVE SMOOTH",
"881 274 OFFCURVE",
"720 55 OFFCURVE",
"492 55 CURVE SMOOTH"
);
},
{
closed = 1;
nodes = (
"1093 1384 LINE",
"1105 1475 LINE",
"562 1247 LINE",
"550 1156 LINE"
);
}
);
width = 1116;
}
);
leftKerningGroup = o;
leftMetricsKey = o;
rightKerningGroup = o;
rightMetricsKey = o;
unicode = 00F0;
},
{
glyphname = dcroat;
lastChange = "2019-05-31 16:36:28 +0000";
layers = (
{
background = {
components = (
{
name = d;
transform = "{1, 0, 0, 1, -38, 0}";
}
);
paths = (
{
closed = 1;
nodes = (
"1178 1393 OFFCURVE",
"1165 1407 OFFCURVE",
"1145 1407 CURVE SMOOTH",
"451 1407 LINE SMOOTH",
"430 1407 OFFCURVE",
"418 1393 OFFCURVE",
"418 1366 CURVE SMOOTH",
"418 1233 LINE SMOOTH",
"418 1202 OFFCURVE",
"428 1188 OFFCURVE",
"463 1188 CURVE SMOOTH",
"1118 1188 LINE SMOOTH",
"1159 1188 OFFCURVE",
"1178 1202 OFFCURVE",
"1178 1237 CURVE SMOOTH",
"1178 1370 LINE SMOOTH"
);
}
);
};
components = (
{
name = d;
}
);
layerId = "258ED206-D907-4350-8EBA-CBDDA1C16BF7";
paths = (
{
closed = 1;
nodes = (
"1356 1159 LINE",
"1384 1372 LINE",
"643 1372 LINE",
"614 1159 LINE"
);
}
);
width = 1330;
},
{
background = {
components = (
{
name = d;
transform = "{1, 0, 0, 1, 4, 0}";
}
);
paths = (
{
closed = 1;
nodes = (
"1190 1352 OFFCURVE",
"1186 1356 OFFCURVE",
"1180 1356 CURVE SMOOTH",
"608 1356 LINE SMOOTH",
"602 1356 OFFCURVE",
"598 1352 OFFCURVE",
"598 1341 CURVE SMOOTH",
"598 1300 LINE SMOOTH",
"598 1288 OFFCURVE",
"600 1284 OFFCURVE",
"612 1284 CURVE SMOOTH",
"1169 1284 LINE SMOOTH",
"1184 1284 OFFCURVE",
"1190 1288 OFFCURVE",
"1190 1300 CURVE SMOOTH",
"1190 1343 LINE SMOOTH"
);
}
);
};
components = (
{
name = d;
}
);
layerId = "91AB5BCA-6A50-42DA-B2F7-8181BF189245";
paths = (
{
closed = 1;
nodes = (
"1157 1251 LINE",
"1157 1321 LINE",
"582 1321 LINE",
"582 1251 LINE"
);
}
);
width = 1118;
}
);
leftKerningGroup = o;
leftMetricsKey = d;
unicode = 0111;
},
{
glyphname = e;
lastChange = "2019-05-31 16:36:28 +0000";
layers = (
{
anchors = (
{
name = bottom;
position = "{518, 0}";
},
{
name = ogonek;
position = "{780, 51}";
},
{
name = top;
position = "{671, 1059}";
}
);
background = {
anchors = (
{
name = bottom;
position = "{573, 0}";
},
{
name = ogonek;
position = "{837, 53}";
},
{
name = top;
position = "{567, 1085}";
}
);
paths = (
{
closed = 1;
nodes = (
"415 459 OFFCURVE",
"426 469 OFFCURVE",
"446 469 CURVE SMOOTH",
"1083 469 LINE SMOOTH",
"1118 471 OFFCURVE",
"1120 485 OFFCURVE",
"1120 520 CURVE SMOOTH",
"1120 891 OFFCURVE",
"884 1106 OFFCURVE",
"563 1106 CURVE SMOOTH",
"260 1106 OFFCURVE",
"-6 872 OFFCURVE",
"-6 524 CURVE SMOOTH",
"-6 203 OFFCURVE",
"243 -20 OFFCURVE",
"571 -20 CURVE SMOOTH",
"800 -20 OFFCURVE",
"940 35 OFFCURVE",
"1087 242 CURVE SMOOTH",
"1106 264 OFFCURVE",
"1099 283 OFFCURVE",
"1079 291 CURVE SMOOTH",
"893 367 LINE SMOOTH",
"866 377 OFFCURVE",
"860 375 OFFCURVE",
"850 365 CURVE SMOOTH",
"759 276 OFFCURVE",
"696 250 OFFCURVE",
"626 250 CURVE SMOOTH",
"508 250 OFFCURVE",
"415 309 OFFCURVE",
"415 434 CURVE SMOOTH"
);
},
{
closed = 1;
nodes = (
"420 809 OFFCURVE",
"497 866 OFFCURVE",
"581 866 CURVE SMOOTH",
"684 866 OFFCURVE",
"723 762 OFFCURVE",
"723 709 CURVE SMOOTH",
"723 684 OFFCURVE",
"714 680 OFFCURVE",
"688 680 CURVE SMOOTH",
"422 682 LINE"
);
}
);
};
layerId = "258ED206-D907-4350-8EBA-CBDDA1C16BF7";
paths = (
{
closed = 1;
nodes = (
"757 -20 OFFCURVE",
"1018 125 OFFCURVE",
"1085 360 CURVE",
"735 360 LINE",
"690 279 OFFCURVE",
"628 258 OFFCURVE",
"555 258 CURVE SMOOTH",
"469 258 OFFCURVE",
"407 311 OFFCURVE",
"430 438 CURVE",
"1093 438 LINE",
"1108 530 LINE",
"1155 844 OFFCURVE",
"1018 1079 OFFCURVE",
"673 1079 CURVE SMOOTH",
"336 1079 OFFCURVE",
"98 819 OFFCURVE",
"53 516 CURVE SMOOTH",
"4 195 OFFCURVE",
"194 -20 OFFCURVE",
"522 -20 CURVE SMOOTH"
);
},
{
closed = 1;
nodes = (
"473 741 OFFCURVE",
"551 811 OFFCURVE",
"632 811 CURVE SMOOTH",
"733 811 OFFCURVE",
"774 741 OFFCURVE",
"762 662 CURVE",
"460 662 LINE"
);
}
);
width = 1164;
},
{
anchors = (
{
name = bottom;
position = "{473, 0}";
},
{
name = ogonek;
position = "{655, 37}";
},
{
name = top;
position = "{625, 1059}";
}
);
background = {
anchors = (
{
name = bottom;
position = "{573, 0}";
},
{
name = ogonek;
position = "{764, 37}";
},
{
name = top;
position = "{567, 1085}";
}
);
paths = (
{
closed = 1;
nodes = (
"160 506 OFFCURVE",
"164 520 OFFCURVE",
"172 520 CURVE SMOOTH",
"1014 520 LINE SMOOTH",
"1045 520 OFFCURVE",
"1040 545 OFFCURVE",
"1040 561 CURVE SMOOTH",
"1040 905 OFFCURVE",
"860 1106 OFFCURVE",
"571 1106 CURVE SMOOTH",
"283 1106 OFFCURVE",
"74 893 OFFCURVE",
"74 535 CURVE SMOOTH",
"74 205 OFFCURVE",
"277 -20 OFFCURVE",
"571 -20 CURVE SMOOTH",
"764 -20 OFFCURVE",
"907 55 OFFCURVE",
"1001 205 CURVE SMOOTH",
"1008 213 OFFCURVE",
"1006 221 OFFCURVE",
"999 225 CURVE SMOOTH",
"952 256 LINE SMOOTH",
"944 262 OFFCURVE",
"938 260 OFFCURVE",
"930 248 CURVE SMOOTH",
"856 125 OFFCURVE",
"735 57 OFFCURVE",
"571 57 CURVE SMOOTH",
"342 57 OFFCURVE",
"160 260 OFFCURVE",
"160 492 CURVE SMOOTH"
);
},
{
closed = 1;
nodes = (
"160 799 OFFCURVE",
"299 1028 OFFCURVE",
"569 1028 CURVE SMOOTH",
"807 1028 OFFCURVE",
"954 848 OFFCURVE",
"954 623 CURVE SMOOTH",
"954 600 OFFCURVE",
"948 594 OFFCURVE",
"920 594 CURVE SMOOTH",
"162 594 LINE"
);
}
);
};
guideLines = (
{
angle = 88.4926;
position = "{229, 483}";
}
);
layerId = "91AB5BCA-6A50-42DA-B2F7-8181BF189245";
paths = (
{
closed = 1;
nodes = (
"657 -20 OFFCURVE",
"815 68 OFFCURVE",
"899 283 CURVE",
"821 283 LINE",
"760 141 OFFCURVE",
"647 59 OFFCURVE",
"496 59 CURVE SMOOTH",
"250 59 OFFCURVE",
"174 268 OFFCURVE",
"207 508 CURVE",
"942 508 LINE",
"950 567 LINE",
"997 893 OFFCURVE",
"877 1079 OFFCURVE",
"627 1079 CURVE SMOOTH",
"363 1079 OFFCURVE",
"180 870 OFFCURVE",
"131 520 CURVE SMOOTH",
"82 174 OFFCURVE",
"229 -20 OFFCURVE",
"483 -20 CURVE SMOOTH"
);
},
{
closed = 1;
nodes = (
"248 786 OFFCURVE",
"377 999 OFFCURVE",
"614 999 CURVE SMOOTH",
"834 999 OFFCURVE",
"909 823 OFFCURVE",
"877 588 CURVE",
"221 588 LINE"
);
}
);
width = 1077;
}
);
leftKerningGroup = o;
leftMetricsKey = "=o*1.1";
rightKerningGroup = o;
rightMetricsKey = "=o*1.1";
unicode = 0065;
},
{
glyphname = f;
lastChange = "2019-05-31 16:35:30 +0000";
layers = (
{
background = {
paths = (
{
closed = 1;
nodes = (
"623 1085 LINE SMOOTH",
"607 1085 OFFCURVE",
"596 1092 OFFCURVE",
"596 1112 CURVE SMOOTH",
"596 1149 LINE SMOOTH",
"596 1206 OFFCURVE",
"642 1253 OFFCURVE",
"689 1253 CURVE SMOOTH",
"777 1253 LINE SMOOTH",
"801 1253 OFFCURVE",
"814 1272 OFFCURVE",
"814 1294 CURVE",
"812 1466 LINE",
"812 1499 OFFCURVE",
"791 1520 OFFCURVE",
"752 1520 CURVE SMOOTH",
"521 1520 LINE SMOOTH",
"322 1520 OFFCURVE",
"197 1409 OFFCURVE",
"197 1231 CURVE SMOOTH",
"197 1122 LINE SMOOTH",
"197 1096 OFFCURVE",
"191 1085 OFFCURVE",
"168 1085 CURVE SMOOTH",
"70 1085 LINE SMOOTH",
"35 1085 OFFCURVE",
"21 1065 OFFCURVE",
"21 1040 CURVE SMOOTH",
"21 848 LINE SMOOTH",
"21 819 OFFCURVE",
"37 809 OFFCURVE",
"66 809 CURVE SMOOTH",
"181 809 LINE SMOOTH",
"193 809 OFFCURVE",
"197 803 OFFCURVE",
"197 788 CURVE SMOOTH",
"197 41 LINE SMOOTH",
"197 14 OFFCURVE",
"211 0 OFFCURVE",
"234 0 CURVE SMOOTH",
"568 0 LINE SMOOTH",
"592 0 OFFCURVE",
"607 14 OFFCURVE",
"607 45 CURVE SMOOTH",
"607 784 LINE SMOOTH",
"607 801 OFFCURVE",
"617 809 OFFCURVE",
"631 809 CURVE SMOOTH",
"758 809 LINE SMOOTH",
"785 809 OFFCURVE",
"803 819 OFFCURVE",
"803 848 CURVE SMOOTH",
"803 1040 LINE SMOOTH",
"803 1065 OFFCURVE",
"787 1085 OFFCURVE",
"752 1085 CURVE SMOOTH"
);
}
);
};
layerId = "258ED206-D907-4350-8EBA-CBDDA1C16BF7";
leftMetricsKey = "=t";
rightMetricsKey = "=x";
paths = (
{
closed = 1;
nodes = (
"510 0 LINE",
"631 788 LINE",
"822 788 LINE",
"863 1059 LINE",
"664 1059 LINE",
"672 1120 LINE SMOOTH",
"685 1198 OFFCURVE",
"711 1223 OFFCURVE",
"777 1223 CURVE SMOOTH",
"898 1223 LINE",
"936 1481 LINE",
"654 1481 LINE SMOOTH",
"461 1481 OFFCURVE",
"324 1374 OFFCURVE",
"297 1200 CURVE SMOOTH",
"275 1059 LINE",
"107 1059 LINE",
"66 788 LINE",
"234 788 LINE",
"115 0 LINE"
);
}
);
width = 812;
},
{
background = {
paths = (
{
closed = 1;
nodes = (
"476 1085 LINE SMOOTH",
"466 1085 OFFCURVE",
"462 1090 OFFCURVE",
"462 1100 CURVE SMOOTH",
"462 1284 LINE SMOOTH",
"462 1389 OFFCURVE",
"489 1448 OFFCURVE",
"591 1448 CURVE SMOOTH",
"755 1448 LINE SMOOTH",
"765 1448 OFFCURVE",
"771 1452 OFFCURVE",
"771 1462 CURVE SMOOTH",
"771 1505 LINE SMOOTH",
"771 1516 OFFCURVE",
"767 1520 OFFCURVE",
"759 1520 CURVE SMOOTH",
"612 1520 LINE SMOOTH",
"448 1520 OFFCURVE",
"380 1434 OFFCURVE",
"380 1266 CURVE SMOOTH",
"380 1100 LINE SMOOTH",
"380 1090 OFFCURVE",
"376 1085 OFFCURVE",
"366 1085 CURVE SMOOTH",
"134 1085 LINE SMOOTH",
"126 1085 OFFCURVE",
"122 1081 OFFCURVE",
"122 1073 CURVE SMOOTH",
"122 1026 LINE SMOOTH",
"122 1018 OFFCURVE",
"126 1014 OFFCURVE",
"134 1014 CURVE SMOOTH",
"368 1014 LINE SMOOTH",
"376 1014 OFFCURVE",
"380 1008 OFFCURVE",
"380 999 CURVE SMOOTH",
"380 20 LINE SMOOTH",
"380 6 OFFCURVE",
"384 0 OFFCURVE",
"397 0 CURVE SMOOTH",
"444 0 LINE SMOOTH",
"456 0 OFFCURVE",
"462 6 OFFCURVE",
"462 23 CURVE SMOOTH",
"462 999 LINE SMOOTH",
"462 1010 OFFCURVE",
"466 1014 OFFCURVE",
"476 1014 CURVE SMOOTH",
"749 1014 LINE SMOOTH",
"757 1014 OFFCURVE",
"761 1018 OFFCURVE",
"761 1026 CURVE SMOOTH",
"761 1073 LINE SMOOTH",
"761 1081 OFFCURVE",
"757 1085 OFFCURVE",
"751 1085 CURVE SMOOTH"
);
}
);
};
layerId = "91AB5BCA-6A50-42DA-B2F7-8181BF189245";
paths = (
{
closed = 1;
nodes = (
"345 0 LINE",
"483 989 LINE",
"751 989 LINE",
"761 1059 LINE",
"493 1059 LINE",
"519 1251 LINE SMOOTH",
"534 1354 OFFCURVE",
"567 1411 OFFCURVE",
"659 1411 CURVE SMOOTH",
"820 1411 LINE",
"829 1481 LINE",
"687 1481 LINE SMOOTH",
"540 1481 OFFCURVE",
"468 1399 OFFCURVE",
"444 1235 CURVE SMOOTH",
"419 1059 LINE",
"188 1059 LINE",
"177 989 LINE",
"411 989 LINE",
"272 0 LINE"
);
}
);
width = 794;
}
);
leftKerningGroup = t;
leftMetricsKey = "=t*.75";
rightKerningGroup = t;
rightMetricsKey = "=t*.75";
unicode = 0066;
},
{
glyphname = g;
lastChange = "2019-05-31 16:36:05 +0000";
layers = (
{
anchors = (
{
name = top;
position = "{789, 1059}";
}
);
background = {
anchors = (
{
name = top;
position = "{518, 1085}";
}
);
paths = (
{
closed = 1;
nodes = (
"1092 1151 OFFCURVE",
"977 1094 OFFCURVE",
"922 1016 CURVE SMOOTH",
"907 995 OFFCURVE",
"879 993 OFFCURVE",
"858 1010 CURVE SMOOTH",
"791 1063 OFFCURVE",
"672 1102 OFFCURVE",
"516 1102 CURVE SMOOTH",
"149 1102 OFFCURVE",
"-37 961 OFFCURVE",
"-37 764 CURVE SMOOTH",
"-37 639 OFFCURVE",
"41 543 OFFCURVE",
"176 485 CURVE SMOOTH",
"197 473 OFFCURVE",
"182 467 OFFCURVE",
"170 461 CURVE SMOOTH",
"59 414 OFFCURVE",
"-53 346 OFFCURVE",
"-53 250 CURVE SMOOTH",
"-53 166 OFFCURVE",
"10 115 OFFCURVE",
"82 80 CURVE SMOOTH",
"98 72 OFFCURVE",
"102 63 OFFCURVE",
"82 57 CURVE SMOOTH",
"-27 27 OFFCURVE",
"-117 -16 OFFCURVE",
"-117 -109 CURVE SMOOTH",
"-117 -281 OFFCURVE",
"92 -358 OFFCURVE",
"520 -358 CURVE SMOOTH",
"932 -358 OFFCURVE",
"1141 -203 OFFCURVE",
"1141 6 CURVE SMOOTH",
"1141 174 OFFCURVE",
"1006 293 OFFCURVE",
"702 311 CURVE SMOOTH",
"391 330 LINE SMOOTH",
"332 334 OFFCURVE",
"301 342 OFFCURVE",
"301 373 CURVE SMOOTH",
"301 406 OFFCURVE",
"356 428 OFFCURVE",
"491 428 CURVE SMOOTH",
"836 428 OFFCURVE",
"1018 582 OFFCURVE",
"1018 766 CURVE SMOOTH",
"1018 786 OFFCURVE",
"1014 809 OFFCURVE",
"1008 829 CURVE SMOOTH",
"999 858 OFFCURVE",
"1010 877 OFFCURVE",
"1049 877 CURVE SMOOTH",
"1073 877 OFFCURVE",
"1112 870 OFFCURVE",
"1139 862 CURVE SMOOTH",
"1169 852 OFFCURVE",
"1192 868 OFFCURVE",
"1192 915 CURVE SMOOTH",
"1192 1100 LINE SMOOTH",
"1192 1137 OFFCURVE",
"1173 1151 OFFCURVE",
"1151 1151 CURVE SMOOTH"
);
},
{
closed = 1;
nodes = (
"385 614 OFFCURVE",
"328 684 OFFCURVE",
"328 758 CURVE SMOOTH",
"328 842 OFFCURVE",
"385 911 OFFCURVE",
"487 911 CURVE SMOOTH",
"602 911 OFFCURVE",
"647 842 OFFCURVE",
"647 758 CURVE SMOOTH",
"647 686 OFFCURVE",
"602 614 OFFCURVE",
"487 614 CURVE SMOOTH"
);
},
{
closed = 1;
nodes = (
"739 0 OFFCURVE",
"786 -33 OFFCURVE",
"786 -72 CURVE SMOOTH",
"786 -131 OFFCURVE",
"700 -176 OFFCURVE",
"541 -176 CURVE SMOOTH",
"285 -176 OFFCURVE",
"213 -131 OFFCURVE",
"213 -55 CURVE SMOOTH",
"213 -12 OFFCURVE",
"266 20 OFFCURVE",
"354 16 CURVE SMOOTH",
"651 4 LINE SMOOTH"
);
}
);
};
layerId = "258ED206-D907-4350-8EBA-CBDDA1C16BF7";
paths = (
{
closed = 1;
nodes = (
"920 -350 OFFCURVE",
"1133 -210 OFFCURVE",
"1160 -16 CURVE SMOOTH",
"1185 159 OFFCURVE",
"1067 302 OFFCURVE",
"767 322 CURVE SMOOTH",
"687 329 OFFCURVE",
"604 331 OFFCURVE",
"558 335 CURVE SMOOTH",
"484 341 OFFCURVE",
"422 351 OFFCURVE",
"415 384 CURVE SMOOTH",
"412 398 OFFCURVE",
"430 390 OFFCURVE",
"461 388 CURVE",
"486 386 OFFCURVE",
"559 383 OFFCURVE",
"601 383 CURVE SMOOTH",
"928 383 OFFCURVE",
"1121 556 OFFCURVE",
"1146 725 CURVE SMOOTH",
"1149 749 OFFCURVE",
"1148 787 OFFCURVE",
"1144 818 CURVE",
"1332 854 LINE",
"1365 1141 LINE",
"1242 1092 OFFCURVE",
"1082 1034 OFFCURVE",
"989 998 CURVE",
"925 1035 OFFCURVE",
"848 1075 OFFCURVE",
"687 1075 CURVE SMOOTH",
"376 1075 OFFCURVE",
"149 952 OFFCURVE",
"123 768 CURVE SMOOTH",
"105 644 OFFCURVE",
"168 502 OFFCURVE",
"303 436 CURVE",
"125 410 OFFCURVE",
"47 339 OFFCURVE",
"37 266 CURVE SMOOTH",
"18 138 OFFCURVE",
"138 87 OFFCURVE",
"159 75 CURVE",
"133 66 OFFCURVE",
"-56 42 OFFCURVE",
"-75 -84 CURVE SMOOTH",
"-95 -230 OFFCURVE",
"100 -350 OFFCURVE",
"527 -350 CURVE SMOOTH"
);
},
{
closed = 1;
nodes = (
"388 -141 OFFCURVE",
"305 -129 OFFCURVE",
"313 -73 CURVE SMOOTH",
"319 -27 OFFCURVE",
"363 24 OFFCURVE",
"473 17 CURVE SMOOTH",
"665 5 LINE SMOOTH",
"745 -1 OFFCURVE",
"782 -19 OFFCURVE",
"778 -53 CURVE SMOOTH",
"771 -103 OFFCURVE",
"730 -141 OFFCURVE",
"582 -141 CURVE SMOOTH"
);
},
{
closed = 1;
nodes = (
"540 592 OFFCURVE",
"505 640 OFFCURVE",
"514 709 CURVE SMOOTH",
"527 800 OFFCURVE",
"599 881 OFFCURVE",
"684 881 CURVE SMOOTH",
"751 881 OFFCURVE",
"784 822 OFFCURVE",
"774 754 CURVE SMOOTH",
"762 663 OFFCURVE",
"691 592 OFFCURVE",
"606 592 CURVE SMOOTH"
);
}
);
width = 1296;
},
{
anchors = (
{
name = top;
position = "{653, 1059}";
}
);
background = {
anchors = (
{
name = top;
position = "{427, 1085}";
}
);
guideLines = (
{
angle = 90;
position = "{150, 374}";
showMeasurement = 1;
}
);
paths = (
{
closed = 1;
nodes = (
"865 1085 OFFCURVE",
"804 1038 OFFCURVE",
"763 1008 CURVE SMOOTH",
"749 997 OFFCURVE",
"740 997 OFFCURVE",
"726 1010 CURVE SMOOTH",
"656 1069 OFFCURVE",
"568 1102 OFFCURVE",
"433 1102 CURVE SMOOTH",
"163 1102 OFFCURVE",
"3 973 OFFCURVE",
"3 756 CURVE SMOOTH",
"3 629 OFFCURVE",
"52 545 OFFCURVE",
"165 481 CURVE SMOOTH",
"179 473 OFFCURVE",
"183 461 OFFCURVE",
"167 457 CURVE SMOOTH",
"65 424 OFFCURVE",
"30 371 OFFCURVE",
"30 326 CURVE SMOOTH",
"30 281 OFFCURVE",
"52 248 OFFCURVE",
"108 223 CURVE SMOOTH",
"122 217 OFFCURVE",
"122 209 OFFCURVE",
"108 201 CURVE SMOOTH",
"-21 129 OFFCURVE",
"-81 43 OFFCURVE",
"-81 -55 CURVE SMOOTH",
"-81 -246 OFFCURVE",
"95 -358 OFFCURVE",
"411 -358 CURVE SMOOTH",
"720 -358 OFFCURVE",
"900 -244 OFFCURVE",
"900 -39 CURVE SMOOTH",
"900 123 OFFCURVE",
"804 225 OFFCURVE",
"585 238 CURVE SMOOTH",
"339 252 LINE SMOOTH",
"181 260 OFFCURVE",
"116 279 OFFCURVE",
"116 328 CURVE SMOOTH",
"116 377 OFFCURVE",
"183 428 OFFCURVE",
"419 428 CURVE SMOOTH",
"708 428 OFFCURVE",
"833 573 OFFCURVE",
"833 756 CURVE SMOOTH",
"833 842 OFFCURVE",
"804 889 OFFCURVE",
"790 924 CURVE SMOOTH",
"783 938 OFFCURVE",
"794 950 OFFCURVE",
"831 971 CURVE SMOOTH",
"863 989 OFFCURVE",
"890 997 OFFCURVE",
"943 999 CURVE SMOOTH",
"972 1001 OFFCURVE",
"978 1014 OFFCURVE",
"978 1032 CURVE SMOOTH",
"978 1059 LINE SMOOTH",
"978 1077 OFFCURVE",
"970 1085 OFFCURVE",
"939 1085 CURVE SMOOTH"
);
},
{
closed = 1;
nodes = (
"206 506 OFFCURVE",
"85 594 OFFCURVE",
"85 760 CURVE SMOOTH",
"85 928 OFFCURVE",
"208 1024 OFFCURVE",
"421 1024 CURVE SMOOTH",
"638 1024 OFFCURVE",
"751 930 OFFCURVE",
"751 760 CURVE SMOOTH",
"751 592 OFFCURVE",
"642 506 OFFCURVE",
"421 506 CURVE SMOOTH"
);
},
{
closed = 1;
nodes = (
"755 143 OFFCURVE",
"814 74 OFFCURVE",
"814 -39 CURVE SMOOTH",
"814 -207 OFFCURVE",
"679 -281 OFFCURVE",
"429 -281 CURVE SMOOTH",
"161 -281 OFFCURVE",
"5 -197 OFFCURVE",
"5 -47 CURVE SMOOTH",
"5 88 OFFCURVE",
"157 180 OFFCURVE",
"222 176 CURVE SMOOTH",
"583 154 LINE SMOOTH"
);
}
);
};
guideLines = (
{
angle = 90;
position = "{288, 347}";
showMeasurement = 1;
}
);
layerId = "91AB5BCA-6A50-42DA-B2F7-8181BF189245";
rightMetricsKey = "=x*1.2";
paths = (
{
closed = 1;
nodes = (
"704 -350 OFFCURVE",
"879 -240 OFFCURVE",
"904 -43 CURVE SMOOTH",
"925 119 OFFCURVE",
"849 219 OFFCURVE",
"651 231 CURVE SMOOTH",
"561 238 OFFCURVE",
"490 242 OFFCURVE",
"431 246 CURVE SMOOTH",
"278 258 OFFCURVE",
"236 272 OFFCURVE",
"243 326 CURVE SMOOTH",
"248 362 OFFCURVE",
"315 414 OFFCURVE",
"513 418 CURVE SMOOTH",
"518 418 OFFCURVE",
"524 418 OFFCURVE",
"534 418 CURVE SMOOTH",
"792 418 OFFCURVE",
"922 557 OFFCURVE",
"944 733 CURVE SMOOTH",
"951 788 OFFCURVE",
"938 870 OFFCURVE",
"923 911 CURVE",
"1104 954 LINE",
"1117 1074 LINE",
"1092 1064 OFFCURVE",
"919 988 OFFCURVE",
"891 975 CURVE",
"825 1041 OFFCURVE",
"748 1075 OFFCURVE",
"624 1075 CURVE SMOOTH",
"382 1075 OFFCURVE",
"223 950 OFFCURVE",
"197 741 CURVE SMOOTH",
"178 606 OFFCURVE",
"216 527 OFFCURVE",
"328 457 CURVE",
"227 425 OFFCURVE",
"172 377 OFFCURVE",
"165 322 CURVE SMOOTH",
"156 256 OFFCURVE",
"200 232 OFFCURVE",
"232 210 CURVE",
"198 181 OFFCURVE",
"38 109 OFFCURVE",
"18 -49 CURVE SMOOTH",
"-7 -238 OFFCURVE",
"140 -350 OFFCURVE",
"426 -350 CURVE SMOOTH"
);
},
{
closed = 1;
nodes = (
"204 -274 OFFCURVE",
"77 -195 OFFCURVE",
"95 -49 CURVE SMOOTH",
"113 84 OFFCURVE",
"263 176 OFFCURVE",
"322 172 CURVE SMOOTH",
"645 150 LINE SMOOTH",
"799 139 OFFCURVE",
"842 74 OFFCURVE",
"827 -35 CURVE SMOOTH",
"806 -199 OFFCURVE",
"635 -274 OFFCURVE",
"445 -274 CURVE SMOOTH"
);
},
{
closed = 1;
nodes = (
"344 494 OFFCURVE",
"249 578 OFFCURVE",
"269 737 CURVE SMOOTH",
"291 903 OFFCURVE",
"416 999 OFFCURVE",
"611 999 CURVE SMOOTH",
"788 999 OFFCURVE",
"895 920 OFFCURVE",
"872 745 CURVE SMOOTH",
"850 580 OFFCURVE",
"738 494 OFFCURVE",
"537 494 CURVE SMOOTH"
);
}
);
width = 1152;
}
);
leftKerningGroup = g;
leftMetricsKey = "=x*1.1";
rightKerningGroup = g;
rightMetricsKey = "=x";
unicode = 0067;
},
{
glyphname = gcommaaccent;
lastChange = "2019-05-31 16:36:05 +0000";
layers = (
{
anchors = (
{
name = _top;
position = "{711, 1059}";
}
);
background = {
anchors = (
{
name = _top;
position = "{543, 1126}";
}
);
components = (
{
name = g;
transform = "{1, 0, 0, 1, -38, 0}";
}
);
paths = (
{
closed = 1;
nodes = (
"639 1227 LINE SMOOTH",
"659 1227 OFFCURVE",
"676 1239 OFFCURVE",
"676 1268 CURVE SMOOTH",
"676 1393 LINE SMOOTH",
"676 1425 OFFCURVE",
"664 1438 OFFCURVE",
"629 1438 CURVE SMOOTH",
"610 1438 LINE SMOOTH",
"582 1438 OFFCURVE",
"569 1468 OFFCURVE",
"592 1497 CURVE SMOOTH",
"659 1589 LINE SMOOTH",
"672 1606 OFFCURVE",
"657 1630 OFFCURVE",
"635 1630 CURVE SMOOTH",
"598 1630 LINE SMOOTH",
"561 1630 OFFCURVE",
"547 1624 OFFCURVE",
"530 1602 CURVE SMOOTH",
"420 1464 LINE SMOOTH",
"418 1458 OFFCURVE",
"412 1448 OFFCURVE",
"412 1438 CURVE SMOOTH",
"412 1260 LINE SMOOTH",
"412 1239 OFFCURVE",
"424 1227 OFFCURVE",
"446 1227 CURVE SMOOTH"
);
}
);
};
components = (
{
name = g;
}
);
layerId = "258ED206-D907-4350-8EBA-CBDDA1C16BF7";
paths = (
{
closed = 1;
nodes = (
"834 1196 LINE",
"862 1401 LINE",
"737 1401 LINE",
"901 1589 LINE",
"766 1589 LINE",
"606 1417 LINE",
"575 1196 LINE"
);
}
);
width = 1296;
},
{
anchors = (
{
name = _top;
position = "{571, 1098}";
}
);
background = {
anchors = (
{
name = _top;
position = "{588, 1126}";
}
);
components = (
{
name = g;
transform = "{1, 0, 0, 1, 4, 0}";
}
);
paths = (
{
closed = 1;
nodes = (
"627 1294 LINE SMOOTH",
"635 1294 OFFCURVE",
"641 1298 OFFCURVE",
"641 1311 CURVE SMOOTH",
"641 1446 LINE SMOOTH",
"641 1460 OFFCURVE",
"637 1464 OFFCURVE",
"625 1464 CURVE SMOOTH",
"608 1464 LINE SMOOTH",
"598 1464 OFFCURVE",
"594 1470 OFFCURVE",
"600 1483 CURVE SMOOTH",
"651 1593 LINE SMOOTH",
"655 1602 OFFCURVE",
"651 1610 OFFCURVE",
"643 1610 CURVE SMOOTH",
"616 1610 LINE SMOOTH",
"600 1610 OFFCURVE",
"594 1608 OFFCURVE",
"588 1597 CURVE SMOOTH",
"524 1477 LINE SMOOTH",
"524 1475 OFFCURVE",
"522 1468 OFFCURVE",
"522 1464 CURVE SMOOTH",
"522 1309 LINE SMOOTH",
"522 1298 OFFCURVE",
"526 1294 OFFCURVE",
"535 1294 CURVE SMOOTH"
);
}
);
};
components = (
{
name = g;
}
);
layerId = "91AB5BCA-6A50-42DA-B2F7-8181BF189245";
paths = (
{
closed = 1;
nodes = (
"705 1262 LINE",
"729 1427 LINE",
"682 1427 LINE",
"768 1569 LINE",
"705 1569 LINE",
"614 1436 LINE",
"590 1262 LINE"
);
}
);
width = 1152;
}
);
leftKerningGroup = g;
leftMetricsKey = g;
rightKerningGroup = g;
rightMetricsKey = g;
unicode = 0123;
},
{
glyphname = h;
lastChange = "2019-05-31 16:36:05 +0000";
layers = (
{
anchors = (
{
name = bottom;
position = "{550, 0}";
},
{
name = top;
position = "{444, 1481}";
}
);
background = {
anchors = (
{
name = bottom;
position = "{638, 0}";
},
{
name = top;
position = "{923, 1085}";
}
);
paths = (
{
closed = 1;
nodes = (
"440 0 LINE SMOOTH",
"489 0 OFFCURVE",
"507 16 OFFCURVE",
"507 59 CURVE SMOOTH",
"507 715 LINE",
"546 784 OFFCURVE",
"595 817 OFFCURVE",
"659 817 CURVE SMOOTH",
"724 817 OFFCURVE",
"765 780 OFFCURVE",
"765 719 CURVE SMOOTH",
"765 51 LINE SMOOTH",
"765 12 OFFCURVE",
"778 0 OFFCURVE",
"812 0 CURVE SMOOTH",
"1113 0 LINE SMOOTH",
"1156 0 OFFCURVE",
"1175 20 OFFCURVE",
"1175 61 CURVE SMOOTH",
"1175 768 LINE SMOOTH",
"1175 985 OFFCURVE",
"1058 1106 OFFCURVE",
"855 1106 CURVE SMOOTH",
"747 1106 OFFCURVE",
"644 1071 OFFCURVE",
"528 958 CURVE SMOOTH",
"511 944 OFFCURVE",
"501 950 OFFCURVE",
"501 967 CURVE SMOOTH",
"501 1477 LINE SMOOTH",
"501 1503 OFFCURVE",
"489 1520 OFFCURVE",
"464 1520 CURVE SMOOTH",
"136 1520 LINE SMOOTH",
"112 1520 OFFCURVE",
"98 1501 OFFCURVE",
"98 1473 CURVE SMOOTH",
"98 51 LINE SMOOTH",
"98 14 OFFCURVE",
"112 0 OFFCURVE",
"151 0 CURVE SMOOTH"
);
}
);
};
layerId = "258ED206-D907-4350-8EBA-CBDDA1C16BF7";
paths = (
{
closed = 1;
nodes = (
"423 0 LINE",
"524 657 LINE",
"532 717 OFFCURVE",
"603 758 OFFCURVE",
"663 758 CURVE SMOOTH",
"722 758 OFFCURVE",
"782 721 OFFCURVE",
"771 662 CURVE SMOOTH",
"671 0 LINE",
"1068 0 LINE",
"1177 709 LINE SMOOTH",
"1208 920 OFFCURVE",
"1058 1059 OFFCURVE",
"861 1059 CURVE SMOOTH",
"696 1059 OFFCURVE",
"622 989 OFFCURVE",
"565 928 CURVE",
"655 1522 LINE",
"257 1522 LINE",
"26 0 LINE"
);
}
);
width = 1242;
},
{
anchors = (
{
name = bottom;
position = "{505, 0}";
},
{
name = top;
position = "{365, 1481}";
}
);
background = {
anchors = (
{
name = bottom;
position = "{632, 0}";
},
{
name = top;
position = "{678, 1085}";
}
);
paths = (
{
closed = 1;
nodes = (
"262 0 LINE SMOOTH",
"274 0 OFFCURVE",
"280 6 OFFCURVE",
"280 18 CURVE SMOOTH",
"280 840 LINE",
"444 965 OFFCURVE",
"540 1028 OFFCURVE",
"686 1028 CURVE SMOOTH",
"864 1028 OFFCURVE",
"938 932 OFFCURVE",
"938 772 CURVE SMOOTH",
"938 18 LINE SMOOTH",
"938 6 OFFCURVE",
"944 0 OFFCURVE",
"956 0 CURVE SMOOTH",
"1001 0 LINE SMOOTH",
"1013 0 OFFCURVE",
"1020 6 OFFCURVE",
"1020 20 CURVE SMOOTH",
"1020 805 LINE SMOOTH",
"1020 983 OFFCURVE",
"907 1106 OFFCURVE",
"688 1106 CURVE SMOOTH",
"538 1106 OFFCURVE",
"446 1047 OFFCURVE",
"290 936 CURVE SMOOTH",
"278 926 OFFCURVE",
"274 928 OFFCURVE",
"274 942 CURVE SMOOTH",
"274 1503 LINE SMOOTH",
"274 1516 OFFCURVE",
"270 1520 OFFCURVE",
"258 1520 CURVE SMOOTH",
"215 1520 LINE SMOOTH",
"202 1520 OFFCURVE",
"198 1513 OFFCURVE",
"198 1501 CURVE SMOOTH",
"198 18 LINE SMOOTH",
"198 6 OFFCURVE",
"204 0 OFFCURVE",
"217 0 CURVE SMOOTH"
);
}
);
};
layerId = "91AB5BCA-6A50-42DA-B2F7-8181BF189245";
paths = (
{
closed = 1;
nodes = (
"190 0 LINE",
"295 737 LINE",
"319 918 OFFCURVE",
"481 1001 OFFCURVE",
"653 1001 CURVE SMOOTH",
"819 1001 OFFCURVE",
"909 909 OFFCURVE",
"886 754 CURVE SMOOTH",
"780 0 LINE",
"854 0 LINE",
"964 784 LINE SMOOTH",
"989 958 OFFCURVE",
"860 1079 OFFCURVE",
"667 1079 CURVE SMOOTH",
"508 1079 OFFCURVE",
"376 1001 OFFCURVE",
"311 901 CURVE",
"399 1522 LINE",
"331 1522 LINE",
"116 0 LINE"
);
}
);
width = 1098;
}
);
leftKerningGroup = n;
leftMetricsKey = "=n";
rightKerningGroup = n;
rightMetricsKey = n;
unicode = 0068;
},
{
glyphname = hbar;
lastChange = "2019-05-31 16:36:05 +0000";
layers = (
{
background = {
components = (
{
name = h;
transform = "{1, 0, 0, 1, 11, 0}";
}
);
paths = (
{
closed = 1;
nodes = (
"783 1393 OFFCURVE",
"771 1407 OFFCURVE",
"751 1407 CURVE SMOOTH",
"56 1407 LINE SMOOTH",
"36 1407 OFFCURVE",
"24 1393 OFFCURVE",
"24 1366 CURVE SMOOTH",
"24 1233 LINE SMOOTH",
"24 1202 OFFCURVE",
"34 1188 OFFCURVE",
"69 1188 CURVE SMOOTH",
"724 1188 LINE SMOOTH",
"765 1188 OFFCURVE",
"783 1202 OFFCURVE",
"783 1237 CURVE SMOOTH",
"783 1370 LINE SMOOTH"
);
}
);
};
components = (
{
name = h;
transform = "{1, 0, 0, 1, 101, 0}";
}
);
layerId = "258ED206-D907-4350-8EBA-CBDDA1C16BF7";
paths = (
{
closed = 1;
nodes = (
"869 1159 LINE",
"898 1372 LINE",
"159 1372 LINE",
"130 1159 LINE"
);
}
);
width = 1343;
},
{
background = {
components = (
{
name = h;
transform = "{1, 0, 0, 1, 53, 0}";
}
);
paths = (
{
closed = 1;
nodes = (
"741 1352 OFFCURVE",
"737 1356 OFFCURVE",
"731 1356 CURVE SMOOTH",
"160 1356 LINE SMOOTH",
"154 1356 OFFCURVE",
"150 1352 OFFCURVE",
"150 1341 CURVE SMOOTH",
"150 1300 LINE SMOOTH",
"150 1288 OFFCURVE",
"152 1284 OFFCURVE",
"164 1284 CURVE SMOOTH",
"721 1284 LINE SMOOTH",
"735 1284 OFFCURVE",
"741 1288 OFFCURVE",
"741 1300 CURVE SMOOTH",
"741 1343 LINE SMOOTH"
);
}
);
};
components = (
{
name = h;
transform = "{1, 0, 0, 1, 101, 0}";
}
);
layerId = "91AB5BCA-6A50-42DA-B2F7-8181BF189245";
paths = (
{
closed = 1;
nodes = (
"721 1251 LINE",
"729 1321 LINE",
"152 1321 LINE",
"143 1251 LINE"
);
}
);
width = 1199;
}
);
leftKerningGroup = n;
rightKerningGroup = n;
rightMetricsKey = h;
unicode = 0127;
},
{
glyphname = i;
lastChange = "2019-05-31 16:36:05 +0000";
layers = (
{
anchors = (
{
name = bottom;
position = "{237, 0}";
}
);
background = {
paths = (
{
closed = 1;
nodes = (
"523 1069 OFFCURVE",
"509 1085 OFFCURVE",
"486 1085 CURVE SMOOTH",
"153 1085 LINE SMOOTH",
"128 1085 OFFCURVE",
"114 1069 OFFCURVE",
"114 1038 CURVE SMOOTH",
"114 51 LINE SMOOTH",
"114 16 OFFCURVE",
"126 0 OFFCURVE",
"167 0 CURVE SMOOTH",
"456 0 LINE SMOOTH",
"503 0 OFFCURVE",
"523 16 OFFCURVE",
"523 59 CURVE SMOOTH",
"523 1044 LINE SMOOTH"
);
},
{
closed = 1;
nodes = (
"523 1503 OFFCURVE",
"509 1520 OFFCURVE",
"486 1520 CURVE SMOOTH",
"153 1520 LINE SMOOTH",
"128 1520 OFFCURVE",
"114 1503 OFFCURVE",
"114 1473 CURVE SMOOTH",
"114 1229 LINE SMOOTH",
"114 1194 OFFCURVE",
"126 1176 OFFCURVE",
"167 1176 CURVE SMOOTH",
"456 1176 LINE SMOOTH",
"503 1176 OFFCURVE",
"523 1194 OFFCURVE",
"523 1235 CURVE SMOOTH",
"523 1477 LINE SMOOTH"
);
}
);
};
layerId = "258ED206-D907-4350-8EBA-CBDDA1C16BF7";
paths = (
{
closed = 1;
nodes = (
"433 0 LINE",
"593 1059 LINE",
"198 1059 LINE",
"36 0 LINE"
);
},
{
closed = 1;
nodes = (
"613 1186 LINE",
"665 1522 LINE",
"267 1522 LINE",
"216 1186 LINE"
);
}
);
width = 636;
},
{
anchors = (
{
name = bottom;
position = "{180, 0}";
}
);
background = {
paths = (
{
closed = 1;
nodes = (
"331 1081 OFFCURVE",
"327 1085 OFFCURVE",
"313 1085 CURVE SMOOTH",
"268 1085 LINE SMOOTH",
"254 1085 OFFCURVE",
"249 1081 OFFCURVE",
"249 1065 CURVE SMOOTH",
"249 20 LINE SMOOTH",
"249 4 OFFCURVE",
"254 0 OFFCURVE",
"272 0 CURVE SMOOTH",
"307 0 LINE SMOOTH",
"327 0 OFFCURVE",
"331 4 OFFCURVE",
"331 25 CURVE SMOOTH",
"331 1065 LINE SMOOTH"
);
},
{
closed = 1;
nodes = (
"342 1509 OFFCURVE",
"331 1520 OFFCURVE",
"317 1520 CURVE SMOOTH",
"264 1520 LINE SMOOTH",
"249 1520 OFFCURVE",
"239 1509 OFFCURVE",
"239 1493 CURVE SMOOTH",
"239 1348 LINE SMOOTH",
"239 1331 OFFCURVE",
"243 1319 OFFCURVE",
"262 1319 CURVE SMOOTH",
"317 1319 LINE SMOOTH",
"338 1319 OFFCURVE",
"342 1331 OFFCURVE",
"342 1352 CURVE SMOOTH",
"342 1493 LINE SMOOTH"
);
}
);
};
layerId = "91AB5BCA-6A50-42DA-B2F7-8181BF189245";
paths = (
{
closed = 1;
nodes = (
"219 0 LINE",
"366 1059 LINE",
"293 1059 LINE",
"145 0 LINE"
);
},
{
closed = 1;
nodes = (
"411 1325 LINE",
"430 1448 LINE",
"340 1448 LINE",
"321 1325 LINE"
);
}
);
width = 510;
}
);
leftKerningGroup = n;
leftMetricsKey = "=n*1.1";
rightKerningGroup = u;
rightMetricsKey = "=|n*1.1";
unicode = 0069;
},
{
glyphname = idotless;
lastChange = "2019-05-31 16:36:05 +0000";
layers = (
{
anchors = (
{
name = ogonek;
position = "{380, 18}";
},
{
name = top;
position = "{402, 1059}";
}
);
background = {
anchors = (
{
name = ogonek;
position = "{431, 18}";
},
{
name = top;
position = "{292, 1085}";
}
);
paths = (
{
closed = 1;
nodes = (
"488 1069 OFFCURVE",
"474 1085 OFFCURVE",
"452 1085 CURVE SMOOTH",
"118 1085 LINE SMOOTH",
"93 1085 OFFCURVE",
"79 1069 OFFCURVE",
"79 1038 CURVE SMOOTH",
"79 51 LINE SMOOTH",
"79 16 OFFCURVE",
"91 0 OFFCURVE",
"132 0 CURVE SMOOTH",
"421 0 LINE SMOOTH",
"468 0 OFFCURVE",
"488 16 OFFCURVE",
"488 59 CURVE SMOOTH",
"488 1044 LINE SMOOTH"
);
}
);
};
layerId = "258ED206-D907-4350-8EBA-CBDDA1C16BF7";
paths = (
{
closed = 1;
nodes = (
"433 0 LINE",
"595 1059 LINE",
"198 1059 LINE",
"36 0 LINE"
);
}
);
width = 631;
},
{
anchors = (
{
name = ogonek;
position = "{198, 27}";
},
{
name = top;
position = "{319, 1059}";
}
);
background = {
anchors = (
{
name = ogonek;
position = "{278, 27}";
},
{
name = top;
position = "{254, 1085}";
}
);
paths = (
{
closed = 1;
nodes = (
"295 1081 OFFCURVE",
"290 1085 OFFCURVE",
"276 1085 CURVE SMOOTH",
"231 1085 LINE SMOOTH",
"217 1085 OFFCURVE",
"213 1081 OFFCURVE",
"213 1065 CURVE SMOOTH",
"213 20 LINE SMOOTH",
"213 4 OFFCURVE",
"217 0 OFFCURVE",
"235 0 CURVE SMOOTH",
"270 0 LINE SMOOTH",
"290 0 OFFCURVE",
"295 4 OFFCURVE",
"295 25 CURVE SMOOTH",
"295 1065 LINE SMOOTH"
);
}
);
};
layerId = "91AB5BCA-6A50-42DA-B2F7-8181BF189245";
paths = (
{
closed = 1;
nodes = (
"209 0 LINE",
"358 1059 LINE",
"284 1059 LINE",
"135 0 LINE"
);
}
);
width = 493;
}
);
leftKerningGroup = n;
leftMetricsKey = i;
rightKerningGroup = u;
rightMetricsKey = i;
unicode = 0131;
},
{
glyphname = j;
lastChange = "2019-05-31 16:36:05 +0000";
layers = (
{
background = {
paths = (
{
closed = 1;
nodes = (
"528 1044 LINE SMOOTH",
"528 1069 OFFCURVE",
"516 1085 OFFCURVE",
"491 1085 CURVE SMOOTH",
"159 1085 LINE SMOOTH",
"135 1085 OFFCURVE",
"119 1069 OFFCURVE",
"119 1038 CURVE SMOOTH",
"119 74 LINE SMOOTH",
"119 4 OFFCURVE",
"96 -12 OFFCURVE",
"69 -20 CURVE SMOOTH",
"-2 -33 LINE SMOOTH",
"-29 -39 OFFCURVE",
"-43 -66 OFFCURVE",
"-43 -88 CURVE SMOOTH",
"-41 -297 LINE SMOOTH",
"-41 -340 OFFCURVE",
"-17 -348 OFFCURVE",
"98 -348 CURVE SMOOTH",
"389 -348 OFFCURVE",
"528 -211 OFFCURVE",
"528 59 CURVE SMOOTH"
);
},
{
closed = 1;
nodes = (
"528 1503 OFFCURVE",
"516 1520 OFFCURVE",
"491 1520 CURVE SMOOTH",
"159 1520 LINE SMOOTH",
"135 1520 OFFCURVE",
"119 1503 OFFCURVE",
"119 1473 CURVE SMOOTH",
"119 1229 LINE SMOOTH",
"119 1194 OFFCURVE",
"133 1176 OFFCURVE",
"174 1176 CURVE SMOOTH",
"463 1176 LINE SMOOTH",
"463 1176 OFFCURVE",
"528 1194 OFFCURVE",
"528 1235 CURVE SMOOTH",
"528 1477 LINE SMOOTH"
);
}
);
};
layerId = "258ED206-D907-4350-8EBA-CBDDA1C16BF7";
paths = (
{
closed = 1;
nodes = (
"274 -340 OFFCURVE",
"430 -205 OFFCURVE",
"469 57 CURVE SMOOTH",
"622 1059 LINE",
"225 1059 LINE",
"73 57 LINE",
"67 14 OFFCURVE",
"43 -12 OFFCURVE",
"-35 -29 CURVE",
"-99 -39 LINE",
"-137 -305 LINE",
"-137 -305 OFFCURVE",
"-111 -340 OFFCURVE",
"-6 -340 CURVE"
);
},
{
closed = 1;
nodes = (
"641 1186 LINE",
"692 1522 LINE",
"295 1522 LINE",
"243 1186 LINE"
);
}
);
width = 653;
},
{
background = {
paths = (
{
closed = 1;
nodes = (
"283 1065 LINE SMOOTH",
"283 1079 OFFCURVE",
"279 1085 OFFCURVE",
"266 1085 CURVE SMOOTH",
"221 1085 LINE SMOOTH",
"207 1085 OFFCURVE",
"201 1079 OFFCURVE",
"201 1065 CURVE SMOOTH",
"201 -94 LINE SMOOTH",
"201 -225 OFFCURVE",
"158 -270 OFFCURVE",
"49 -272 CURVE SMOOTH",
"-69 -274 LINE SMOOTH",
"-78 -274 OFFCURVE",
"-82 -279 OFFCURVE",
"-82 -287 CURVE SMOOTH",
"-82 -330 LINE SMOOTH",
"-82 -346 OFFCURVE",
"-69 -348 OFFCURVE",
"51 -348 CURVE SMOOTH",
"238 -348 OFFCURVE",
"283 -272 OFFCURVE",
"283 -104 CURVE SMOOTH"
);
},
{
closed = 1;
nodes = (
"293 1509 OFFCURVE",
"283 1520 OFFCURVE",
"269 1520 CURVE SMOOTH",
"215 1520 LINE SMOOTH",
"201 1520 OFFCURVE",
"191 1509 OFFCURVE",
"191 1493 CURVE SMOOTH",
"191 1348 LINE SMOOTH",
"191 1331 OFFCURVE",
"195 1319 OFFCURVE",
"213 1319 CURVE SMOOTH",
"269 1319 LINE SMOOTH",
"289 1319 OFFCURVE",
"293 1331 OFFCURVE",
"293 1352 CURVE SMOOTH",
"293 1493 LINE SMOOTH"
);
}
);
};
layerId = "91AB5BCA-6A50-42DA-B2F7-8181BF189245";
paths = (
{
closed = 1;
nodes = (
"94 -340 OFFCURVE",
"144 -266 OFFCURVE",
"166 -102 CURVE SMOOTH",
"330 1059 LINE",
"256 1059 LINE",
"94 -92 LINE SMOOTH",
"76 -219 OFFCURVE",
"33 -264 OFFCURVE",
"-65 -266 CURVE SMOOTH",
"-182 -268 LINE",
"-190 -322 LINE SMOOTH",
"-190 -322 OFFCURVE",
"-184 -340 OFFCURVE",
"-74 -340 CURVE SMOOTH"
);
},
{
closed = 1;
nodes = (
"377 1325 LINE",
"393 1448 LINE",
"303 1448 LINE",
"287 1325 LINE"
);
}
);
width = 455;
}
);
leftKerningGroup = j;
rightKerningGroup = u;
rightMetricsKey = "=|n";
unicode = 006A;
},
{
glyphname = jdotless;
lastChange = "2019-05-31 16:36:05 +0000";
layers = (
{
anchors = (
{
name = top;
position = "{422, 1059}";
}
);
background = {
anchors = (
{
name = top;
position = "{286, 1085}";
}
);
paths = (
{
closed = 1;
nodes = (
"491 1044 LINE SMOOTH",
"491 1069 OFFCURVE",
"479 1085 OFFCURVE",
"454 1085 CURVE SMOOTH",
"123 1085 LINE SMOOTH",
"98 1085 OFFCURVE",
"82 1069 OFFCURVE",
"82 1038 CURVE SMOOTH",
"82 74 LINE SMOOTH",
"82 4 OFFCURVE",
"59 -12 OFFCURVE",
"33 -20 CURVE SMOOTH",
"-39 -33 LINE SMOOTH",
"-66 -39 OFFCURVE",
"-80 -66 OFFCURVE",
"-80 -88 CURVE SMOOTH",
"-78 -297 LINE SMOOTH",
"-78 -340 OFFCURVE",
"-54 -348 OFFCURVE",
"61 -348 CURVE SMOOTH",
"352 -348 OFFCURVE",
"491 -211 OFFCURVE",
"491 59 CURVE SMOOTH"
);
}
);
};
layerId = "258ED206-D907-4350-8EBA-CBDDA1C16BF7";
paths = (
{
closed = 1;
nodes = (
"274 -340 OFFCURVE",
"430 -205 OFFCURVE",
"471 57 CURVE SMOOTH",
"622 1059 LINE",
"225 1059 LINE",
"73 57 LINE",
"67 14 OFFCURVE",
"41 -12 OFFCURVE",
"-37 -29 CURVE",
"-99 -39 LINE",
"-137 -305 LINE",
"-137 -305 OFFCURVE",
"-113 -340 OFFCURVE",
"-8 -340 CURVE"
);
}
);
width = 648;
},
{
anchors = (
{
name = top;
position = "{295, 1059}";
}
);
background = {
anchors = (
{
name = top;
position = "{215, 1085}";
}
);
paths = (
{
closed = 1;
nodes = (
"256 1065 LINE SMOOTH",
"256 1079 OFFCURVE",
"252 1085 OFFCURVE",
"240 1085 CURVE SMOOTH",
"195 1085 LINE SMOOTH",
"180 1085 OFFCURVE",
"174 1079 OFFCURVE",
"174 1065 CURVE SMOOTH",
"174 -94 LINE SMOOTH",
"174 -225 OFFCURVE",
"131 -270 OFFCURVE",
"23 -272 CURVE SMOOTH",
"-96 -274 LINE SMOOTH",
"-104 -274 OFFCURVE",
"-108 -279 OFFCURVE",
"-108 -287 CURVE SMOOTH",
"-108 -330 LINE SMOOTH",
"-108 -346 OFFCURVE",
"-96 -348 OFFCURVE",
"25 -348 CURVE SMOOTH",
"211 -348 OFFCURVE",
"256 -272 OFFCURVE",
"256 -104 CURVE SMOOTH"
);
}
);
};
layerId = "91AB5BCA-6A50-42DA-B2F7-8181BF189245";
paths = (
{
closed = 1;
nodes = (
"94 -340 OFFCURVE",
"146 -266 OFFCURVE",
"168 -102 CURVE SMOOTH",
"332 1059 LINE",
"258 1059 LINE",
"96 -92 LINE SMOOTH",
"78 -219 OFFCURVE",
"33 -264 OFFCURVE",
"-63 -266 CURVE SMOOTH",
"-182 -268 LINE",
"-190 -322 LINE SMOOTH",
"-192 -338 OFFCURVE",
"-182 -340 OFFCURVE",
"-71 -340 CURVE SMOOTH"
);
}
);
width = 448;
}
);
leftKerningGroup = j;
leftMetricsKey = j;
rightKerningGroup = u;
rightMetricsKey = j;
unicode = 0237;
},
{
glyphname = k;
lastChange = "2019-05-31 16:36:28 +0000";
layers = (
{
anchors = (
{
name = bottom;
position = "{540, 0}";
}
);
background = {
anchors = (
{
name = bottom;
position = "{630, 0}";
}
);
paths = (
{
closed = 1;
nodes = (
"943 690 LINE SMOOTH",
"925 727 OFFCURVE",
"929 739 OFFCURVE",
"947 762 CURVE SMOOTH",
"1212 1026 LINE SMOOTH",
"1238 1055 OFFCURVE",
"1230 1085 OFFCURVE",
"1183 1085 CURVE SMOOTH",
"902 1085 LINE SMOOTH",
"882 1085 OFFCURVE",
"859 1071 OFFCURVE",
"839 1051 CURVE SMOOTH",
"532 705 LINE SMOOTH",
"515 686 OFFCURVE",
"507 696 OFFCURVE",
"507 709 CURVE SMOOTH",
"507 1477 LINE SMOOTH",
"507 1503 OFFCURVE",
"495 1520 OFFCURVE",
"470 1520 CURVE SMOOTH",
"136 1520 LINE SMOOTH",
"114 1520 OFFCURVE",
"98 1503 OFFCURVE",
"98 1473 CURVE SMOOTH",
"98 51 LINE SMOOTH",
"98 16 OFFCURVE",
"110 0 OFFCURVE",
"153 0 CURVE SMOOTH",
"442 0 LINE SMOOTH",
"489 0 OFFCURVE",
"507 16 OFFCURVE",
"507 59 CURVE SMOOTH",
"507 266 LINE SMOOTH",
"507 299 OFFCURVE",
"513 313 OFFCURVE",
"526 324 CURVE SMOOTH",
"624 416 LINE SMOOTH",
"644 436 OFFCURVE",
"655 432 OFFCURVE",
"667 406 CURVE SMOOTH",
"814 53 LINE SMOOTH",
"829 20 OFFCURVE",
"847 0 OFFCURVE",
"882 0 CURVE SMOOTH",
"1232 0 LINE SMOOTH",
"1269 0 OFFCURVE",
"1283 35 OFFCURVE",
"1271 57 CURVE SMOOTH"
);
}
);
};
guideLines = (
{
angle = 50.4927;
position = "{259, 343}";
},
{
angle = 122;
position = "{400, 0}";
}
);
layerId = "258ED206-D907-4350-8EBA-CBDDA1C16BF7";
paths = (
{
closed = 1;
nodes = (
"421 0 LINE",
"468 299 LINE",
"558 389 LINE",
"741 0 LINE",
"1126 0 LINE",
"833 621 LINE",
"1285 1059 LINE",
"872 1059 LINE",
"528 702 LINE",
"653 1522 LINE",
"255 1522 LINE",
"26 0 LINE"
);
}
);
width = 1222;
},
{
anchors = (
{
name = bottom;
position = "{450, 0}";
}
);
background = {
anchors = (
{
name = bottom;
position = "{569, 0}";
}
);
paths = (
{
closed = 1;
nodes = (
"637 678 LINE SMOOTH",
"630 688 OFFCURVE",
"632 694 OFFCURVE",
"639 700 CURVE SMOOTH",
"985 1055 LINE SMOOTH",
"1003 1073 OFFCURVE",
"1001 1085 OFFCURVE",
"981 1085 CURVE SMOOTH",
"915 1085 LINE SMOOTH",
"901 1085 OFFCURVE",
"895 1081 OFFCURVE",
"880 1065 CURVE",
"299 469 LINE SMOOTH",
"282 453 OFFCURVE",
"278 455 OFFCURVE",
"278 479 CURVE SMOOTH",
"278 1499 LINE SMOOTH",
"278 1516 OFFCURVE",
"274 1520 OFFCURVE",
"260 1520 CURVE SMOOTH",
"215 1520 LINE SMOOTH",
"200 1520 OFFCURVE",
"196 1516 OFFCURVE",
"196 1499 CURVE SMOOTH",
"196 20 LINE SMOOTH",
"196 4 OFFCURVE",
"200 0 OFFCURVE",
"219 0 CURVE SMOOTH",
"254 0 LINE SMOOTH",
"274 0 OFFCURVE",
"278 4 OFFCURVE",
"278 25 CURVE SMOOTH",
"278 311 LINE SMOOTH",
"278 326 OFFCURVE",
"282 336 OFFCURVE",
"293 346 CURVE SMOOTH",
"555 612 LINE SMOOTH",
"565 623 OFFCURVE",
"567 618 OFFCURVE",
"571 612 CURVE SMOOTH",
"944 14 LINE SMOOTH",
"950 4 OFFCURVE",
"956 0 OFFCURVE",
"968 0 CURVE SMOOTH",
"1032 0 LINE SMOOTH",
"1050 0 OFFCURVE",
"1052 8 OFFCURVE",
"1042 25 CURVE SMOOTH"
);
}
);
};
guideLines = (
{
angle = 121.8697;
position = "{303, 140}";
}
);
layerId = "91AB5BCA-6A50-42DA-B2F7-8181BF189245";
paths = (
{
closed = 1;
nodes = (
"190 0 LINE",
"235 324 LINE",
"532 606 LINE",
"792 0 LINE",
"886 0 LINE",
"598 674 LINE",
"1001 1059 LINE",
"897 1059 LINE",
"252 438 LINE",
"403 1522 LINE",
"331 1522 LINE",
"116 0 LINE"
);
}
);
width = 1059;
}
);
leftKerningGroup = n;
leftMetricsKey = n;
rightKerningGroup = k;
rightMetricsKey = "=x*1.1";
unicode = 006B;
},
{
glyphname = kgreenlandic;
lastChange = "2019-05-31 16:36:28 +0000";
layers = (
{
background = {
paths = (
{
closed = 1;
nodes = (
"911 690 LINE SMOOTH",
"892 727 OFFCURVE",
"896 739 OFFCURVE",
"915 762 CURVE SMOOTH",
"1179 1026 LINE SMOOTH",
"1206 1055 OFFCURVE",
"1197 1085 OFFCURVE",
"1150 1085 CURVE SMOOTH",
"870 1085 LINE SMOOTH",
"849 1085 OFFCURVE",
"827 1071 OFFCURVE",
"806 1051 CURVE SMOOTH",
"499 705 LINE SMOOTH",
"483 686 OFFCURVE",
"474 696 OFFCURVE",
"474 709 CURVE SMOOTH",
"474 1042 LINE SMOOTH",
"474 1069 OFFCURVE",
"462 1085 OFFCURVE",
"438 1085 CURVE SMOOTH",
"104 1085 LINE SMOOTH",
"81 1085 OFFCURVE",
"65 1069 OFFCURVE",
"65 1038 CURVE SMOOTH",
"65 51 LINE SMOOTH",
"65 16 OFFCURVE",
"77 0 OFFCURVE",
"120 0 CURVE SMOOTH",
"409 0 LINE SMOOTH",
"456 0 OFFCURVE",
"474 16 OFFCURVE",
"474 59 CURVE SMOOTH",
"474 266 LINE SMOOTH",
"474 299 OFFCURVE",
"481 313 OFFCURVE",
"493 324 CURVE SMOOTH",
"591 416 LINE SMOOTH",
"612 436 OFFCURVE",
"622 432 OFFCURVE",
"634 406 CURVE SMOOTH",
"782 53 LINE SMOOTH",
"796 20 OFFCURVE",
"814 0 OFFCURVE",
"849 0 CURVE SMOOTH",
"1199 0 LINE SMOOTH",
"1236 0 OFFCURVE",
"1251 35 OFFCURVE",
"1238 57 CURVE SMOOTH"
);
}
);
};
layerId = "258ED206-D907-4350-8EBA-CBDDA1C16BF7";
paths = (
{
closed = 1;
nodes = (
"423 0 LINE",
"468 299 LINE",
"628 432 LINE",
"743 0 LINE",
"1189 0 LINE",
"933 717 LINE",
"1322 1059 LINE",
"933 1059 LINE",
"524 659 LINE",
"583 1059 LINE",
"188 1059 LINE",
"26 0 LINE"
);
}
);
width = 1274;
},
{
background = {
paths = (
{
closed = 1;
nodes = (
"604 678 LINE SMOOTH",
"598 688 OFFCURVE",
"600 694 OFFCURVE",
"606 700 CURVE SMOOTH",
"952 1055 LINE SMOOTH",
"970 1073 OFFCURVE",
"968 1085 OFFCURVE",
"948 1085 CURVE SMOOTH",
"882 1085 LINE SMOOTH",
"868 1085 OFFCURVE",
"862 1081 OFFCURVE",
"848 1065 CURVE",
"266 469 LINE SMOOTH",
"249 453 OFFCURVE",
"245 455 OFFCURVE",
"245 479 CURVE SMOOTH",
"245 1065 LINE SMOOTH",
"245 1081 OFFCURVE",
"241 1085 OFFCURVE",
"227 1085 CURVE SMOOTH",
"182 1085 LINE SMOOTH",
"168 1085 OFFCURVE",
"163 1081 OFFCURVE",
"163 1065 CURVE SMOOTH",
"163 20 LINE SMOOTH",
"163 4 OFFCURVE",
"168 0 OFFCURVE",
"186 0 CURVE SMOOTH",
"221 0 LINE SMOOTH",
"241 0 OFFCURVE",
"245 4 OFFCURVE",
"245 25 CURVE SMOOTH",
"245 311 LINE SMOOTH",
"245 326 OFFCURVE",
"249 336 OFFCURVE",
"260 346 CURVE SMOOTH",
"522 612 LINE SMOOTH",
"532 623 OFFCURVE",
"534 618 OFFCURVE",
"538 612 CURVE SMOOTH",
"911 14 LINE SMOOTH",
"917 4 OFFCURVE",
"923 0 OFFCURVE",
"936 0 CURVE SMOOTH",
"999 0 LINE SMOOTH",
"1017 0 OFFCURVE",
"1020 8 OFFCURVE",
"1009 25 CURVE SMOOTH"
);
}
);
};
layerId = "91AB5BCA-6A50-42DA-B2F7-8181BF189245";
paths = (
{
closed = 1;
nodes = (
"190 0 LINE",
"235 324 LINE",
"532 606 LINE",
"792 0 LINE",
"886 0 LINE",
"598 674 LINE",
"999 1059 LINE",
"897 1059 LINE",
"252 438 LINE",
"340 1059 LINE",
"266 1059 LINE",
"116 0 LINE"
);
}
);
width = 1059;
}
);
leftKerningGroup = n;
leftMetricsKey = k;
rightKerningGroup = k;
rightMetricsKey = k;
unicode = 0138;
},
{
glyphname = l;
lastChange = "2019-06-06 17:47:11 +0000";
layers = (
{
anchors = (
{
name = bottom;
position = "{191, 0}";
},
{
name = caron;
position = "{641, 1481}";
},
{
name = top;
position = "{457, 1567}";
}
);
background = {
anchors = (
{
name = bottom;
position = "{183, 0}";
},
{
name = top;
position = "{297, 1520}";
},
{
name = topright;
position = "{680, 1085}";
}
);
paths = (
{
closed = 1;
nodes = (
"660 264 LINE",
"660 264 OFFCURVE",
"607 268 OFFCURVE",
"588 272 CURVE SMOOTH",
"508 291 OFFCURVE",
"494 334 OFFCURVE",
"494 389 CURVE SMOOTH",
"494 1520 LINE",
"90 1520 LINE",
"84 354 LINE",
"84 195 OFFCURVE",
"107 -2 OFFCURVE",
"506 4 CURVE SMOOTH",
"559 6 OFFCURVE",
"592 10 OFFCURVE",
"660 18 CURVE"
);
}
);
};
layerId = "258ED206-D907-4350-8EBA-CBDDA1C16BF7";
paths = (
{
closed = 1;
nodes = (
"469 -23 OFFCURVE",
"523 -8 OFFCURVE",
"572 10 CURVE",
"609 252 LINE",
"568 256 LINE",
"463 270 OFFCURVE",
"459 322 OFFCURVE",
"467 373 CURVE SMOOTH",
"641 1522 LINE",
"252 1522 LINE",
"70 319 LINE",
"47 164 OFFCURVE",
"31 -23 OFFCURVE",
"420 -23 CURVE SMOOTH"
);
}
);
width = 707;
},
{
anchors = (
{
name = bottom;
position = "{191, 2}";
},
{
name = caron;
position = "{397, 1481}";
},
{
name = top;
position = "{365, 1561}";
}
);
background = {
anchors = (
{
name = bottom;
position = "{252, 0}";
},
{
name = top;
position = "{252, 1520}";
},
{
name = topright;
position = "{549, 1520}";
}
);
paths = (
{
closed = 1;
nodes = (
"518 74 LINE",
"498 74 OFFCURVE",
"471 74 OFFCURVE",
"438 74 CURVE SMOOTH",
"307 74 OFFCURVE",
"293 178 OFFCURVE",
"293 266 CURVE",
"293 1520 LINE",
"211 1520 LINE",
"211 266 LINE",
"211 117 OFFCURVE",
"268 4 OFFCURVE",
"414 4 CURVE SMOOTH",
"463 4 OFFCURVE",
"492 6 OFFCURVE",
"518 12 CURVE"
);
}
);
};
layerId = "91AB5BCA-6A50-42DA-B2F7-8181BF189245";
paths = (
{
closed = 1;
nodes = (
"307 -8 OFFCURVE",
"334 -6 OFFCURVE",
"359 0 CURVE",
"367 59 LINE",
"307 59 LINE",
"254 59 OFFCURVE",
"205 111 OFFCURVE",
"223 248 CURVE",
"404 1522 LINE",
"330 1522 LINE",
"150 248 LINE",
"129 102 OFFCURVE",
"166 -8 OFFCURVE",
"295 -8 CURVE SMOOTH"
);
}
);
width = 544;
}
);
leftKerningGroup = n;
leftMetricsKey = n;
rightKerningGroup = l;
rightMetricsKey = "=u*.65";
unicode = 006C;
},
{
glyphname = lslash;
lastChange = "2019-05-31 16:36:05 +0000";
layers = (
{
background = {
components = (
{
name = l;
transform = "{1, 0, 0, 1, 37, 0}";
}
);
paths = (
{
closed = 1;
nodes = (
"710 1038 OFFCURVE",
"696 1047 OFFCURVE",
"661 1024 CURVE SMOOTH",
"85 664 LINE SMOOTH",
"61 647 OFFCURVE",
"46 625 OFFCURVE",
"46 594 CURVE SMOOTH",
"46 348 LINE SMOOTH",
"46 313 OFFCURVE",
"59 307 OFFCURVE",
"100 334 CURVE SMOOTH",
"669 707 LINE SMOOTH",
"696 725 OFFCURVE",
"710 750 OFFCURVE",
"710 774 CURVE SMOOTH",
"710 1006 LINE SMOOTH"
);
}
);
};
components = (
{
name = l;
transform = "{1, 0, 0, 1, 166, 0}";
}
);
layerId = "258ED206-D907-4350-8EBA-CBDDA1C16BF7";
leftMetricsKey = "=l-30";
rightMetricsKey = "=l";
paths = (
{
closed = 1;
nodes = (
"730 715 LINE",
"730 1028 LINE",
"83 623 LINE",
"83 291 LINE"
);
}
);
width = 873;
},
{
background = {
components = (
{
name = l;
transform = "{1, 0, 0, 1, 80, 0}";
}
);
paths = (
{
closed = 1;
nodes = (
"554 895 OFFCURVE",
"550 899 OFFCURVE",
"540 891 CURVE SMOOTH",
"79 461 LINE SMOOTH",
"73 455 OFFCURVE",
"69 449 OFFCURVE",
"69 440 CURVE SMOOTH",
"69 381 LINE SMOOTH",
"69 371 OFFCURVE",
"73 362 OFFCURVE",
"83 371 CURVE SMOOTH",
"542 803 LINE SMOOTH",
"550 811 OFFCURVE",
"554 817 OFFCURVE",
"554 825 CURVE SMOOTH",
"554 887 LINE SMOOTH"
);
}
);
};
components = (
{
name = l;
transform = "{1, 0, 0, 1, 75, 0}";
}
);
layerId = "91AB5BCA-6A50-42DA-B2F7-8181BF189245";
leftMetricsKey = "=l-110";
paths = (
{
closed = 1;
nodes = (
"540 795 LINE",
"540 883 LINE",
"67 440 LINE",
"67 348 LINE"
);
}
);
width = 639;
}
);
leftKerningGroup = n;
leftMetricsKey = "=l-130";
rightKerningGroup = l;
rightMetricsKey = "=l+20";
unicode = 0142;
},
